G04 #@! TF.GenerationSoftware,KiCad,Pcbnew,7.0.8*
G04 #@! TF.CreationDate,2024-01-13T09:50:40-08:00*
G04 #@! TF.ProjectId,ph-sensor,70682d73-656e-4736-9f72-2e6b69636164,rev?*
G04 #@! TF.SameCoordinates,Original*
G04 #@! TF.FileFunction,Legend,Top*
G04 #@! TF.FilePolarity,Positive*
%FSLAX46Y46*%
G04 Gerber Fmt 4.6, Leading zero omitted, Abs format (unit mm)*
G04 Created by KiCad (PCBNEW 7.0.8) date 2024-01-13 09:50:40*
%MOMM*%
%LPD*%
G01*
G04 APERTURE LIST*
G04 Aperture macros list*
%AMRoundRect*
0 Rectangle with rounded corners*
0 $1 Rounding radius*
0 $2 $3 $4 $5 $6 $7 $8 $9 X,Y pos of 4 corners*
0 Add a 4 corners polygon primitive as box body*
4,1,4,$2,$3,$4,$5,$6,$7,$8,$9,$2,$3,0*
0 Add four circle primitives for the rounded corners*
1,1,$1+$1,$2,$3*
1,1,$1+$1,$4,$5*
1,1,$1+$1,$6,$7*
1,1,$1+$1,$8,$9*
0 Add four rect primitives between the rounded corners*
20,1,$1+$1,$2,$3,$4,$5,0*
20,1,$1+$1,$4,$5,$6,$7,0*
20,1,$1+$1,$6,$7,$8,$9,0*
20,1,$1+$1,$8,$9,$2,$3,0*%
G04 Aperture macros list end*
%ADD10C,0.150000*%
%ADD11C,0.100000*%
%ADD12C,0.120000*%
%ADD13RoundRect,0.250000X-0.412500X-0.650000X0.412500X-0.650000X0.412500X0.650000X-0.412500X0.650000X0*%
%ADD14C,1.778000*%
%ADD15C,3.404000*%
%ADD16RoundRect,0.237500X0.250000X0.237500X-0.250000X0.237500X-0.250000X-0.237500X0.250000X-0.237500X0*%
%ADD17RoundRect,0.050800X-0.889000X-0.889000X0.889000X-0.889000X0.889000X0.889000X-0.889000X0.889000X0*%
%ADD18C,1.879600*%
%ADD19RoundRect,0.237500X-0.250000X-0.237500X0.250000X-0.237500X0.250000X0.237500X-0.250000X0.237500X0*%
%ADD20C,1.700000*%
%ADD21O,1.700000X1.700000*%
%ADD22R,1.700000X1.700000*%
%ADD23RoundRect,0.250000X0.412500X0.650000X-0.412500X0.650000X-0.412500X-0.650000X0.412500X-0.650000X0*%
%ADD24R,1.524000X1.524000*%
%ADD25C,1.734000*%
G04 APERTURE END LIST*
D10*
X147150895Y-79430952D02*
X147150895Y-79907142D01*
X146865180Y-79335714D02*
X147865180Y-79669047D01*
X147865180Y-79669047D02*
X146865180Y-80002380D01*
X146865180Y-80335714D02*
X147865180Y-80335714D01*
X147865180Y-80335714D02*
X147865180Y-80573809D01*
X147865180Y-80573809D02*
X147817561Y-80716666D01*
X147817561Y-80716666D02*
X147722323Y-80811904D01*
X147722323Y-80811904D02*
X147627085Y-80859523D01*
X147627085Y-80859523D02*
X147436609Y-80907142D01*
X147436609Y-80907142D02*
X147293752Y-80907142D01*
X147293752Y-80907142D02*
X147103276Y-80859523D01*
X147103276Y-80859523D02*
X147008038Y-80811904D01*
X147008038Y-80811904D02*
X146912800Y-80716666D01*
X146912800Y-80716666D02*
X146865180Y-80573809D01*
X146865180Y-80573809D02*
X146865180Y-80335714D01*
X146912800Y-81288095D02*
X146865180Y-81430952D01*
X146865180Y-81430952D02*
X146865180Y-81669047D01*
X146865180Y-81669047D02*
X146912800Y-81764285D01*
X146912800Y-81764285D02*
X146960419Y-81811904D01*
X146960419Y-81811904D02*
X147055657Y-81859523D01*
X147055657Y-81859523D02*
X147150895Y-81859523D01*
X147150895Y-81859523D02*
X147246133Y-81811904D01*
X147246133Y-81811904D02*
X147293752Y-81764285D01*
X147293752Y-81764285D02*
X147341371Y-81669047D01*
X147341371Y-81669047D02*
X147388990Y-81478571D01*
X147388990Y-81478571D02*
X147436609Y-81383333D01*
X147436609Y-81383333D02*
X147484228Y-81335714D01*
X147484228Y-81335714D02*
X147579466Y-81288095D01*
X147579466Y-81288095D02*
X147674704Y-81288095D01*
X147674704Y-81288095D02*
X147769942Y-81335714D01*
X147769942Y-81335714D02*
X147817561Y-81383333D01*
X147817561Y-81383333D02*
X147865180Y-81478571D01*
X147865180Y-81478571D02*
X147865180Y-81716666D01*
X147865180Y-81716666D02*
X147817561Y-81859523D01*
X146865180Y-82811904D02*
X146865180Y-82240476D01*
X146865180Y-82526190D02*
X147865180Y-82526190D01*
X147865180Y-82526190D02*
X147722323Y-82430952D01*
X147722323Y-82430952D02*
X147627085Y-82335714D01*
X147627085Y-82335714D02*
X147579466Y-82240476D01*
X147865180Y-83430952D02*
X147865180Y-83526190D01*
X147865180Y-83526190D02*
X147817561Y-83621428D01*
X147817561Y-83621428D02*
X147769942Y-83669047D01*
X147769942Y-83669047D02*
X147674704Y-83716666D01*
X147674704Y-83716666D02*
X147484228Y-83764285D01*
X147484228Y-83764285D02*
X147246133Y-83764285D01*
X147246133Y-83764285D02*
X147055657Y-83716666D01*
X147055657Y-83716666D02*
X146960419Y-83669047D01*
X146960419Y-83669047D02*
X146912800Y-83621428D01*
X146912800Y-83621428D02*
X146865180Y-83526190D01*
X146865180Y-83526190D02*
X146865180Y-83430952D01*
X146865180Y-83430952D02*
X146912800Y-83335714D01*
X146912800Y-83335714D02*
X146960419Y-83288095D01*
X146960419Y-83288095D02*
X147055657Y-83240476D01*
X147055657Y-83240476D02*
X147246133Y-83192857D01*
X147246133Y-83192857D02*
X147484228Y-83192857D01*
X147484228Y-83192857D02*
X147674704Y-83240476D01*
X147674704Y-83240476D02*
X147769942Y-83288095D01*
X147769942Y-83288095D02*
X147817561Y-83335714D01*
X147817561Y-83335714D02*
X147865180Y-83430952D01*
X146865180Y-84716666D02*
X146865180Y-84145238D01*
X146865180Y-84430952D02*
X147865180Y-84430952D01*
X147865180Y-84430952D02*
X147722323Y-84335714D01*
X147722323Y-84335714D02*
X147627085Y-84240476D01*
X147627085Y-84240476D02*
X147579466Y-84145238D01*
X147865180Y-85621428D02*
X147865180Y-85145238D01*
X147865180Y-85145238D02*
X147388990Y-85097619D01*
X147388990Y-85097619D02*
X147436609Y-85145238D01*
X147436609Y-85145238D02*
X147484228Y-85240476D01*
X147484228Y-85240476D02*
X147484228Y-85478571D01*
X147484228Y-85478571D02*
X147436609Y-85573809D01*
X147436609Y-85573809D02*
X147388990Y-85621428D01*
X147388990Y-85621428D02*
X147293752Y-85669047D01*
X147293752Y-85669047D02*
X147055657Y-85669047D01*
X147055657Y-85669047D02*
X146960419Y-85621428D01*
X146960419Y-85621428D02*
X146912800Y-85573809D01*
X146912800Y-85573809D02*
X146865180Y-85478571D01*
X146865180Y-85478571D02*
X146865180Y-85240476D01*
X146865180Y-85240476D02*
X146912800Y-85145238D01*
X146912800Y-85145238D02*
X146960419Y-85097619D01*
X169077238Y-83131819D02*
X169077238Y-82131819D01*
X169077238Y-82131819D02*
X169315333Y-82131819D01*
X169315333Y-82131819D02*
X169458190Y-82179438D01*
X169458190Y-82179438D02*
X169553428Y-82274676D01*
X169553428Y-82274676D02*
X169601047Y-82369914D01*
X169601047Y-82369914D02*
X169648666Y-82560390D01*
X169648666Y-82560390D02*
X169648666Y-82703247D01*
X169648666Y-82703247D02*
X169601047Y-82893723D01*
X169601047Y-82893723D02*
X169553428Y-82988961D01*
X169553428Y-82988961D02*
X169458190Y-83084200D01*
X169458190Y-83084200D02*
X169315333Y-83131819D01*
X169315333Y-83131819D02*
X169077238Y-83131819D01*
X170029619Y-83084200D02*
X170172476Y-83131819D01*
X170172476Y-83131819D02*
X170410571Y-83131819D01*
X170410571Y-83131819D02*
X170505809Y-83084200D01*
X170505809Y-83084200D02*
X170553428Y-83036580D01*
X170553428Y-83036580D02*
X170601047Y-82941342D01*
X170601047Y-82941342D02*
X170601047Y-82846104D01*
X170601047Y-82846104D02*
X170553428Y-82750866D01*
X170553428Y-82750866D02*
X170505809Y-82703247D01*
X170505809Y-82703247D02*
X170410571Y-82655628D01*
X170410571Y-82655628D02*
X170220095Y-82608009D01*
X170220095Y-82608009D02*
X170124857Y-82560390D01*
X170124857Y-82560390D02*
X170077238Y-82512771D01*
X170077238Y-82512771D02*
X170029619Y-82417533D01*
X170029619Y-82417533D02*
X170029619Y-82322295D01*
X170029619Y-82322295D02*
X170077238Y-82227057D01*
X170077238Y-82227057D02*
X170124857Y-82179438D01*
X170124857Y-82179438D02*
X170220095Y-82131819D01*
X170220095Y-82131819D02*
X170458190Y-82131819D01*
X170458190Y-82131819D02*
X170601047Y-82179438D01*
X170934381Y-82131819D02*
X171553428Y-82131819D01*
X171553428Y-82131819D02*
X171220095Y-82512771D01*
X171220095Y-82512771D02*
X171362952Y-82512771D01*
X171362952Y-82512771D02*
X171458190Y-82560390D01*
X171458190Y-82560390D02*
X171505809Y-82608009D01*
X171505809Y-82608009D02*
X171553428Y-82703247D01*
X171553428Y-82703247D02*
X171553428Y-82941342D01*
X171553428Y-82941342D02*
X171505809Y-83036580D01*
X171505809Y-83036580D02*
X171458190Y-83084200D01*
X171458190Y-83084200D02*
X171362952Y-83131819D01*
X171362952Y-83131819D02*
X171077238Y-83131819D01*
X171077238Y-83131819D02*
X170982000Y-83084200D01*
X170982000Y-83084200D02*
X170934381Y-83036580D01*
X171934381Y-82227057D02*
X171982000Y-82179438D01*
X171982000Y-82179438D02*
X172077238Y-82131819D01*
X172077238Y-82131819D02*
X172315333Y-82131819D01*
X172315333Y-82131819D02*
X172410571Y-82179438D01*
X172410571Y-82179438D02*
X172458190Y-82227057D01*
X172458190Y-82227057D02*
X172505809Y-82322295D01*
X172505809Y-82322295D02*
X172505809Y-82417533D01*
X172505809Y-82417533D02*
X172458190Y-82560390D01*
X172458190Y-82560390D02*
X171886762Y-83131819D01*
X171886762Y-83131819D02*
X172505809Y-83131819D01*
X172839143Y-82131819D02*
X173458190Y-82131819D01*
X173458190Y-82131819D02*
X173124857Y-82512771D01*
X173124857Y-82512771D02*
X173267714Y-82512771D01*
X173267714Y-82512771D02*
X173362952Y-82560390D01*
X173362952Y-82560390D02*
X173410571Y-82608009D01*
X173410571Y-82608009D02*
X173458190Y-82703247D01*
X173458190Y-82703247D02*
X173458190Y-82941342D01*
X173458190Y-82941342D02*
X173410571Y-83036580D01*
X173410571Y-83036580D02*
X173362952Y-83084200D01*
X173362952Y-83084200D02*
X173267714Y-83131819D01*
X173267714Y-83131819D02*
X172982000Y-83131819D01*
X172982000Y-83131819D02*
X172886762Y-83084200D01*
X172886762Y-83084200D02*
X172839143Y-83036580D01*
X174410571Y-83131819D02*
X173839143Y-83131819D01*
X174124857Y-83131819D02*
X174124857Y-82131819D01*
X174124857Y-82131819D02*
X174029619Y-82274676D01*
X174029619Y-82274676D02*
X173934381Y-82369914D01*
X173934381Y-82369914D02*
X173839143Y-82417533D01*
X176172476Y-83131819D02*
X175839143Y-82655628D01*
X175601048Y-83131819D02*
X175601048Y-82131819D01*
X175601048Y-82131819D02*
X175982000Y-82131819D01*
X175982000Y-82131819D02*
X176077238Y-82179438D01*
X176077238Y-82179438D02*
X176124857Y-82227057D01*
X176124857Y-82227057D02*
X176172476Y-82322295D01*
X176172476Y-82322295D02*
X176172476Y-82465152D01*
X176172476Y-82465152D02*
X176124857Y-82560390D01*
X176124857Y-82560390D02*
X176077238Y-82608009D01*
X176077238Y-82608009D02*
X175982000Y-82655628D01*
X175982000Y-82655628D02*
X175601048Y-82655628D01*
X176458191Y-82131819D02*
X177029619Y-82131819D01*
X176743905Y-83131819D02*
X176743905Y-82131819D01*
X177934381Y-83036580D02*
X177886762Y-83084200D01*
X177886762Y-83084200D02*
X177743905Y-83131819D01*
X177743905Y-83131819D02*
X177648667Y-83131819D01*
X177648667Y-83131819D02*
X177505810Y-83084200D01*
X177505810Y-83084200D02*
X177410572Y-82988961D01*
X177410572Y-82988961D02*
X177362953Y-82893723D01*
X177362953Y-82893723D02*
X177315334Y-82703247D01*
X177315334Y-82703247D02*
X177315334Y-82560390D01*
X177315334Y-82560390D02*
X177362953Y-82369914D01*
X177362953Y-82369914D02*
X177410572Y-82274676D01*
X177410572Y-82274676D02*
X177505810Y-82179438D01*
X177505810Y-82179438D02*
X177648667Y-82131819D01*
X177648667Y-82131819D02*
X177743905Y-82131819D01*
X177743905Y-82131819D02*
X177886762Y-82179438D01*
X177886762Y-82179438D02*
X177934381Y-82227057D01*
X104955180Y-74010000D02*
X105955180Y-74010000D01*
X105955180Y-74010000D02*
X104955180Y-74581428D01*
X104955180Y-74581428D02*
X105955180Y-74581428D01*
X104955180Y-75629047D02*
X105431371Y-75295714D01*
X104955180Y-75057619D02*
X105955180Y-75057619D01*
X105955180Y-75057619D02*
X105955180Y-75438571D01*
X105955180Y-75438571D02*
X105907561Y-75533809D01*
X105907561Y-75533809D02*
X105859942Y-75581428D01*
X105859942Y-75581428D02*
X105764704Y-75629047D01*
X105764704Y-75629047D02*
X105621847Y-75629047D01*
X105621847Y-75629047D02*
X105526609Y-75581428D01*
X105526609Y-75581428D02*
X105478990Y-75533809D01*
X105478990Y-75533809D02*
X105431371Y-75438571D01*
X105431371Y-75438571D02*
X105431371Y-75057619D01*
X105478990Y-76390952D02*
X105478990Y-76057619D01*
X104955180Y-76057619D02*
X105955180Y-76057619D01*
X105955180Y-76057619D02*
X105955180Y-76533809D01*
X105859942Y-76867143D02*
X105907561Y-76914762D01*
X105907561Y-76914762D02*
X105955180Y-77010000D01*
X105955180Y-77010000D02*
X105955180Y-77248095D01*
X105955180Y-77248095D02*
X105907561Y-77343333D01*
X105907561Y-77343333D02*
X105859942Y-77390952D01*
X105859942Y-77390952D02*
X105764704Y-77438571D01*
X105764704Y-77438571D02*
X105669466Y-77438571D01*
X105669466Y-77438571D02*
X105526609Y-77390952D01*
X105526609Y-77390952D02*
X104955180Y-76819524D01*
X104955180Y-76819524D02*
X104955180Y-77438571D01*
X105621847Y-78295714D02*
X104955180Y-78295714D01*
X106002800Y-78057619D02*
X105288514Y-77819524D01*
X105288514Y-77819524D02*
X105288514Y-78438571D01*
X104955180Y-79295714D02*
X104955180Y-78819524D01*
X104955180Y-78819524D02*
X105955180Y-78819524D01*
X105955180Y-79819524D02*
X105955180Y-79914762D01*
X105955180Y-79914762D02*
X105907561Y-80010000D01*
X105907561Y-80010000D02*
X105859942Y-80057619D01*
X105859942Y-80057619D02*
X105764704Y-80105238D01*
X105764704Y-80105238D02*
X105574228Y-80152857D01*
X105574228Y-80152857D02*
X105336133Y-80152857D01*
X105336133Y-80152857D02*
X105145657Y-80105238D01*
X105145657Y-80105238D02*
X105050419Y-80057619D01*
X105050419Y-80057619D02*
X105002800Y-80010000D01*
X105002800Y-80010000D02*
X104955180Y-79914762D01*
X104955180Y-79914762D02*
X104955180Y-79819524D01*
X104955180Y-79819524D02*
X105002800Y-79724286D01*
X105002800Y-79724286D02*
X105050419Y-79676667D01*
X105050419Y-79676667D02*
X105145657Y-79629048D01*
X105145657Y-79629048D02*
X105336133Y-79581429D01*
X105336133Y-79581429D02*
X105574228Y-79581429D01*
X105574228Y-79581429D02*
X105764704Y-79629048D01*
X105764704Y-79629048D02*
X105859942Y-79676667D01*
X105859942Y-79676667D02*
X105907561Y-79724286D01*
X105907561Y-79724286D02*
X105955180Y-79819524D01*
X104955180Y-81105238D02*
X104955180Y-80533810D01*
X104955180Y-80819524D02*
X105955180Y-80819524D01*
X105955180Y-80819524D02*
X105812323Y-80724286D01*
X105812323Y-80724286D02*
X105717085Y-80629048D01*
X105717085Y-80629048D02*
X105669466Y-80533810D01*
X104955180Y-82867143D02*
X105431371Y-82533810D01*
X104955180Y-82295715D02*
X105955180Y-82295715D01*
X105955180Y-82295715D02*
X105955180Y-82676667D01*
X105955180Y-82676667D02*
X105907561Y-82771905D01*
X105907561Y-82771905D02*
X105859942Y-82819524D01*
X105859942Y-82819524D02*
X105764704Y-82867143D01*
X105764704Y-82867143D02*
X105621847Y-82867143D01*
X105621847Y-82867143D02*
X105526609Y-82819524D01*
X105526609Y-82819524D02*
X105478990Y-82771905D01*
X105478990Y-82771905D02*
X105431371Y-82676667D01*
X105431371Y-82676667D02*
X105431371Y-82295715D01*
X104955180Y-83724286D02*
X105478990Y-83724286D01*
X105478990Y-83724286D02*
X105574228Y-83676667D01*
X105574228Y-83676667D02*
X105621847Y-83581429D01*
X105621847Y-83581429D02*
X105621847Y-83390953D01*
X105621847Y-83390953D02*
X105574228Y-83295715D01*
X105002800Y-83724286D02*
X104955180Y-83629048D01*
X104955180Y-83629048D02*
X104955180Y-83390953D01*
X104955180Y-83390953D02*
X105002800Y-83295715D01*
X105002800Y-83295715D02*
X105098038Y-83248096D01*
X105098038Y-83248096D02*
X105193276Y-83248096D01*
X105193276Y-83248096D02*
X105288514Y-83295715D01*
X105288514Y-83295715D02*
X105336133Y-83390953D01*
X105336133Y-83390953D02*
X105336133Y-83629048D01*
X105336133Y-83629048D02*
X105383752Y-83724286D01*
X104955180Y-84629048D02*
X105955180Y-84629048D01*
X105002800Y-84629048D02*
X104955180Y-84533810D01*
X104955180Y-84533810D02*
X104955180Y-84343334D01*
X104955180Y-84343334D02*
X105002800Y-84248096D01*
X105002800Y-84248096D02*
X105050419Y-84200477D01*
X105050419Y-84200477D02*
X105145657Y-84152858D01*
X105145657Y-84152858D02*
X105431371Y-84152858D01*
X105431371Y-84152858D02*
X105526609Y-84200477D01*
X105526609Y-84200477D02*
X105574228Y-84248096D01*
X105574228Y-84248096D02*
X105621847Y-84343334D01*
X105621847Y-84343334D02*
X105621847Y-84533810D01*
X105621847Y-84533810D02*
X105574228Y-84629048D01*
X104955180Y-85105239D02*
X105621847Y-85105239D01*
X105955180Y-85105239D02*
X105907561Y-85057620D01*
X105907561Y-85057620D02*
X105859942Y-85105239D01*
X105859942Y-85105239D02*
X105907561Y-85152858D01*
X105907561Y-85152858D02*
X105955180Y-85105239D01*
X105955180Y-85105239D02*
X105859942Y-85105239D01*
X104955180Y-85724286D02*
X105002800Y-85629048D01*
X105002800Y-85629048D02*
X105050419Y-85581429D01*
X105050419Y-85581429D02*
X105145657Y-85533810D01*
X105145657Y-85533810D02*
X105431371Y-85533810D01*
X105431371Y-85533810D02*
X105526609Y-85581429D01*
X105526609Y-85581429D02*
X105574228Y-85629048D01*
X105574228Y-85629048D02*
X105621847Y-85724286D01*
X105621847Y-85724286D02*
X105621847Y-85867143D01*
X105621847Y-85867143D02*
X105574228Y-85962381D01*
X105574228Y-85962381D02*
X105526609Y-86010000D01*
X105526609Y-86010000D02*
X105431371Y-86057619D01*
X105431371Y-86057619D02*
X105145657Y-86057619D01*
X105145657Y-86057619D02*
X105050419Y-86010000D01*
X105050419Y-86010000D02*
X105002800Y-85962381D01*
X105002800Y-85962381D02*
X104955180Y-85867143D01*
X104955180Y-85867143D02*
X104955180Y-85724286D01*
X128100895Y-77652952D02*
X128100895Y-78129142D01*
X127815180Y-77557714D02*
X128815180Y-77891047D01*
X128815180Y-77891047D02*
X127815180Y-78224380D01*
X127815180Y-78557714D02*
X128815180Y-78557714D01*
X128815180Y-78557714D02*
X128815180Y-78795809D01*
X128815180Y-78795809D02*
X128767561Y-78938666D01*
X128767561Y-78938666D02*
X128672323Y-79033904D01*
X128672323Y-79033904D02*
X128577085Y-79081523D01*
X128577085Y-79081523D02*
X128386609Y-79129142D01*
X128386609Y-79129142D02*
X128243752Y-79129142D01*
X128243752Y-79129142D02*
X128053276Y-79081523D01*
X128053276Y-79081523D02*
X127958038Y-79033904D01*
X127958038Y-79033904D02*
X127862800Y-78938666D01*
X127862800Y-78938666D02*
X127815180Y-78795809D01*
X127815180Y-78795809D02*
X127815180Y-78557714D01*
X127862800Y-79510095D02*
X127815180Y-79652952D01*
X127815180Y-79652952D02*
X127815180Y-79891047D01*
X127815180Y-79891047D02*
X127862800Y-79986285D01*
X127862800Y-79986285D02*
X127910419Y-80033904D01*
X127910419Y-80033904D02*
X128005657Y-80081523D01*
X128005657Y-80081523D02*
X128100895Y-80081523D01*
X128100895Y-80081523D02*
X128196133Y-80033904D01*
X128196133Y-80033904D02*
X128243752Y-79986285D01*
X128243752Y-79986285D02*
X128291371Y-79891047D01*
X128291371Y-79891047D02*
X128338990Y-79700571D01*
X128338990Y-79700571D02*
X128386609Y-79605333D01*
X128386609Y-79605333D02*
X128434228Y-79557714D01*
X128434228Y-79557714D02*
X128529466Y-79510095D01*
X128529466Y-79510095D02*
X128624704Y-79510095D01*
X128624704Y-79510095D02*
X128719942Y-79557714D01*
X128719942Y-79557714D02*
X128767561Y-79605333D01*
X128767561Y-79605333D02*
X128815180Y-79700571D01*
X128815180Y-79700571D02*
X128815180Y-79938666D01*
X128815180Y-79938666D02*
X128767561Y-80081523D01*
X127815180Y-81033904D02*
X127815180Y-80462476D01*
X127815180Y-80748190D02*
X128815180Y-80748190D01*
X128815180Y-80748190D02*
X128672323Y-80652952D01*
X128672323Y-80652952D02*
X128577085Y-80557714D01*
X128577085Y-80557714D02*
X128529466Y-80462476D01*
X127815180Y-81986285D02*
X127815180Y-81414857D01*
X127815180Y-81700571D02*
X128815180Y-81700571D01*
X128815180Y-81700571D02*
X128672323Y-81605333D01*
X128672323Y-81605333D02*
X128577085Y-81510095D01*
X128577085Y-81510095D02*
X128529466Y-81414857D01*
X127815180Y-82938666D02*
X127815180Y-82367238D01*
X127815180Y-82652952D02*
X128815180Y-82652952D01*
X128815180Y-82652952D02*
X128672323Y-82557714D01*
X128672323Y-82557714D02*
X128577085Y-82462476D01*
X128577085Y-82462476D02*
X128529466Y-82367238D01*
X128815180Y-83843428D02*
X128815180Y-83367238D01*
X128815180Y-83367238D02*
X128338990Y-83319619D01*
X128338990Y-83319619D02*
X128386609Y-83367238D01*
X128386609Y-83367238D02*
X128434228Y-83462476D01*
X128434228Y-83462476D02*
X128434228Y-83700571D01*
X128434228Y-83700571D02*
X128386609Y-83795809D01*
X128386609Y-83795809D02*
X128338990Y-83843428D01*
X128338990Y-83843428D02*
X128243752Y-83891047D01*
X128243752Y-83891047D02*
X128005657Y-83891047D01*
X128005657Y-83891047D02*
X127910419Y-83843428D01*
X127910419Y-83843428D02*
X127862800Y-83795809D01*
X127862800Y-83795809D02*
X127815180Y-83700571D01*
X127815180Y-83700571D02*
X127815180Y-83462476D01*
X127815180Y-83462476D02*
X127862800Y-83367238D01*
X127862800Y-83367238D02*
X127910419Y-83319619D01*
X146193143Y-97562200D02*
X146288381Y-97609819D01*
X146288381Y-97609819D02*
X146478857Y-97609819D01*
X146478857Y-97609819D02*
X146574095Y-97562200D01*
X146574095Y-97562200D02*
X146621714Y-97466961D01*
X146621714Y-97466961D02*
X146621714Y-97419342D01*
X146621714Y-97419342D02*
X146574095Y-97324104D01*
X146574095Y-97324104D02*
X146478857Y-97276485D01*
X146478857Y-97276485D02*
X146336000Y-97276485D01*
X146336000Y-97276485D02*
X146240762Y-97228866D01*
X146240762Y-97228866D02*
X146193143Y-97133628D01*
X146193143Y-97133628D02*
X146193143Y-97086009D01*
X146193143Y-97086009D02*
X146240762Y-96990771D01*
X146240762Y-96990771D02*
X146336000Y-96943152D01*
X146336000Y-96943152D02*
X146478857Y-96943152D01*
X146478857Y-96943152D02*
X146574095Y-96990771D01*
X146955048Y-96943152D02*
X147145524Y-97609819D01*
X147145524Y-97609819D02*
X147336000Y-97133628D01*
X147336000Y-97133628D02*
X147526476Y-97609819D01*
X147526476Y-97609819D02*
X147716952Y-96943152D01*
X148097905Y-97609819D02*
X148097905Y-96943152D01*
X148097905Y-96609819D02*
X148050286Y-96657438D01*
X148050286Y-96657438D02*
X148097905Y-96705057D01*
X148097905Y-96705057D02*
X148145524Y-96657438D01*
X148145524Y-96657438D02*
X148097905Y-96609819D01*
X148097905Y-96609819D02*
X148097905Y-96705057D01*
X148431238Y-96943152D02*
X148812190Y-96943152D01*
X148574095Y-96609819D02*
X148574095Y-97466961D01*
X148574095Y-97466961D02*
X148621714Y-97562200D01*
X148621714Y-97562200D02*
X148716952Y-97609819D01*
X148716952Y-97609819D02*
X148812190Y-97609819D01*
X149574095Y-97562200D02*
X149478857Y-97609819D01*
X149478857Y-97609819D02*
X149288381Y-97609819D01*
X149288381Y-97609819D02*
X149193143Y-97562200D01*
X149193143Y-97562200D02*
X149145524Y-97514580D01*
X149145524Y-97514580D02*
X149097905Y-97419342D01*
X149097905Y-97419342D02*
X149097905Y-97133628D01*
X149097905Y-97133628D02*
X149145524Y-97038390D01*
X149145524Y-97038390D02*
X149193143Y-96990771D01*
X149193143Y-96990771D02*
X149288381Y-96943152D01*
X149288381Y-96943152D02*
X149478857Y-96943152D01*
X149478857Y-96943152D02*
X149574095Y-96990771D01*
X150002667Y-97609819D02*
X150002667Y-96609819D01*
X150431238Y-97609819D02*
X150431238Y-97086009D01*
X150431238Y-97086009D02*
X150383619Y-96990771D01*
X150383619Y-96990771D02*
X150288381Y-96943152D01*
X150288381Y-96943152D02*
X150145524Y-96943152D01*
X150145524Y-96943152D02*
X150050286Y-96990771D01*
X150050286Y-96990771D02*
X150002667Y-97038390D01*
X129373333Y-97514580D02*
X129325714Y-97562200D01*
X129325714Y-97562200D02*
X129182857Y-97609819D01*
X129182857Y-97609819D02*
X129087619Y-97609819D01*
X129087619Y-97609819D02*
X128944762Y-97562200D01*
X128944762Y-97562200D02*
X128849524Y-97466961D01*
X128849524Y-97466961D02*
X128801905Y-97371723D01*
X128801905Y-97371723D02*
X128754286Y-97181247D01*
X128754286Y-97181247D02*
X128754286Y-97038390D01*
X128754286Y-97038390D02*
X128801905Y-96847914D01*
X128801905Y-96847914D02*
X128849524Y-96752676D01*
X128849524Y-96752676D02*
X128944762Y-96657438D01*
X128944762Y-96657438D02*
X129087619Y-96609819D01*
X129087619Y-96609819D02*
X129182857Y-96609819D01*
X129182857Y-96609819D02*
X129325714Y-96657438D01*
X129325714Y-96657438D02*
X129373333Y-96705057D01*
X130230476Y-96943152D02*
X130230476Y-97609819D01*
X129992381Y-96562200D02*
X129754286Y-97276485D01*
X129754286Y-97276485D02*
X130373333Y-97276485D01*
D11*
X157416667Y-95405800D02*
X157559524Y-95453419D01*
X157559524Y-95453419D02*
X157797619Y-95453419D01*
X157797619Y-95453419D02*
X157892857Y-95405800D01*
X157892857Y-95405800D02*
X157940476Y-95358180D01*
X157940476Y-95358180D02*
X157988095Y-95262942D01*
X157988095Y-95262942D02*
X157988095Y-95167704D01*
X157988095Y-95167704D02*
X157940476Y-95072466D01*
X157940476Y-95072466D02*
X157892857Y-95024847D01*
X157892857Y-95024847D02*
X157797619Y-94977228D01*
X157797619Y-94977228D02*
X157607143Y-94929609D01*
X157607143Y-94929609D02*
X157511905Y-94881990D01*
X157511905Y-94881990D02*
X157464286Y-94834371D01*
X157464286Y-94834371D02*
X157416667Y-94739133D01*
X157416667Y-94739133D02*
X157416667Y-94643895D01*
X157416667Y-94643895D02*
X157464286Y-94548657D01*
X157464286Y-94548657D02*
X157511905Y-94501038D01*
X157511905Y-94501038D02*
X157607143Y-94453419D01*
X157607143Y-94453419D02*
X157845238Y-94453419D01*
X157845238Y-94453419D02*
X157988095Y-94501038D01*
X158321429Y-94453419D02*
X158559524Y-95453419D01*
X158559524Y-95453419D02*
X158750000Y-94739133D01*
X158750000Y-94739133D02*
X158940476Y-95453419D01*
X158940476Y-95453419D02*
X159178572Y-94453419D01*
X160083333Y-95453419D02*
X159511905Y-95453419D01*
X159797619Y-95453419D02*
X159797619Y-94453419D01*
X159797619Y-94453419D02*
X159702381Y-94596276D01*
X159702381Y-94596276D02*
X159607143Y-94691514D01*
X159607143Y-94691514D02*
X159511905Y-94739133D01*
D10*
X176236333Y-95577819D02*
X175903000Y-95101628D01*
X175664905Y-95577819D02*
X175664905Y-94577819D01*
X175664905Y-94577819D02*
X176045857Y-94577819D01*
X176045857Y-94577819D02*
X176141095Y-94625438D01*
X176141095Y-94625438D02*
X176188714Y-94673057D01*
X176188714Y-94673057D02*
X176236333Y-94768295D01*
X176236333Y-94768295D02*
X176236333Y-94911152D01*
X176236333Y-94911152D02*
X176188714Y-95006390D01*
X176188714Y-95006390D02*
X176141095Y-95054009D01*
X176141095Y-95054009D02*
X176045857Y-95101628D01*
X176045857Y-95101628D02*
X175664905Y-95101628D01*
X177093476Y-94911152D02*
X177093476Y-95577819D01*
X176855381Y-94530200D02*
X176617286Y-95244485D01*
X176617286Y-95244485D02*
X177236333Y-95244485D01*
D11*
X120015095Y-66386419D02*
X120015095Y-67195942D01*
X120015095Y-67195942D02*
X120062714Y-67291180D01*
X120062714Y-67291180D02*
X120110333Y-67338800D01*
X120110333Y-67338800D02*
X120205571Y-67386419D01*
X120205571Y-67386419D02*
X120396047Y-67386419D01*
X120396047Y-67386419D02*
X120491285Y-67338800D01*
X120491285Y-67338800D02*
X120538904Y-67291180D01*
X120538904Y-67291180D02*
X120586523Y-67195942D01*
X120586523Y-67195942D02*
X120586523Y-66386419D01*
X121586523Y-67386419D02*
X121015095Y-67386419D01*
X121300809Y-67386419D02*
X121300809Y-66386419D01*
X121300809Y-66386419D02*
X121205571Y-66529276D01*
X121205571Y-66529276D02*
X121110333Y-66624514D01*
X121110333Y-66624514D02*
X121015095Y-66672133D01*
D10*
X152868333Y-67383819D02*
X152535000Y-66907628D01*
X152296905Y-67383819D02*
X152296905Y-66383819D01*
X152296905Y-66383819D02*
X152677857Y-66383819D01*
X152677857Y-66383819D02*
X152773095Y-66431438D01*
X152773095Y-66431438D02*
X152820714Y-66479057D01*
X152820714Y-66479057D02*
X152868333Y-66574295D01*
X152868333Y-66574295D02*
X152868333Y-66717152D01*
X152868333Y-66717152D02*
X152820714Y-66812390D01*
X152820714Y-66812390D02*
X152773095Y-66860009D01*
X152773095Y-66860009D02*
X152677857Y-66907628D01*
X152677857Y-66907628D02*
X152296905Y-66907628D01*
X153439762Y-66812390D02*
X153344524Y-66764771D01*
X153344524Y-66764771D02*
X153296905Y-66717152D01*
X153296905Y-66717152D02*
X153249286Y-66621914D01*
X153249286Y-66621914D02*
X153249286Y-66574295D01*
X153249286Y-66574295D02*
X153296905Y-66479057D01*
X153296905Y-66479057D02*
X153344524Y-66431438D01*
X153344524Y-66431438D02*
X153439762Y-66383819D01*
X153439762Y-66383819D02*
X153630238Y-66383819D01*
X153630238Y-66383819D02*
X153725476Y-66431438D01*
X153725476Y-66431438D02*
X153773095Y-66479057D01*
X153773095Y-66479057D02*
X153820714Y-66574295D01*
X153820714Y-66574295D02*
X153820714Y-66621914D01*
X153820714Y-66621914D02*
X153773095Y-66717152D01*
X153773095Y-66717152D02*
X153725476Y-66764771D01*
X153725476Y-66764771D02*
X153630238Y-66812390D01*
X153630238Y-66812390D02*
X153439762Y-66812390D01*
X153439762Y-66812390D02*
X153344524Y-66860009D01*
X153344524Y-66860009D02*
X153296905Y-66907628D01*
X153296905Y-66907628D02*
X153249286Y-67002866D01*
X153249286Y-67002866D02*
X153249286Y-67193342D01*
X153249286Y-67193342D02*
X153296905Y-67288580D01*
X153296905Y-67288580D02*
X153344524Y-67336200D01*
X153344524Y-67336200D02*
X153439762Y-67383819D01*
X153439762Y-67383819D02*
X153630238Y-67383819D01*
X153630238Y-67383819D02*
X153725476Y-67336200D01*
X153725476Y-67336200D02*
X153773095Y-67288580D01*
X153773095Y-67288580D02*
X153820714Y-67193342D01*
X153820714Y-67193342D02*
X153820714Y-67002866D01*
X153820714Y-67002866D02*
X153773095Y-66907628D01*
X153773095Y-66907628D02*
X153725476Y-66860009D01*
X153725476Y-66860009D02*
X153630238Y-66812390D01*
X164298333Y-70209580D02*
X164250714Y-70257200D01*
X164250714Y-70257200D02*
X164107857Y-70304819D01*
X164107857Y-70304819D02*
X164012619Y-70304819D01*
X164012619Y-70304819D02*
X163869762Y-70257200D01*
X163869762Y-70257200D02*
X163774524Y-70161961D01*
X163774524Y-70161961D02*
X163726905Y-70066723D01*
X163726905Y-70066723D02*
X163679286Y-69876247D01*
X163679286Y-69876247D02*
X163679286Y-69733390D01*
X163679286Y-69733390D02*
X163726905Y-69542914D01*
X163726905Y-69542914D02*
X163774524Y-69447676D01*
X163774524Y-69447676D02*
X163869762Y-69352438D01*
X163869762Y-69352438D02*
X164012619Y-69304819D01*
X164012619Y-69304819D02*
X164107857Y-69304819D01*
X164107857Y-69304819D02*
X164250714Y-69352438D01*
X164250714Y-69352438D02*
X164298333Y-69400057D01*
X164679286Y-69400057D02*
X164726905Y-69352438D01*
X164726905Y-69352438D02*
X164822143Y-69304819D01*
X164822143Y-69304819D02*
X165060238Y-69304819D01*
X165060238Y-69304819D02*
X165155476Y-69352438D01*
X165155476Y-69352438D02*
X165203095Y-69400057D01*
X165203095Y-69400057D02*
X165250714Y-69495295D01*
X165250714Y-69495295D02*
X165250714Y-69590533D01*
X165250714Y-69590533D02*
X165203095Y-69733390D01*
X165203095Y-69733390D02*
X164631667Y-70304819D01*
X164631667Y-70304819D02*
X165250714Y-70304819D01*
X163663333Y-98371819D02*
X163330000Y-97895628D01*
X163091905Y-98371819D02*
X163091905Y-97371819D01*
X163091905Y-97371819D02*
X163472857Y-97371819D01*
X163472857Y-97371819D02*
X163568095Y-97419438D01*
X163568095Y-97419438D02*
X163615714Y-97467057D01*
X163615714Y-97467057D02*
X163663333Y-97562295D01*
X163663333Y-97562295D02*
X163663333Y-97705152D01*
X163663333Y-97705152D02*
X163615714Y-97800390D01*
X163615714Y-97800390D02*
X163568095Y-97848009D01*
X163568095Y-97848009D02*
X163472857Y-97895628D01*
X163472857Y-97895628D02*
X163091905Y-97895628D01*
X163996667Y-97371819D02*
X164615714Y-97371819D01*
X164615714Y-97371819D02*
X164282381Y-97752771D01*
X164282381Y-97752771D02*
X164425238Y-97752771D01*
X164425238Y-97752771D02*
X164520476Y-97800390D01*
X164520476Y-97800390D02*
X164568095Y-97848009D01*
X164568095Y-97848009D02*
X164615714Y-97943247D01*
X164615714Y-97943247D02*
X164615714Y-98181342D01*
X164615714Y-98181342D02*
X164568095Y-98276580D01*
X164568095Y-98276580D02*
X164520476Y-98324200D01*
X164520476Y-98324200D02*
X164425238Y-98371819D01*
X164425238Y-98371819D02*
X164139524Y-98371819D01*
X164139524Y-98371819D02*
X164044286Y-98324200D01*
X164044286Y-98324200D02*
X163996667Y-98276580D01*
X192659095Y-70066819D02*
X192659095Y-70876342D01*
X192659095Y-70876342D02*
X192706714Y-70971580D01*
X192706714Y-70971580D02*
X192754333Y-71019200D01*
X192754333Y-71019200D02*
X192849571Y-71066819D01*
X192849571Y-71066819D02*
X193040047Y-71066819D01*
X193040047Y-71066819D02*
X193135285Y-71019200D01*
X193135285Y-71019200D02*
X193182904Y-70971580D01*
X193182904Y-70971580D02*
X193230523Y-70876342D01*
X193230523Y-70876342D02*
X193230523Y-70066819D01*
X193611476Y-70066819D02*
X194230523Y-70066819D01*
X194230523Y-70066819D02*
X193897190Y-70447771D01*
X193897190Y-70447771D02*
X194040047Y-70447771D01*
X194040047Y-70447771D02*
X194135285Y-70495390D01*
X194135285Y-70495390D02*
X194182904Y-70543009D01*
X194182904Y-70543009D02*
X194230523Y-70638247D01*
X194230523Y-70638247D02*
X194230523Y-70876342D01*
X194230523Y-70876342D02*
X194182904Y-70971580D01*
X194182904Y-70971580D02*
X194135285Y-71019200D01*
X194135285Y-71019200D02*
X194040047Y-71066819D01*
X194040047Y-71066819D02*
X193754333Y-71066819D01*
X193754333Y-71066819D02*
X193659095Y-71019200D01*
X193659095Y-71019200D02*
X193611476Y-70971580D01*
D11*
X138811095Y-68291419D02*
X138811095Y-69100942D01*
X138811095Y-69100942D02*
X138858714Y-69196180D01*
X138858714Y-69196180D02*
X138906333Y-69243800D01*
X138906333Y-69243800D02*
X139001571Y-69291419D01*
X139001571Y-69291419D02*
X139192047Y-69291419D01*
X139192047Y-69291419D02*
X139287285Y-69243800D01*
X139287285Y-69243800D02*
X139334904Y-69196180D01*
X139334904Y-69196180D02*
X139382523Y-69100942D01*
X139382523Y-69100942D02*
X139382523Y-68291419D01*
X139811095Y-68386657D02*
X139858714Y-68339038D01*
X139858714Y-68339038D02*
X139953952Y-68291419D01*
X139953952Y-68291419D02*
X140192047Y-68291419D01*
X140192047Y-68291419D02*
X140287285Y-68339038D01*
X140287285Y-68339038D02*
X140334904Y-68386657D01*
X140334904Y-68386657D02*
X140382523Y-68481895D01*
X140382523Y-68481895D02*
X140382523Y-68577133D01*
X140382523Y-68577133D02*
X140334904Y-68719990D01*
X140334904Y-68719990D02*
X139763476Y-69291419D01*
X139763476Y-69291419D02*
X140382523Y-69291419D01*
D10*
X119213333Y-96466819D02*
X118880000Y-95990628D01*
X118641905Y-96466819D02*
X118641905Y-95466819D01*
X118641905Y-95466819D02*
X119022857Y-95466819D01*
X119022857Y-95466819D02*
X119118095Y-95514438D01*
X119118095Y-95514438D02*
X119165714Y-95562057D01*
X119165714Y-95562057D02*
X119213333Y-95657295D01*
X119213333Y-95657295D02*
X119213333Y-95800152D01*
X119213333Y-95800152D02*
X119165714Y-95895390D01*
X119165714Y-95895390D02*
X119118095Y-95943009D01*
X119118095Y-95943009D02*
X119022857Y-95990628D01*
X119022857Y-95990628D02*
X118641905Y-95990628D01*
X120165714Y-96466819D02*
X119594286Y-96466819D01*
X119880000Y-96466819D02*
X119880000Y-95466819D01*
X119880000Y-95466819D02*
X119784762Y-95609676D01*
X119784762Y-95609676D02*
X119689524Y-95704914D01*
X119689524Y-95704914D02*
X119594286Y-95752533D01*
X170013333Y-98729580D02*
X169965714Y-98777200D01*
X169965714Y-98777200D02*
X169822857Y-98824819D01*
X169822857Y-98824819D02*
X169727619Y-98824819D01*
X169727619Y-98824819D02*
X169584762Y-98777200D01*
X169584762Y-98777200D02*
X169489524Y-98681961D01*
X169489524Y-98681961D02*
X169441905Y-98586723D01*
X169441905Y-98586723D02*
X169394286Y-98396247D01*
X169394286Y-98396247D02*
X169394286Y-98253390D01*
X169394286Y-98253390D02*
X169441905Y-98062914D01*
X169441905Y-98062914D02*
X169489524Y-97967676D01*
X169489524Y-97967676D02*
X169584762Y-97872438D01*
X169584762Y-97872438D02*
X169727619Y-97824819D01*
X169727619Y-97824819D02*
X169822857Y-97824819D01*
X169822857Y-97824819D02*
X169965714Y-97872438D01*
X169965714Y-97872438D02*
X170013333Y-97920057D01*
X170346667Y-97824819D02*
X170965714Y-97824819D01*
X170965714Y-97824819D02*
X170632381Y-98205771D01*
X170632381Y-98205771D02*
X170775238Y-98205771D01*
X170775238Y-98205771D02*
X170870476Y-98253390D01*
X170870476Y-98253390D02*
X170918095Y-98301009D01*
X170918095Y-98301009D02*
X170965714Y-98396247D01*
X170965714Y-98396247D02*
X170965714Y-98634342D01*
X170965714Y-98634342D02*
X170918095Y-98729580D01*
X170918095Y-98729580D02*
X170870476Y-98777200D01*
X170870476Y-98777200D02*
X170775238Y-98824819D01*
X170775238Y-98824819D02*
X170489524Y-98824819D01*
X170489524Y-98824819D02*
X170394286Y-98777200D01*
X170394286Y-98777200D02*
X170346667Y-98729580D01*
X147788333Y-67510819D02*
X147455000Y-67034628D01*
X147216905Y-67510819D02*
X147216905Y-66510819D01*
X147216905Y-66510819D02*
X147597857Y-66510819D01*
X147597857Y-66510819D02*
X147693095Y-66558438D01*
X147693095Y-66558438D02*
X147740714Y-66606057D01*
X147740714Y-66606057D02*
X147788333Y-66701295D01*
X147788333Y-66701295D02*
X147788333Y-66844152D01*
X147788333Y-66844152D02*
X147740714Y-66939390D01*
X147740714Y-66939390D02*
X147693095Y-66987009D01*
X147693095Y-66987009D02*
X147597857Y-67034628D01*
X147597857Y-67034628D02*
X147216905Y-67034628D01*
X148121667Y-66510819D02*
X148788333Y-66510819D01*
X148788333Y-66510819D02*
X148359762Y-67510819D01*
X124801333Y-96466819D02*
X124468000Y-95990628D01*
X124229905Y-96466819D02*
X124229905Y-95466819D01*
X124229905Y-95466819D02*
X124610857Y-95466819D01*
X124610857Y-95466819D02*
X124706095Y-95514438D01*
X124706095Y-95514438D02*
X124753714Y-95562057D01*
X124753714Y-95562057D02*
X124801333Y-95657295D01*
X124801333Y-95657295D02*
X124801333Y-95800152D01*
X124801333Y-95800152D02*
X124753714Y-95895390D01*
X124753714Y-95895390D02*
X124706095Y-95943009D01*
X124706095Y-95943009D02*
X124610857Y-95990628D01*
X124610857Y-95990628D02*
X124229905Y-95990628D01*
X125182286Y-95562057D02*
X125229905Y-95514438D01*
X125229905Y-95514438D02*
X125325143Y-95466819D01*
X125325143Y-95466819D02*
X125563238Y-95466819D01*
X125563238Y-95466819D02*
X125658476Y-95514438D01*
X125658476Y-95514438D02*
X125706095Y-95562057D01*
X125706095Y-95562057D02*
X125753714Y-95657295D01*
X125753714Y-95657295D02*
X125753714Y-95752533D01*
X125753714Y-95752533D02*
X125706095Y-95895390D01*
X125706095Y-95895390D02*
X125134667Y-96466819D01*
X125134667Y-96466819D02*
X125753714Y-96466819D01*
X103632095Y-68288819D02*
X103632095Y-69098342D01*
X103632095Y-69098342D02*
X103679714Y-69193580D01*
X103679714Y-69193580D02*
X103727333Y-69241200D01*
X103727333Y-69241200D02*
X103822571Y-69288819D01*
X103822571Y-69288819D02*
X104013047Y-69288819D01*
X104013047Y-69288819D02*
X104108285Y-69241200D01*
X104108285Y-69241200D02*
X104155904Y-69193580D01*
X104155904Y-69193580D02*
X104203523Y-69098342D01*
X104203523Y-69098342D02*
X104203523Y-68288819D01*
X105108285Y-68622152D02*
X105108285Y-69288819D01*
X104870190Y-68241200D02*
X104632095Y-68955485D01*
X104632095Y-68955485D02*
X105251142Y-68955485D01*
X143343333Y-68907819D02*
X143010000Y-68431628D01*
X142771905Y-68907819D02*
X142771905Y-67907819D01*
X142771905Y-67907819D02*
X143152857Y-67907819D01*
X143152857Y-67907819D02*
X143248095Y-67955438D01*
X143248095Y-67955438D02*
X143295714Y-68003057D01*
X143295714Y-68003057D02*
X143343333Y-68098295D01*
X143343333Y-68098295D02*
X143343333Y-68241152D01*
X143343333Y-68241152D02*
X143295714Y-68336390D01*
X143295714Y-68336390D02*
X143248095Y-68384009D01*
X143248095Y-68384009D02*
X143152857Y-68431628D01*
X143152857Y-68431628D02*
X142771905Y-68431628D01*
X144200476Y-67907819D02*
X144010000Y-67907819D01*
X144010000Y-67907819D02*
X143914762Y-67955438D01*
X143914762Y-67955438D02*
X143867143Y-68003057D01*
X143867143Y-68003057D02*
X143771905Y-68145914D01*
X143771905Y-68145914D02*
X143724286Y-68336390D01*
X143724286Y-68336390D02*
X143724286Y-68717342D01*
X143724286Y-68717342D02*
X143771905Y-68812580D01*
X143771905Y-68812580D02*
X143819524Y-68860200D01*
X143819524Y-68860200D02*
X143914762Y-68907819D01*
X143914762Y-68907819D02*
X144105238Y-68907819D01*
X144105238Y-68907819D02*
X144200476Y-68860200D01*
X144200476Y-68860200D02*
X144248095Y-68812580D01*
X144248095Y-68812580D02*
X144295714Y-68717342D01*
X144295714Y-68717342D02*
X144295714Y-68479247D01*
X144295714Y-68479247D02*
X144248095Y-68384009D01*
X144248095Y-68384009D02*
X144200476Y-68336390D01*
X144200476Y-68336390D02*
X144105238Y-68288771D01*
X144105238Y-68288771D02*
X143914762Y-68288771D01*
X143914762Y-68288771D02*
X143819524Y-68336390D01*
X143819524Y-68336390D02*
X143771905Y-68384009D01*
X143771905Y-68384009D02*
X143724286Y-68479247D01*
D12*
X128828748Y-94340000D02*
X130251252Y-94340000D01*
X128828748Y-96160000D02*
X130251252Y-96160000D01*
D11*
X138176000Y-95885000D02*
X158496000Y-95885000D01*
X158496000Y-95885000D02*
X158496000Y-98425000D01*
X158496000Y-98425000D02*
X138176000Y-98425000D01*
X138176000Y-98425000D02*
X138176000Y-95885000D01*
D12*
X176784724Y-97042500D02*
X176275276Y-97042500D01*
X176784724Y-95997500D02*
X176275276Y-95997500D01*
D11*
X137160000Y-67945000D02*
X119380000Y-67945000D01*
X119380000Y-67945000D02*
X119380000Y-93345000D01*
X119380000Y-93345000D02*
X137160000Y-93345000D01*
X137160000Y-93345000D02*
X137160000Y-67945000D01*
D12*
X153289724Y-69102500D02*
X152780276Y-69102500D01*
X153289724Y-68057500D02*
X152780276Y-68057500D01*
X163753748Y-67035000D02*
X165176252Y-67035000D01*
X163753748Y-68855000D02*
X165176252Y-68855000D01*
X163575276Y-95997500D02*
X164084724Y-95997500D01*
X163575276Y-97042500D02*
X164084724Y-97042500D01*
X158182000Y-75124000D02*
X158182000Y-90484000D01*
X158182000Y-75124000D02*
X160842000Y-75124000D01*
X158182000Y-90484000D02*
X160842000Y-90484000D01*
X159512000Y-75124000D02*
X160842000Y-75124000D01*
X160842000Y-75124000D02*
X160842000Y-76454000D01*
X160842000Y-75124000D02*
X160842000Y-90484000D01*
D11*
X157226000Y-71756000D02*
X195226000Y-71756000D01*
X195226000Y-71756000D02*
X195226000Y-93756000D01*
X195226000Y-93756000D02*
X157226000Y-93756000D01*
X157226000Y-93756000D02*
X157226000Y-71756000D01*
X156210000Y-69850000D02*
X138430000Y-69850000D01*
X138430000Y-69850000D02*
X138430000Y-95250000D01*
X138430000Y-95250000D02*
X156210000Y-95250000D01*
X156210000Y-95250000D02*
X156210000Y-69850000D01*
D12*
X121157276Y-94473500D02*
X121666724Y-94473500D01*
X121157276Y-95518500D02*
X121666724Y-95518500D01*
X170891252Y-97430000D02*
X169468748Y-97430000D01*
X170891252Y-95610000D02*
X169468748Y-95610000D01*
X148209724Y-69102500D02*
X147700276Y-69102500D01*
X148209724Y-68057500D02*
X147700276Y-68057500D01*
X125072224Y-98058500D02*
X124562776Y-98058500D01*
X125072224Y-97013500D02*
X124562776Y-97013500D01*
D10*
X102108000Y-97790000D02*
X117348000Y-97790000D01*
X117348000Y-97790000D02*
X117348000Y-69850000D01*
X102108000Y-69850000D02*
X102108000Y-97790000D01*
X117348000Y-69850000D02*
X102108000Y-69850000D01*
D12*
X140992776Y-66787500D02*
X141502224Y-66787500D01*
X140992776Y-67832500D02*
X141502224Y-67832500D01*
%LPC*%
D13*
X127977500Y-95250000D03*
X131102500Y-95250000D03*
D14*
X139446000Y-97155000D03*
X157226000Y-97155000D03*
D15*
X190500000Y-68580000D03*
D16*
X177442500Y-96520000D03*
X175617500Y-96520000D03*
D17*
X121920000Y-74295000D03*
D18*
X121920000Y-76835000D03*
X121920000Y-79375000D03*
X121920000Y-81915000D03*
X121920000Y-84455000D03*
X121920000Y-86995000D03*
X134620000Y-74295000D03*
X134620000Y-76835000D03*
X134620000Y-79375000D03*
X134620000Y-81915000D03*
X134620000Y-84455000D03*
X134620000Y-86995000D03*
D16*
X153947500Y-68580000D03*
X152122500Y-68580000D03*
D13*
X162902500Y-67945000D03*
X166027500Y-67945000D03*
D19*
X162917500Y-96520000D03*
X164742500Y-96520000D03*
D15*
X190500000Y-97155000D03*
D20*
X159512000Y-76454000D03*
D21*
X159512000Y-78994000D03*
X159512000Y-81534000D03*
X159512000Y-84074000D03*
D22*
X159512000Y-86614000D03*
D21*
X159512000Y-89154000D03*
D17*
X140970000Y-76200000D03*
D18*
X140970000Y-78740000D03*
X140970000Y-81280000D03*
X140970000Y-83820000D03*
X140970000Y-86360000D03*
X140970000Y-88900000D03*
X153670000Y-76200000D03*
X153670000Y-78740000D03*
X153670000Y-81280000D03*
X153670000Y-83820000D03*
X153670000Y-86360000D03*
X153670000Y-88900000D03*
D19*
X120499500Y-94996000D03*
X122324500Y-94996000D03*
D15*
X134620000Y-95885000D03*
D23*
X171742500Y-96520000D03*
X168617500Y-96520000D03*
D16*
X148867500Y-68580000D03*
X147042500Y-68580000D03*
X125730000Y-97536000D03*
X123905000Y-97536000D03*
D24*
X103378000Y-96520000D03*
D20*
X103378000Y-93980000D03*
X105918000Y-96520000D03*
X105918000Y-93980000D03*
X108458000Y-96520000D03*
X108458000Y-93980000D03*
X110998000Y-96520000D03*
X110998000Y-93980000D03*
D19*
X140335000Y-67310000D03*
X142160000Y-67310000D03*
D22*
X118364000Y-90932000D03*
D21*
X118364000Y-88392000D03*
X118364000Y-85852000D03*
D25*
X187960000Y-92964000D03*
X185420000Y-92964000D03*
X182880000Y-92964000D03*
X180340000Y-92964000D03*
X177800000Y-92964000D03*
X175260000Y-92964000D03*
X172720000Y-92964000D03*
X170180000Y-92964000D03*
X167640000Y-92964000D03*
X165100000Y-92964000D03*
X162560000Y-92964000D03*
X160020000Y-92964000D03*
X157480000Y-92964000D03*
X154940000Y-92964000D03*
X152400000Y-92964000D03*
X149860000Y-92964000D03*
X149860000Y-72644000D03*
X152400000Y-72644000D03*
X154940000Y-72644000D03*
X157480000Y-72644000D03*
X160020000Y-72644000D03*
X162560000Y-72644000D03*
X165100000Y-72644000D03*
X167640000Y-72644000D03*
X170180000Y-72644000D03*
X172720000Y-72644000D03*
X175260000Y-72644000D03*
X177800000Y-72644000D03*
D22*
X118364000Y-81534000D03*
D21*
X118364000Y-78994000D03*
X118364000Y-76454000D03*
X118364000Y-73914000D03*
X118364000Y-71374000D03*
X118364000Y-68834000D03*
%LPD*%
M02*
