M48
; DRILL file {KiCad 7.0.8} date 2024 January 13, Saturday 09:50:46
; FORMAT={-:-/ absolute / metric / decimal}
; #@! TF.CreationDate,2024-01-13T09:50:46-08:00
; #@! TF.GenerationSoftware,Kicad,Pcbnew,7.0.8
; #@! TF.FileFunction,Plated,1,2,PTH
FMAT,2
METRIC
; #@! TA.AperFunction,Plated,PTH,ViaDrill
T1C0.400
; #@! TA.AperFunction,Plated,PTH,ComponentDrill
T2C1.000
; #@! TA.AperFunction,Plated,PTH,ComponentDrill
T3C1.020
; #@! TA.AperFunction,Plated,PTH,ComponentDrill
T4C2.500
%
G90
G05
T1
X114.3Y-81.28
X119.38Y-97.028
X121.92Y-92.456
X123.19Y-88.646
X124.714Y-72.644
X128.778Y-68.834
X145.034Y-89.662
X157.48Y-69.85
X166.624Y-96.52
X169.672Y-69.85
X177.8Y-89.408
T2
X103.378Y-93.98
X103.378Y-96.52
X105.918Y-93.98
X105.918Y-96.52
X108.458Y-93.98
X108.458Y-96.52
X110.998Y-93.98
X110.998Y-96.52
X118.364Y-68.834
X118.364Y-71.374
X118.364Y-73.914
X118.364Y-76.454
X118.364Y-78.994
X118.364Y-81.534
X118.364Y-85.852
X118.364Y-88.392
X118.364Y-90.932
X121.92Y-74.295
X121.92Y-76.835
X121.92Y-79.375
X121.92Y-81.915
X121.92Y-84.455
X121.92Y-86.995
X134.62Y-74.295
X134.62Y-76.835
X134.62Y-79.375
X134.62Y-81.915
X134.62Y-84.455
X134.62Y-86.995
X139.446Y-97.155
X140.97Y-76.2
X140.97Y-78.74
X140.97Y-81.28
X140.97Y-83.82
X140.97Y-86.36
X140.97Y-88.9
X153.67Y-76.2
X153.67Y-78.74
X153.67Y-81.28
X153.67Y-83.82
X153.67Y-86.36
X153.67Y-88.9
X157.226Y-97.155
X159.512Y-76.454
X159.512Y-78.994
X159.512Y-81.534
X159.512Y-84.074
X159.512Y-86.614
X159.512Y-89.154
T3
X149.86Y-72.644
X149.86Y-92.964
X152.4Y-72.644
X152.4Y-92.964
X154.94Y-72.644
X154.94Y-92.964
X157.48Y-72.644
X157.48Y-92.964
X160.02Y-72.644
X160.02Y-92.964
X162.56Y-72.644
X162.56Y-92.964
X165.1Y-72.644
X165.1Y-92.964
X167.64Y-72.644
X167.64Y-92.964
X170.18Y-72.644
X170.18Y-92.964
X172.72Y-72.644
X172.72Y-92.964
X175.26Y-72.644
X175.26Y-92.964
X177.8Y-72.644
X177.8Y-92.964
X180.34Y-92.964
X182.88Y-92.964
X185.42Y-92.964
X187.96Y-92.964
T4
X134.62Y-95.885
X190.5Y-68.58
X190.5Y-97.155
T0
M30
