G04 #@! TF.GenerationSoftware,KiCad,Pcbnew,7.0.8*
G04 #@! TF.CreationDate,2024-01-13T09:50:40-08:00*
G04 #@! TF.ProjectId,ph-sensor,70682d73-656e-4736-9f72-2e6b69636164,rev?*
G04 #@! TF.SameCoordinates,Original*
G04 #@! TF.FileFunction,Soldermask,Top*
G04 #@! TF.FilePolarity,Negative*
%FSLAX46Y46*%
G04 Gerber Fmt 4.6, Leading zero omitted, Abs format (unit mm)*
G04 Created by KiCad (PCBNEW 7.0.8) date 2024-01-13 09:50:40*
%MOMM*%
%LPD*%
G01*
G04 APERTURE LIST*
G04 Aperture macros list*
%AMRoundRect*
0 Rectangle with rounded corners*
0 $1 Rounding radius*
0 $2 $3 $4 $5 $6 $7 $8 $9 X,Y pos of 4 corners*
0 Add a 4 corners polygon primitive as box body*
4,1,4,$2,$3,$4,$5,$6,$7,$8,$9,$2,$3,0*
0 Add four circle primitives for the rounded corners*
1,1,$1+$1,$2,$3*
1,1,$1+$1,$4,$5*
1,1,$1+$1,$6,$7*
1,1,$1+$1,$8,$9*
0 Add four rect primitives between the rounded corners*
20,1,$1+$1,$2,$3,$4,$5,0*
20,1,$1+$1,$4,$5,$6,$7,0*
20,1,$1+$1,$6,$7,$8,$9,0*
20,1,$1+$1,$8,$9,$2,$3,0*%
G04 Aperture macros list end*
%ADD10RoundRect,0.250000X-0.412500X-0.650000X0.412500X-0.650000X0.412500X0.650000X-0.412500X0.650000X0*%
%ADD11C,1.778000*%
%ADD12C,3.404000*%
%ADD13RoundRect,0.237500X0.250000X0.237500X-0.250000X0.237500X-0.250000X-0.237500X0.250000X-0.237500X0*%
%ADD14RoundRect,0.050800X-0.889000X-0.889000X0.889000X-0.889000X0.889000X0.889000X-0.889000X0.889000X0*%
%ADD15C,1.879600*%
%ADD16RoundRect,0.237500X-0.250000X-0.237500X0.250000X-0.237500X0.250000X0.237500X-0.250000X0.237500X0*%
%ADD17C,1.700000*%
%ADD18O,1.700000X1.700000*%
%ADD19R,1.700000X1.700000*%
%ADD20RoundRect,0.250000X0.412500X0.650000X-0.412500X0.650000X-0.412500X-0.650000X0.412500X-0.650000X0*%
%ADD21R,1.524000X1.524000*%
%ADD22C,1.734000*%
G04 APERTURE END LIST*
D10*
X127977500Y-95250000D03*
X131102500Y-95250000D03*
D11*
X139446000Y-97155000D03*
X157226000Y-97155000D03*
D12*
X190500000Y-68580000D03*
D13*
X177442500Y-96520000D03*
X175617500Y-96520000D03*
D14*
X121920000Y-74295000D03*
D15*
X121920000Y-76835000D03*
X121920000Y-79375000D03*
X121920000Y-81915000D03*
X121920000Y-84455000D03*
X121920000Y-86995000D03*
X134620000Y-74295000D03*
X134620000Y-76835000D03*
X134620000Y-79375000D03*
X134620000Y-81915000D03*
X134620000Y-84455000D03*
X134620000Y-86995000D03*
D13*
X153947500Y-68580000D03*
X152122500Y-68580000D03*
D10*
X162902500Y-67945000D03*
X166027500Y-67945000D03*
D16*
X162917500Y-96520000D03*
X164742500Y-96520000D03*
D12*
X190500000Y-97155000D03*
D17*
X159512000Y-76454000D03*
D18*
X159512000Y-78994000D03*
X159512000Y-81534000D03*
X159512000Y-84074000D03*
D19*
X159512000Y-86614000D03*
D18*
X159512000Y-89154000D03*
D14*
X140970000Y-76200000D03*
D15*
X140970000Y-78740000D03*
X140970000Y-81280000D03*
X140970000Y-83820000D03*
X140970000Y-86360000D03*
X140970000Y-88900000D03*
X153670000Y-76200000D03*
X153670000Y-78740000D03*
X153670000Y-81280000D03*
X153670000Y-83820000D03*
X153670000Y-86360000D03*
X153670000Y-88900000D03*
D16*
X120499500Y-94996000D03*
X122324500Y-94996000D03*
D12*
X134620000Y-95885000D03*
D20*
X171742500Y-96520000D03*
X168617500Y-96520000D03*
D13*
X148867500Y-68580000D03*
X147042500Y-68580000D03*
X125730000Y-97536000D03*
X123905000Y-97536000D03*
D21*
X103378000Y-96520000D03*
D17*
X103378000Y-93980000D03*
X105918000Y-96520000D03*
X105918000Y-93980000D03*
X108458000Y-96520000D03*
X108458000Y-93980000D03*
X110998000Y-96520000D03*
X110998000Y-93980000D03*
D16*
X140335000Y-67310000D03*
X142160000Y-67310000D03*
D19*
X118364000Y-90932000D03*
D18*
X118364000Y-88392000D03*
X118364000Y-85852000D03*
D22*
X187960000Y-92964000D03*
X185420000Y-92964000D03*
X182880000Y-92964000D03*
X180340000Y-92964000D03*
X177800000Y-92964000D03*
X175260000Y-92964000D03*
X172720000Y-92964000D03*
X170180000Y-92964000D03*
X167640000Y-92964000D03*
X165100000Y-92964000D03*
X162560000Y-92964000D03*
X160020000Y-92964000D03*
X157480000Y-92964000D03*
X154940000Y-92964000D03*
X152400000Y-92964000D03*
X149860000Y-92964000D03*
X149860000Y-72644000D03*
X152400000Y-72644000D03*
X154940000Y-72644000D03*
X157480000Y-72644000D03*
X160020000Y-72644000D03*
X162560000Y-72644000D03*
X165100000Y-72644000D03*
X167640000Y-72644000D03*
X170180000Y-72644000D03*
X172720000Y-72644000D03*
X175260000Y-72644000D03*
X177800000Y-72644000D03*
D19*
X118364000Y-81534000D03*
D18*
X118364000Y-78994000D03*
X118364000Y-76454000D03*
X118364000Y-73914000D03*
X118364000Y-71374000D03*
X118364000Y-68834000D03*
M02*
