G04 #@! TF.GenerationSoftware,KiCad,Pcbnew,7.0.8*
G04 #@! TF.CreationDate,2024-01-13T09:37:12-08:00*
G04 #@! TF.ProjectId,ph-sensor,70682d73-656e-4736-9f72-2e6b69636164,rev?*
G04 #@! TF.SameCoordinates,Original*
G04 #@! TF.FileFunction,Copper,L1,Top*
G04 #@! TF.FilePolarity,Positive*
%FSLAX46Y46*%
G04 Gerber Fmt 4.6, Leading zero omitted, Abs format (unit mm)*
G04 Created by KiCad (PCBNEW 7.0.8) date 2024-01-13 09:37:12*
%MOMM*%
%LPD*%
G01*
G04 APERTURE LIST*
G04 Aperture macros list*
%AMRoundRect*
0 Rectangle with rounded corners*
0 $1 Rounding radius*
0 $2 $3 $4 $5 $6 $7 $8 $9 X,Y pos of 4 corners*
0 Add a 4 corners polygon primitive as box body*
4,1,4,$2,$3,$4,$5,$6,$7,$8,$9,$2,$3,0*
0 Add four circle primitives for the rounded corners*
1,1,$1+$1,$2,$3*
1,1,$1+$1,$4,$5*
1,1,$1+$1,$6,$7*
1,1,$1+$1,$8,$9*
0 Add four rect primitives between the rounded corners*
20,1,$1+$1,$2,$3,$4,$5,0*
20,1,$1+$1,$4,$5,$6,$7,0*
20,1,$1+$1,$6,$7,$8,$9,0*
20,1,$1+$1,$8,$9,$2,$3,0*%
G04 Aperture macros list end*
G04 #@! TA.AperFunction,SMDPad,CuDef*
%ADD10RoundRect,0.250000X-0.412500X-0.650000X0.412500X-0.650000X0.412500X0.650000X-0.412500X0.650000X0*%
G04 #@! TD*
G04 #@! TA.AperFunction,ComponentPad*
%ADD11C,1.676400*%
G04 #@! TD*
G04 #@! TA.AperFunction,ComponentPad*
%ADD12C,3.200000*%
G04 #@! TD*
G04 #@! TA.AperFunction,SMDPad,CuDef*
%ADD13RoundRect,0.237500X0.250000X0.237500X-0.250000X0.237500X-0.250000X-0.237500X0.250000X-0.237500X0*%
G04 #@! TD*
G04 #@! TA.AperFunction,ComponentPad*
%ADD14R,1.778000X1.778000*%
G04 #@! TD*
G04 #@! TA.AperFunction,ComponentPad*
%ADD15C,1.778000*%
G04 #@! TD*
G04 #@! TA.AperFunction,SMDPad,CuDef*
%ADD16RoundRect,0.237500X-0.250000X-0.237500X0.250000X-0.237500X0.250000X0.237500X-0.250000X0.237500X0*%
G04 #@! TD*
G04 #@! TA.AperFunction,ComponentPad*
%ADD17C,1.700000*%
G04 #@! TD*
G04 #@! TA.AperFunction,ComponentPad*
%ADD18O,1.700000X1.700000*%
G04 #@! TD*
G04 #@! TA.AperFunction,ComponentPad*
%ADD19R,1.700000X1.700000*%
G04 #@! TD*
G04 #@! TA.AperFunction,SMDPad,CuDef*
%ADD20RoundRect,0.250000X0.412500X0.650000X-0.412500X0.650000X-0.412500X-0.650000X0.412500X-0.650000X0*%
G04 #@! TD*
G04 #@! TA.AperFunction,ComponentPad*
%ADD21R,1.524000X1.524000*%
G04 #@! TD*
G04 #@! TA.AperFunction,ComponentPad*
%ADD22C,1.530000*%
G04 #@! TD*
G04 #@! TA.AperFunction,ViaPad*
%ADD23C,0.800000*%
G04 #@! TD*
G04 #@! TA.AperFunction,Conductor*
%ADD24C,0.250000*%
G04 #@! TD*
G04 APERTURE END LIST*
D10*
X127977500Y-95250000D03*
X131102500Y-95250000D03*
D11*
X139446000Y-97155000D03*
X157226000Y-97155000D03*
D12*
X190500000Y-68580000D03*
D13*
X177442500Y-96520000D03*
X175617500Y-96520000D03*
D14*
X121920000Y-74295000D03*
D15*
X121920000Y-76835000D03*
X121920000Y-79375000D03*
X121920000Y-81915000D03*
X121920000Y-84455000D03*
X121920000Y-86995000D03*
X134620000Y-74295000D03*
X134620000Y-76835000D03*
X134620000Y-79375000D03*
X134620000Y-81915000D03*
X134620000Y-84455000D03*
X134620000Y-86995000D03*
D13*
X153947500Y-68580000D03*
X152122500Y-68580000D03*
D10*
X162902500Y-67945000D03*
X166027500Y-67945000D03*
D16*
X162917500Y-96520000D03*
X164742500Y-96520000D03*
D12*
X190500000Y-97155000D03*
D17*
X159512000Y-76454000D03*
D18*
X159512000Y-78994000D03*
X159512000Y-81534000D03*
X159512000Y-84074000D03*
D19*
X159512000Y-86614000D03*
D18*
X159512000Y-89154000D03*
D14*
X140970000Y-76200000D03*
D15*
X140970000Y-78740000D03*
X140970000Y-81280000D03*
X140970000Y-83820000D03*
X140970000Y-86360000D03*
X140970000Y-88900000D03*
X153670000Y-76200000D03*
X153670000Y-78740000D03*
X153670000Y-81280000D03*
X153670000Y-83820000D03*
X153670000Y-86360000D03*
X153670000Y-88900000D03*
D16*
X120499500Y-94996000D03*
X122324500Y-94996000D03*
D12*
X134620000Y-95885000D03*
D20*
X171742500Y-96520000D03*
X168617500Y-96520000D03*
D13*
X148867500Y-68580000D03*
X147042500Y-68580000D03*
X125730000Y-97536000D03*
X123905000Y-97536000D03*
D21*
X103378000Y-96520000D03*
D17*
X103378000Y-93980000D03*
X105918000Y-96520000D03*
X105918000Y-93980000D03*
X108458000Y-96520000D03*
X108458000Y-93980000D03*
X110998000Y-96520000D03*
X110998000Y-93980000D03*
D16*
X140335000Y-67310000D03*
X142160000Y-67310000D03*
D19*
X118364000Y-90932000D03*
D18*
X118364000Y-88392000D03*
X118364000Y-85852000D03*
D22*
X187960000Y-92964000D03*
X185420000Y-92964000D03*
X182880000Y-92964000D03*
X180340000Y-92964000D03*
X177800000Y-92964000D03*
X175260000Y-92964000D03*
X172720000Y-92964000D03*
X170180000Y-92964000D03*
X167640000Y-92964000D03*
X165100000Y-92964000D03*
X162560000Y-92964000D03*
X160020000Y-92964000D03*
X157480000Y-92964000D03*
X154940000Y-92964000D03*
X152400000Y-92964000D03*
X149860000Y-92964000D03*
X149860000Y-72644000D03*
X152400000Y-72644000D03*
X154940000Y-72644000D03*
X157480000Y-72644000D03*
X160020000Y-72644000D03*
X162560000Y-72644000D03*
X165100000Y-72644000D03*
X167640000Y-72644000D03*
X170180000Y-72644000D03*
X172720000Y-72644000D03*
X175260000Y-72644000D03*
X177800000Y-72644000D03*
D19*
X118364000Y-81534000D03*
D18*
X118364000Y-78994000D03*
X118364000Y-76454000D03*
X118364000Y-73914000D03*
X118364000Y-71374000D03*
X118364000Y-68834000D03*
D23*
X123190000Y-88646000D03*
X169672000Y-69850000D03*
X166624000Y-96520000D03*
X157480000Y-69850000D03*
X121920000Y-92456000D03*
X124714000Y-72644000D03*
X114300000Y-81280000D03*
X119380000Y-97028000D03*
X177800000Y-89408000D03*
X145034000Y-89662000D03*
X128778000Y-68834000D03*
D24*
X114300000Y-89662000D02*
X113030000Y-90932000D01*
X113030000Y-90932000D02*
X107188000Y-90932000D01*
X131102500Y-95250000D02*
X130048000Y-95250000D01*
X118364000Y-76454000D02*
X118364000Y-77216000D01*
X121158000Y-88646000D02*
X118364000Y-85852000D01*
X180340000Y-91948000D02*
X177800000Y-89408000D01*
X145034000Y-89662000D02*
X140736000Y-93960000D01*
X168617500Y-96520000D02*
X166624000Y-96520000D01*
X149860000Y-90932000D02*
X149860000Y-92964000D01*
X164742500Y-96520000D02*
X166624000Y-96520000D01*
X147320000Y-86360000D02*
X149860000Y-83820000D01*
X104648000Y-93472000D02*
X104648000Y-95250000D01*
X123190000Y-88646000D02*
X121158000Y-88646000D01*
X119380000Y-97028000D02*
X119888000Y-97536000D01*
X114300000Y-81280000D02*
X114300000Y-89662000D01*
X124714000Y-74041000D02*
X121920000Y-76835000D01*
X148590000Y-89662000D02*
X149860000Y-90932000D01*
X131102500Y-95250000D02*
X132392500Y-93960000D01*
X118364000Y-77216000D02*
X114300000Y-81280000D01*
X156210000Y-68580000D02*
X157480000Y-69850000D01*
X124714000Y-72644000D02*
X124714000Y-74041000D01*
X166027500Y-67945000D02*
X167767000Y-67945000D01*
X140970000Y-86360000D02*
X147320000Y-86360000D01*
X167767000Y-67945000D02*
X169672000Y-69850000D01*
X126962000Y-98336000D02*
X127762000Y-97536000D01*
X130048000Y-95250000D02*
X127762000Y-97536000D01*
X140736000Y-93960000D02*
X132392500Y-93960000D01*
X153947500Y-68580000D02*
X156210000Y-68580000D01*
X123905000Y-97536000D02*
X124705000Y-98336000D01*
X107188000Y-90932000D02*
X104648000Y-93472000D01*
X104648000Y-95250000D02*
X103378000Y-96520000D01*
X153670000Y-83820000D02*
X149860000Y-83820000D01*
X180340000Y-92964000D02*
X180340000Y-91948000D01*
X124705000Y-98336000D02*
X126962000Y-98336000D01*
X145669000Y-97155000D02*
X149860000Y-92964000D01*
X139446000Y-97155000D02*
X145669000Y-97155000D01*
X145034000Y-89662000D02*
X148590000Y-89662000D01*
X119888000Y-97536000D02*
X123905000Y-97536000D01*
X151003000Y-70485000D02*
X140970000Y-70485000D01*
X152122500Y-68580000D02*
X151360500Y-67818000D01*
X152122500Y-68580000D02*
X152122500Y-69365500D01*
X140970000Y-70485000D02*
X134620000Y-76835000D01*
X152122500Y-69365500D02*
X151003000Y-70485000D01*
X149629500Y-67818000D02*
X148867500Y-68580000D01*
X151360500Y-67818000D02*
X149629500Y-67818000D01*
X136525000Y-88265000D02*
X140970000Y-83820000D01*
X128270000Y-88265000D02*
X136525000Y-88265000D01*
X121920000Y-81915000D02*
X128270000Y-88265000D01*
X152400000Y-72644000D02*
X143764000Y-81280000D01*
X150495000Y-80010000D02*
X157988000Y-80010000D01*
X140970000Y-81280000D02*
X149225000Y-81280000D01*
X136525000Y-85725000D02*
X140970000Y-81280000D01*
X143764000Y-81280000D02*
X140970000Y-81280000D01*
X121920000Y-79375000D02*
X128270000Y-85725000D01*
X149225000Y-81280000D02*
X150495000Y-80010000D01*
X128270000Y-85725000D02*
X136525000Y-85725000D01*
X157988000Y-80010000D02*
X159512000Y-81534000D01*
X127977500Y-95250000D02*
X133819500Y-89408000D01*
X123190000Y-94996000D02*
X125730000Y-97536000D01*
X125730000Y-97497500D02*
X127977500Y-95250000D01*
X136652000Y-89408000D02*
X138430000Y-87630000D01*
X152400000Y-87630000D02*
X153670000Y-86360000D01*
X138430000Y-87630000D02*
X152400000Y-87630000D01*
X133819500Y-89408000D02*
X136652000Y-89408000D01*
X122324500Y-94996000D02*
X123190000Y-94996000D01*
X155575000Y-87628604D02*
X155575000Y-83185000D01*
X158750000Y-90803604D02*
X155575000Y-87628604D01*
X161925000Y-96520000D02*
X158750000Y-93345000D01*
X158750000Y-93345000D02*
X158750000Y-90803604D01*
X170517500Y-95295000D02*
X164142500Y-95295000D01*
X175617500Y-96520000D02*
X171742500Y-96520000D01*
X155575000Y-83185000D02*
X153670000Y-81280000D01*
X164142500Y-95295000D02*
X162917500Y-96520000D01*
X162917500Y-96520000D02*
X161925000Y-96520000D01*
X171742500Y-96520000D02*
X170517500Y-95295000D01*
X159512000Y-78994000D02*
X154940000Y-74422000D01*
X154940000Y-74422000D02*
X154940000Y-72644000D01*
X122486874Y-78105000D02*
X120015000Y-78105000D01*
X126365000Y-67310000D02*
X140335000Y-67310000D01*
X185420000Y-92964000D02*
X179369000Y-99015000D01*
X118999000Y-81534000D02*
X121920000Y-84455000D01*
X120015000Y-79883000D02*
X118364000Y-81534000D01*
X179070000Y-86614000D02*
X159512000Y-86614000D01*
X147042500Y-68580000D02*
X132011874Y-68580000D01*
X179369000Y-99015000D02*
X119335000Y-99015000D01*
X120015000Y-78105000D02*
X120015000Y-73660000D01*
X117189000Y-89757000D02*
X117189000Y-82709000D01*
X132011874Y-68580000D02*
X122486874Y-78105000D01*
X181864000Y-96520000D02*
X185420000Y-92964000D01*
X120015000Y-73660000D02*
X126365000Y-67310000D01*
X118364000Y-98044000D02*
X118364000Y-90932000D01*
X119335000Y-99015000D02*
X118364000Y-98044000D01*
X185420000Y-92964000D02*
X179070000Y-86614000D01*
X120015000Y-78105000D02*
X120015000Y-79883000D01*
X118364000Y-90932000D02*
X117189000Y-89757000D01*
X177442500Y-96520000D02*
X181864000Y-96520000D01*
X117189000Y-82709000D02*
X118364000Y-81534000D01*
X118364000Y-88392000D02*
X120499500Y-90527500D01*
X120499500Y-90527500D02*
X120499500Y-94996000D01*
X162902500Y-68237500D02*
X162306000Y-68834000D01*
X141048583Y-66198583D02*
X142160000Y-67310000D01*
X142875000Y-71120000D02*
X134620000Y-79375000D01*
X162902500Y-67945000D02*
X162902500Y-67045000D01*
X162405500Y-66548000D02*
X144526000Y-66548000D01*
X126206417Y-66198583D02*
X141048583Y-66198583D01*
X143764000Y-67310000D02*
X142160000Y-67310000D01*
X162902500Y-67045000D02*
X162405500Y-66548000D01*
X144526000Y-66548000D02*
X143764000Y-67310000D01*
X121031000Y-71374000D02*
X126206417Y-66198583D01*
X118364000Y-71374000D02*
X121031000Y-71374000D01*
X162306000Y-68834000D02*
X160889750Y-68834000D01*
X160889750Y-68834000D02*
X158603750Y-71120000D01*
X158603750Y-71120000D02*
X142875000Y-71120000D01*
G04 #@! TA.AperFunction,Conductor*
G36*
X124867086Y-66440685D02*
G01*
X124912841Y-66493489D01*
X124922785Y-66562647D01*
X124893760Y-66626203D01*
X124887728Y-66632681D01*
X120808228Y-70712181D01*
X120746905Y-70745666D01*
X120720547Y-70748500D01*
X119639227Y-70748500D01*
X119572188Y-70728815D01*
X119537652Y-70695623D01*
X119402494Y-70502597D01*
X119235402Y-70335506D01*
X119235401Y-70335505D01*
X119049405Y-70205269D01*
X119005781Y-70150692D01*
X118998588Y-70081193D01*
X119030110Y-70018839D01*
X119049405Y-70002119D01*
X119235082Y-69872105D01*
X119402105Y-69705082D01*
X119537600Y-69511578D01*
X119637429Y-69297492D01*
X119637432Y-69297486D01*
X119694636Y-69084000D01*
X118797686Y-69084000D01*
X118823493Y-69043844D01*
X118864000Y-68905889D01*
X118864000Y-68762111D01*
X118823493Y-68624156D01*
X118797686Y-68584000D01*
X119694636Y-68584000D01*
X119694635Y-68583999D01*
X119637432Y-68370513D01*
X119637429Y-68370507D01*
X119537600Y-68156422D01*
X119537599Y-68156420D01*
X119402113Y-67962926D01*
X119402108Y-67962920D01*
X119235082Y-67795894D01*
X119041578Y-67660399D01*
X118827492Y-67560570D01*
X118827486Y-67560567D01*
X118614000Y-67503364D01*
X118614000Y-68398498D01*
X118506315Y-68349320D01*
X118399763Y-68334000D01*
X118328237Y-68334000D01*
X118221685Y-68349320D01*
X118114000Y-68398498D01*
X118114000Y-67503364D01*
X118113999Y-67503364D01*
X117900513Y-67560567D01*
X117900507Y-67560570D01*
X117686422Y-67660399D01*
X117686420Y-67660400D01*
X117492926Y-67795886D01*
X117492920Y-67795891D01*
X117325891Y-67962920D01*
X117325886Y-67962926D01*
X117190400Y-68156420D01*
X117190399Y-68156422D01*
X117090570Y-68370507D01*
X117090567Y-68370513D01*
X117033364Y-68583999D01*
X117033364Y-68584000D01*
X117930314Y-68584000D01*
X117904507Y-68624156D01*
X117864000Y-68762111D01*
X117864000Y-68905889D01*
X117904507Y-69043844D01*
X117930314Y-69084000D01*
X117033364Y-69084000D01*
X117090567Y-69297486D01*
X117090570Y-69297492D01*
X117190399Y-69511578D01*
X117325894Y-69705082D01*
X117492917Y-69872105D01*
X117678595Y-70002119D01*
X117722219Y-70056696D01*
X117729412Y-70126195D01*
X117697890Y-70188549D01*
X117678595Y-70205269D01*
X117492594Y-70335508D01*
X117325505Y-70502597D01*
X117189965Y-70696169D01*
X117189964Y-70696171D01*
X117090098Y-70910335D01*
X117090094Y-70910344D01*
X117028938Y-71138586D01*
X117028936Y-71138596D01*
X117008341Y-71373999D01*
X117008341Y-71374000D01*
X117028936Y-71609403D01*
X117028938Y-71609413D01*
X117090094Y-71837655D01*
X117090096Y-71837659D01*
X117090097Y-71837663D01*
X117113172Y-71887147D01*
X117189965Y-72051830D01*
X117189967Y-72051834D01*
X117204080Y-72071989D01*
X117325501Y-72245396D01*
X117325506Y-72245402D01*
X117492597Y-72412493D01*
X117492603Y-72412498D01*
X117678158Y-72542425D01*
X117721783Y-72597002D01*
X117728977Y-72666500D01*
X117697454Y-72728855D01*
X117678158Y-72745575D01*
X117492597Y-72875505D01*
X117325505Y-73042597D01*
X117189965Y-73236169D01*
X117189964Y-73236171D01*
X117090098Y-73450335D01*
X117090094Y-73450344D01*
X117028938Y-73678586D01*
X117028936Y-73678596D01*
X117008341Y-73913999D01*
X117008341Y-73914000D01*
X117028936Y-74149403D01*
X117028938Y-74149413D01*
X117090094Y-74377655D01*
X117090096Y-74377659D01*
X117090097Y-74377663D01*
X117158561Y-74524484D01*
X117189965Y-74591830D01*
X117189967Y-74591834D01*
X117270680Y-74707103D01*
X117311777Y-74765796D01*
X117325501Y-74785395D01*
X117325506Y-74785402D01*
X117492597Y-74952493D01*
X117492603Y-74952498D01*
X117580403Y-75013976D01*
X117658515Y-75068671D01*
X117678594Y-75082730D01*
X117722219Y-75137307D01*
X117729413Y-75206805D01*
X117697890Y-75269160D01*
X117678595Y-75285880D01*
X117492922Y-75415890D01*
X117492920Y-75415891D01*
X117325891Y-75582920D01*
X117325886Y-75582926D01*
X117190400Y-75776420D01*
X117190399Y-75776422D01*
X117090570Y-75990507D01*
X117090567Y-75990513D01*
X117033364Y-76203999D01*
X117033364Y-76204000D01*
X117930314Y-76204000D01*
X117904507Y-76244156D01*
X117864000Y-76382111D01*
X117864000Y-76525889D01*
X117904507Y-76663844D01*
X117930314Y-76704000D01*
X117033364Y-76704000D01*
X117090567Y-76917486D01*
X117090570Y-76917492D01*
X117190399Y-77131578D01*
X117325894Y-77325082D01*
X117492917Y-77492105D01*
X117678595Y-77622119D01*
X117722219Y-77676696D01*
X117729412Y-77746195D01*
X117697890Y-77808549D01*
X117678595Y-77825269D01*
X117492594Y-77955508D01*
X117325505Y-78122597D01*
X117189965Y-78316169D01*
X117189964Y-78316171D01*
X117090098Y-78530335D01*
X117090094Y-78530344D01*
X117028938Y-78758586D01*
X117028936Y-78758596D01*
X117008341Y-78993999D01*
X117008341Y-78994000D01*
X117028936Y-79229403D01*
X117028938Y-79229413D01*
X117090094Y-79457655D01*
X117090096Y-79457659D01*
X117090097Y-79457663D01*
X117150086Y-79586310D01*
X117189965Y-79671830D01*
X117189967Y-79671834D01*
X117325501Y-79865395D01*
X117325506Y-79865402D01*
X117447430Y-79987326D01*
X117480915Y-80048649D01*
X117475931Y-80118341D01*
X117434059Y-80174274D01*
X117403083Y-80191189D01*
X117271669Y-80240203D01*
X117271664Y-80240206D01*
X117156455Y-80326452D01*
X117156452Y-80326455D01*
X117070206Y-80441664D01*
X117070202Y-80441671D01*
X117019908Y-80576517D01*
X117013501Y-80636116D01*
X117013500Y-80636135D01*
X117013500Y-81948546D01*
X116993815Y-82015585D01*
X116977181Y-82036227D01*
X116805208Y-82208199D01*
X116792951Y-82218020D01*
X116793134Y-82218241D01*
X116787123Y-82223213D01*
X116739772Y-82273636D01*
X116718889Y-82294519D01*
X116718877Y-82294532D01*
X116714621Y-82300017D01*
X116710837Y-82304447D01*
X116678937Y-82338418D01*
X116678936Y-82338420D01*
X116669284Y-82355976D01*
X116658610Y-82372226D01*
X116646329Y-82388061D01*
X116646324Y-82388068D01*
X116627815Y-82430838D01*
X116625245Y-82436084D01*
X116602803Y-82476906D01*
X116597822Y-82496307D01*
X116591521Y-82514710D01*
X116583562Y-82533102D01*
X116583561Y-82533105D01*
X116576271Y-82579127D01*
X116575087Y-82584846D01*
X116563501Y-82629972D01*
X116563500Y-82629982D01*
X116563500Y-82650016D01*
X116561973Y-82669413D01*
X116561249Y-82673983D01*
X116558840Y-82689194D01*
X116558840Y-82689195D01*
X116563225Y-82735583D01*
X116563500Y-82741421D01*
X116563500Y-89674255D01*
X116561775Y-89689872D01*
X116562061Y-89689899D01*
X116561326Y-89697665D01*
X116563500Y-89766814D01*
X116563500Y-89796343D01*
X116563501Y-89796360D01*
X116564368Y-89803231D01*
X116564826Y-89809050D01*
X116566290Y-89855624D01*
X116566291Y-89855627D01*
X116571880Y-89874867D01*
X116575824Y-89893911D01*
X116578336Y-89913792D01*
X116584709Y-89929888D01*
X116595490Y-89957119D01*
X116597382Y-89962647D01*
X116610381Y-90007388D01*
X116620580Y-90024634D01*
X116629138Y-90042103D01*
X116636514Y-90060732D01*
X116663898Y-90098423D01*
X116667106Y-90103307D01*
X116690827Y-90143416D01*
X116690833Y-90143424D01*
X116704990Y-90157580D01*
X116717628Y-90172376D01*
X116729405Y-90188586D01*
X116729406Y-90188587D01*
X116765309Y-90218288D01*
X116769620Y-90222210D01*
X116874797Y-90327387D01*
X116977181Y-90429771D01*
X117010666Y-90491094D01*
X117013500Y-90517452D01*
X117013500Y-91829870D01*
X117013501Y-91829876D01*
X117019908Y-91889483D01*
X117070202Y-92024328D01*
X117070206Y-92024335D01*
X117156452Y-92139544D01*
X117156455Y-92139547D01*
X117271664Y-92225793D01*
X117271671Y-92225797D01*
X117305245Y-92238319D01*
X117406517Y-92276091D01*
X117466127Y-92282500D01*
X117614500Y-92282499D01*
X117681539Y-92302183D01*
X117727294Y-92354987D01*
X117738500Y-92406499D01*
X117738500Y-97961255D01*
X117736775Y-97976872D01*
X117737061Y-97976899D01*
X117736326Y-97984665D01*
X117738500Y-98053814D01*
X117738500Y-98083343D01*
X117738501Y-98083360D01*
X117739368Y-98090231D01*
X117739826Y-98096050D01*
X117741290Y-98142628D01*
X117742511Y-98150331D01*
X117740323Y-98150677D01*
X117740153Y-98209281D01*
X117702207Y-98267949D01*
X117638568Y-98296789D01*
X117621278Y-98298000D01*
X103175362Y-98298000D01*
X103108323Y-98278315D01*
X103087681Y-98261681D01*
X102819681Y-97993681D01*
X102786196Y-97932358D01*
X102791180Y-97862666D01*
X102833052Y-97806733D01*
X102898516Y-97782316D01*
X102907362Y-97782000D01*
X103128000Y-97782000D01*
X103128000Y-96955501D01*
X103235685Y-97004680D01*
X103342237Y-97020000D01*
X103413763Y-97020000D01*
X103520315Y-97004680D01*
X103628000Y-96955501D01*
X103628000Y-97782000D01*
X104187828Y-97782000D01*
X104187844Y-97781999D01*
X104247372Y-97775598D01*
X104247379Y-97775596D01*
X104382086Y-97725354D01*
X104382093Y-97725350D01*
X104497187Y-97639190D01*
X104497190Y-97639187D01*
X104583350Y-97524093D01*
X104583354Y-97524086D01*
X104636125Y-97382599D01*
X104677996Y-97326666D01*
X104743460Y-97302248D01*
X104811733Y-97317099D01*
X104853881Y-97354808D01*
X104879498Y-97391393D01*
X104879501Y-97391396D01*
X104879505Y-97391401D01*
X105046599Y-97558495D01*
X105126741Y-97614611D01*
X105240165Y-97694032D01*
X105240167Y-97694033D01*
X105240170Y-97694035D01*
X105454337Y-97793903D01*
X105682592Y-97855063D01*
X105870918Y-97871539D01*
X105917999Y-97875659D01*
X105918000Y-97875659D01*
X105918001Y-97875659D01*
X105957234Y-97872226D01*
X106153408Y-97855063D01*
X106381663Y-97793903D01*
X106595830Y-97694035D01*
X106789401Y-97558495D01*
X106956495Y-97391401D01*
X107086425Y-97205842D01*
X107141002Y-97162217D01*
X107210500Y-97155023D01*
X107272855Y-97186546D01*
X107289575Y-97205842D01*
X107419500Y-97391395D01*
X107419505Y-97391401D01*
X107586599Y-97558495D01*
X107666741Y-97614611D01*
X107780165Y-97694032D01*
X107780167Y-97694033D01*
X107780170Y-97694035D01*
X107994337Y-97793903D01*
X108222592Y-97855063D01*
X108410918Y-97871539D01*
X108457999Y-97875659D01*
X108458000Y-97875659D01*
X108458001Y-97875659D01*
X108497234Y-97872226D01*
X108693408Y-97855063D01*
X108921663Y-97793903D01*
X109135830Y-97694035D01*
X109329401Y-97558495D01*
X109496495Y-97391401D01*
X109626425Y-97205842D01*
X109681002Y-97162217D01*
X109750500Y-97155023D01*
X109812855Y-97186546D01*
X109829575Y-97205842D01*
X109959500Y-97391395D01*
X109959505Y-97391401D01*
X110126599Y-97558495D01*
X110206741Y-97614611D01*
X110320165Y-97694032D01*
X110320167Y-97694033D01*
X110320170Y-97694035D01*
X110534337Y-97793903D01*
X110762592Y-97855063D01*
X110950918Y-97871539D01*
X110997999Y-97875659D01*
X110998000Y-97875659D01*
X110998001Y-97875659D01*
X111037234Y-97872226D01*
X111233408Y-97855063D01*
X111461663Y-97793903D01*
X111675830Y-97694035D01*
X111869401Y-97558495D01*
X112036495Y-97391401D01*
X112172035Y-97197830D01*
X112271903Y-96983663D01*
X112333063Y-96755408D01*
X112353659Y-96520000D01*
X112333063Y-96284592D01*
X112271903Y-96056337D01*
X112172035Y-95842171D01*
X112172007Y-95842130D01*
X112036494Y-95648597D01*
X111869402Y-95481506D01*
X111869396Y-95481501D01*
X111683842Y-95351575D01*
X111640217Y-95296998D01*
X111633023Y-95227500D01*
X111664546Y-95165145D01*
X111683842Y-95148425D01*
X111710154Y-95130001D01*
X111869401Y-95018495D01*
X112036495Y-94851401D01*
X112172035Y-94657830D01*
X112271903Y-94443663D01*
X112333063Y-94215408D01*
X112353659Y-93980000D01*
X112333063Y-93744592D01*
X112271903Y-93516337D01*
X112172035Y-93302171D01*
X112171505Y-93301413D01*
X112036494Y-93108597D01*
X111869402Y-92941506D01*
X111869395Y-92941501D01*
X111675834Y-92805967D01*
X111675830Y-92805965D01*
X111555727Y-92749960D01*
X111461663Y-92706097D01*
X111461659Y-92706096D01*
X111461655Y-92706094D01*
X111233413Y-92644938D01*
X111233403Y-92644936D01*
X110998001Y-92624341D01*
X110997999Y-92624341D01*
X110762596Y-92644936D01*
X110762586Y-92644938D01*
X110534344Y-92706094D01*
X110534335Y-92706098D01*
X110320171Y-92805964D01*
X110320169Y-92805965D01*
X110126597Y-92941505D01*
X109959505Y-93108597D01*
X109829575Y-93294158D01*
X109774998Y-93337783D01*
X109705500Y-93344977D01*
X109643145Y-93313454D01*
X109626425Y-93294158D01*
X109496494Y-93108597D01*
X109329402Y-92941506D01*
X109329395Y-92941501D01*
X109135834Y-92805967D01*
X109135830Y-92805965D01*
X109015727Y-92749960D01*
X108921663Y-92706097D01*
X108921659Y-92706096D01*
X108921655Y-92706094D01*
X108693413Y-92644938D01*
X108693403Y-92644936D01*
X108458001Y-92624341D01*
X108457999Y-92624341D01*
X108222596Y-92644936D01*
X108222586Y-92644938D01*
X107994344Y-92706094D01*
X107994335Y-92706098D01*
X107780171Y-92805964D01*
X107780169Y-92805965D01*
X107586597Y-92941505D01*
X107419505Y-93108597D01*
X107289575Y-93294158D01*
X107234998Y-93337783D01*
X107165500Y-93344977D01*
X107103145Y-93313454D01*
X107086425Y-93294158D01*
X106956494Y-93108597D01*
X106789402Y-92941506D01*
X106789395Y-92941501D01*
X106595834Y-92805967D01*
X106595830Y-92805965D01*
X106475727Y-92749960D01*
X106381663Y-92706097D01*
X106381659Y-92706096D01*
X106381655Y-92706094D01*
X106153413Y-92644938D01*
X106153403Y-92644936D01*
X105918001Y-92624341D01*
X105917999Y-92624341D01*
X105682596Y-92644936D01*
X105682586Y-92644938D01*
X105454344Y-92706094D01*
X105454335Y-92706098D01*
X105240171Y-92805964D01*
X105240169Y-92805965D01*
X105046597Y-92941505D01*
X104879505Y-93108597D01*
X104749575Y-93294158D01*
X104694998Y-93337783D01*
X104625500Y-93344977D01*
X104563145Y-93313454D01*
X104546425Y-93294158D01*
X104416494Y-93108597D01*
X104249402Y-92941506D01*
X104249395Y-92941501D01*
X104055834Y-92805967D01*
X104055830Y-92805965D01*
X103935727Y-92749960D01*
X103841663Y-92706097D01*
X103841659Y-92706096D01*
X103841655Y-92706094D01*
X103613413Y-92644938D01*
X103613403Y-92644936D01*
X103378001Y-92624341D01*
X103377999Y-92624341D01*
X103142596Y-92644936D01*
X103142586Y-92644938D01*
X102914344Y-92706094D01*
X102914335Y-92706098D01*
X102700171Y-92805964D01*
X102700169Y-92805965D01*
X102506597Y-92941505D01*
X102339505Y-93108597D01*
X102203965Y-93302169D01*
X102203964Y-93302171D01*
X102104098Y-93516335D01*
X102104094Y-93516344D01*
X102042938Y-93744586D01*
X102042936Y-93744596D01*
X102022341Y-93979999D01*
X102022341Y-93980000D01*
X102042936Y-94215403D01*
X102042938Y-94215413D01*
X102104094Y-94443655D01*
X102104096Y-94443659D01*
X102104097Y-94443663D01*
X102182693Y-94612212D01*
X102203965Y-94657830D01*
X102203967Y-94657834D01*
X102301293Y-94796829D01*
X102339505Y-94851401D01*
X102506599Y-95018495D01*
X102543191Y-95044117D01*
X102586816Y-95098695D01*
X102594008Y-95168193D01*
X102562486Y-95230548D01*
X102515400Y-95261874D01*
X102373913Y-95314645D01*
X102373906Y-95314649D01*
X102258812Y-95400809D01*
X102258809Y-95400812D01*
X102172649Y-95515906D01*
X102172645Y-95515913D01*
X102122403Y-95650620D01*
X102122401Y-95650627D01*
X102116000Y-95710155D01*
X102116000Y-96270000D01*
X102944314Y-96270000D01*
X102918507Y-96310156D01*
X102878000Y-96448111D01*
X102878000Y-96591889D01*
X102918507Y-96729844D01*
X102944314Y-96770000D01*
X102116000Y-96770000D01*
X102116000Y-96990638D01*
X102096315Y-97057677D01*
X102043511Y-97103432D01*
X101974353Y-97113376D01*
X101910797Y-97084351D01*
X101904319Y-97078319D01*
X101758247Y-96932247D01*
X101725644Y-96874695D01*
X101701286Y-96777449D01*
X101700104Y-96771501D01*
X101646575Y-96410631D01*
X101645981Y-96404583D01*
X101627992Y-96038341D01*
X101627917Y-96035298D01*
X101627917Y-96013675D01*
X101627918Y-95971278D01*
X101627917Y-95971274D01*
X101627917Y-93495445D01*
X101647602Y-93428406D01*
X101664236Y-93407764D01*
X102833681Y-92238319D01*
X102895004Y-92204834D01*
X102921362Y-92202000D01*
X109219999Y-92202000D01*
X109220000Y-92202000D01*
X111760000Y-90170000D01*
X111760000Y-68637341D01*
X111779685Y-68570302D01*
X111803689Y-68542864D01*
X114029954Y-66650539D01*
X114265271Y-66450520D01*
X114329099Y-66422100D01*
X114345579Y-66421000D01*
X124800047Y-66421000D01*
X124867086Y-66440685D01*
G37*
G04 #@! TD.AperFunction*
G04 #@! TA.AperFunction,Conductor*
G36*
X119837682Y-92020395D02*
G01*
X119871166Y-92081719D01*
X119874000Y-92108076D01*
X119874000Y-94053808D01*
X119854315Y-94120847D01*
X119815099Y-94159345D01*
X119788652Y-94175657D01*
X119666661Y-94297648D01*
X119576093Y-94444481D01*
X119576091Y-94444486D01*
X119565553Y-94476288D01*
X119521826Y-94608247D01*
X119521826Y-94608248D01*
X119521825Y-94608248D01*
X119511500Y-94709315D01*
X119511500Y-95282669D01*
X119511501Y-95282687D01*
X119521825Y-95383752D01*
X119533158Y-95417951D01*
X119574153Y-95541666D01*
X119576092Y-95547515D01*
X119576093Y-95547518D01*
X119595905Y-95579638D01*
X119666660Y-95694350D01*
X119788650Y-95816340D01*
X119935484Y-95906908D01*
X120099247Y-95961174D01*
X120200323Y-95971500D01*
X120798676Y-95971499D01*
X120798684Y-95971498D01*
X120798687Y-95971498D01*
X120854030Y-95965844D01*
X120899753Y-95961174D01*
X121063516Y-95906908D01*
X121210350Y-95816340D01*
X121324319Y-95702371D01*
X121385642Y-95668886D01*
X121455334Y-95673870D01*
X121499681Y-95702371D01*
X121613650Y-95816340D01*
X121760484Y-95906908D01*
X121924247Y-95961174D01*
X122025323Y-95971500D01*
X122623676Y-95971499D01*
X122623684Y-95971498D01*
X122623687Y-95971498D01*
X122679030Y-95965844D01*
X122724753Y-95961174D01*
X122888516Y-95906908D01*
X123007813Y-95833325D01*
X123075205Y-95814884D01*
X123141869Y-95835806D01*
X123160591Y-95851182D01*
X123661369Y-96351960D01*
X123694854Y-96413283D01*
X123689870Y-96482975D01*
X123647998Y-96538908D01*
X123586290Y-96562999D01*
X123504847Y-96571319D01*
X123341199Y-96625546D01*
X123341188Y-96625551D01*
X123194465Y-96716052D01*
X123194461Y-96716055D01*
X123072555Y-96837961D01*
X123072552Y-96837965D01*
X122982051Y-96984688D01*
X122982046Y-96984699D01*
X122927819Y-97148347D01*
X122917500Y-97249345D01*
X122917500Y-97286000D01*
X124031000Y-97286000D01*
X124098039Y-97305685D01*
X124143794Y-97358489D01*
X124155000Y-97410000D01*
X124155000Y-97662000D01*
X124135315Y-97729039D01*
X124082511Y-97774794D01*
X124031000Y-97786000D01*
X122917501Y-97786000D01*
X122917501Y-97822654D01*
X122927819Y-97923652D01*
X122982046Y-98087300D01*
X122982049Y-98087307D01*
X122995370Y-98108902D01*
X123013811Y-98176294D01*
X122992889Y-98242958D01*
X122939248Y-98287728D01*
X122889832Y-98298000D01*
X119553953Y-98298000D01*
X119486914Y-98278315D01*
X119466272Y-98261681D01*
X119025819Y-97821228D01*
X118992334Y-97759905D01*
X118989500Y-97733547D01*
X118989500Y-92406499D01*
X119009185Y-92339460D01*
X119061989Y-92293705D01*
X119113500Y-92282499D01*
X119261871Y-92282499D01*
X119261872Y-92282499D01*
X119321483Y-92276091D01*
X119456331Y-92225796D01*
X119571546Y-92139546D01*
X119650734Y-92033763D01*
X119706667Y-91991894D01*
X119776359Y-91986910D01*
X119837682Y-92020395D01*
G37*
G04 #@! TD.AperFunction*
G04 #@! TA.AperFunction,Conductor*
G36*
X154863995Y-87221587D02*
G01*
X154921611Y-87261111D01*
X154948713Y-87325510D01*
X154949500Y-87339460D01*
X154949500Y-87545859D01*
X154947775Y-87561476D01*
X154948061Y-87561503D01*
X154947326Y-87569269D01*
X154949500Y-87638418D01*
X154949500Y-87667947D01*
X154949501Y-87667964D01*
X154950368Y-87674835D01*
X154950826Y-87680654D01*
X154952290Y-87727228D01*
X154952291Y-87727231D01*
X154957880Y-87746471D01*
X154961824Y-87765515D01*
X154964336Y-87785396D01*
X154978649Y-87821547D01*
X154981490Y-87828723D01*
X154983382Y-87834251D01*
X154996381Y-87878992D01*
X155006580Y-87896238D01*
X155015138Y-87913707D01*
X155022514Y-87932336D01*
X155049898Y-87970027D01*
X155053106Y-87974911D01*
X155076827Y-88015020D01*
X155076833Y-88015028D01*
X155090990Y-88029184D01*
X155103628Y-88043980D01*
X155115405Y-88060190D01*
X155115406Y-88060191D01*
X155151309Y-88089892D01*
X155155620Y-88093814D01*
X156625400Y-89563594D01*
X158088181Y-91026375D01*
X158121666Y-91087698D01*
X158124500Y-91114056D01*
X158124500Y-91673569D01*
X158104815Y-91740608D01*
X158052011Y-91786363D01*
X157982853Y-91796307D01*
X157948098Y-91785952D01*
X157914487Y-91770279D01*
X157914475Y-91770275D01*
X157700592Y-91712965D01*
X157700585Y-91712964D01*
X157480002Y-91693666D01*
X157479998Y-91693666D01*
X157259414Y-91712964D01*
X157259407Y-91712965D01*
X157045524Y-91770275D01*
X157045513Y-91770279D01*
X156844836Y-91863856D01*
X156844834Y-91863857D01*
X156663444Y-91990868D01*
X156506868Y-92147444D01*
X156379857Y-92328834D01*
X156379856Y-92328836D01*
X156322382Y-92452091D01*
X156276210Y-92504531D01*
X156209017Y-92523683D01*
X156142135Y-92503467D01*
X156097618Y-92452091D01*
X156069050Y-92390828D01*
X156040142Y-92328833D01*
X155913132Y-92147445D01*
X155756555Y-91990868D01*
X155575167Y-91863858D01*
X155502292Y-91829876D01*
X155374486Y-91770279D01*
X155374475Y-91770275D01*
X155160592Y-91712965D01*
X155160585Y-91712964D01*
X154940002Y-91693666D01*
X154939998Y-91693666D01*
X154719414Y-91712964D01*
X154719407Y-91712965D01*
X154505524Y-91770275D01*
X154505513Y-91770279D01*
X154304836Y-91863856D01*
X154304834Y-91863857D01*
X154123444Y-91990868D01*
X153966868Y-92147444D01*
X153839857Y-92328834D01*
X153839856Y-92328836D01*
X153782382Y-92452091D01*
X153736210Y-92504531D01*
X153669017Y-92523683D01*
X153602135Y-92503467D01*
X153557618Y-92452091D01*
X153529050Y-92390828D01*
X153500142Y-92328833D01*
X153373132Y-92147445D01*
X153216555Y-91990868D01*
X153035167Y-91863858D01*
X152962292Y-91829876D01*
X152834486Y-91770279D01*
X152834475Y-91770275D01*
X152620592Y-91712965D01*
X152620585Y-91712964D01*
X152400002Y-91693666D01*
X152399998Y-91693666D01*
X152179414Y-91712964D01*
X152179407Y-91712965D01*
X151965524Y-91770275D01*
X151965513Y-91770279D01*
X151764836Y-91863856D01*
X151764834Y-91863857D01*
X151583444Y-91990868D01*
X151426868Y-92147444D01*
X151299857Y-92328833D01*
X151242106Y-92452683D01*
X151195934Y-92505122D01*
X151128740Y-92524274D01*
X151061859Y-92504058D01*
X151017342Y-92452683D01*
X150959707Y-92329085D01*
X150959706Y-92329083D01*
X150913894Y-92263657D01*
X150913894Y-92263656D01*
X150351132Y-92826418D01*
X150328682Y-92749960D01*
X150249395Y-92626587D01*
X150138562Y-92530549D01*
X150005161Y-92469627D01*
X150001366Y-92469081D01*
X150560342Y-91910105D01*
X150560341Y-91910103D01*
X150494919Y-91864295D01*
X150294309Y-91770749D01*
X150294300Y-91770745D01*
X150080509Y-91713461D01*
X150080499Y-91713459D01*
X149860001Y-91694168D01*
X149859999Y-91694168D01*
X149639500Y-91713459D01*
X149639490Y-91713461D01*
X149425699Y-91770745D01*
X149425690Y-91770749D01*
X149225084Y-91864293D01*
X149159657Y-91910104D01*
X149718634Y-92469081D01*
X149714839Y-92469627D01*
X149581438Y-92530549D01*
X149470605Y-92626587D01*
X149391318Y-92749960D01*
X149368866Y-92826419D01*
X148806104Y-92263657D01*
X148760293Y-92329084D01*
X148666749Y-92529690D01*
X148666745Y-92529699D01*
X148609461Y-92743490D01*
X148609459Y-92743500D01*
X148590168Y-92963999D01*
X148590168Y-92964000D01*
X148609459Y-93184499D01*
X148609461Y-93184509D01*
X148666745Y-93398300D01*
X148666749Y-93398309D01*
X148760295Y-93598919D01*
X148806103Y-93664341D01*
X148806105Y-93664342D01*
X149368866Y-93101580D01*
X149391318Y-93178040D01*
X149470605Y-93301413D01*
X149581438Y-93397451D01*
X149714839Y-93458373D01*
X149718633Y-93458918D01*
X149159656Y-94017894D01*
X149225083Y-94063706D01*
X149225085Y-94063707D01*
X149425690Y-94157250D01*
X149425699Y-94157254D01*
X149639490Y-94214538D01*
X149639500Y-94214540D01*
X149859999Y-94233832D01*
X149860001Y-94233832D01*
X150080499Y-94214540D01*
X150080509Y-94214538D01*
X150294300Y-94157254D01*
X150294309Y-94157250D01*
X150494915Y-94063706D01*
X150560342Y-94017894D01*
X150001366Y-93458918D01*
X150005161Y-93458373D01*
X150138562Y-93397451D01*
X150249395Y-93301413D01*
X150328682Y-93178040D01*
X150351133Y-93101580D01*
X150913894Y-93664342D01*
X150959707Y-93598914D01*
X150959708Y-93598912D01*
X151017342Y-93475317D01*
X151063514Y-93422877D01*
X151130707Y-93403725D01*
X151197589Y-93423941D01*
X151242106Y-93475317D01*
X151299858Y-93599167D01*
X151426868Y-93780555D01*
X151583445Y-93937132D01*
X151764833Y-94064142D01*
X151809905Y-94085159D01*
X151965513Y-94157720D01*
X151965515Y-94157720D01*
X151965520Y-94157723D01*
X152179409Y-94215035D01*
X152336974Y-94228820D01*
X152399998Y-94234334D01*
X152400000Y-94234334D01*
X152400002Y-94234334D01*
X152455147Y-94229509D01*
X152620591Y-94215035D01*
X152834480Y-94157723D01*
X153035167Y-94064142D01*
X153216555Y-93937132D01*
X153373132Y-93780555D01*
X153500142Y-93599167D01*
X153557618Y-93475907D01*
X153603790Y-93423468D01*
X153670983Y-93404316D01*
X153737864Y-93424531D01*
X153782381Y-93475907D01*
X153839858Y-93599167D01*
X153966868Y-93780555D01*
X154123445Y-93937132D01*
X154304833Y-94064142D01*
X154349905Y-94085159D01*
X154505513Y-94157720D01*
X154505515Y-94157720D01*
X154505520Y-94157723D01*
X154719409Y-94215035D01*
X154876974Y-94228820D01*
X154939998Y-94234334D01*
X154940000Y-94234334D01*
X154940002Y-94234334D01*
X154995147Y-94229509D01*
X155160591Y-94215035D01*
X155374480Y-94157723D01*
X155575167Y-94064142D01*
X155756555Y-93937132D01*
X155913132Y-93780555D01*
X156040142Y-93599167D01*
X156097618Y-93475907D01*
X156143790Y-93423468D01*
X156210983Y-93404316D01*
X156277864Y-93424531D01*
X156322381Y-93475907D01*
X156379858Y-93599167D01*
X156506868Y-93780555D01*
X156663445Y-93937132D01*
X156844833Y-94064142D01*
X156889905Y-94085159D01*
X157045513Y-94157720D01*
X157045515Y-94157720D01*
X157045520Y-94157723D01*
X157259409Y-94215035D01*
X157416974Y-94228820D01*
X157479998Y-94234334D01*
X157480000Y-94234334D01*
X157480002Y-94234334D01*
X157535147Y-94229509D01*
X157700591Y-94215035D01*
X157914480Y-94157723D01*
X158115167Y-94064142D01*
X158296555Y-93937132D01*
X158296573Y-93937113D01*
X158297029Y-93936732D01*
X158297286Y-93936619D01*
X158300990Y-93934026D01*
X158301510Y-93934769D01*
X158361032Y-93908707D01*
X158430026Y-93919732D01*
X158464434Y-93944024D01*
X159997455Y-95477046D01*
X161424197Y-96903788D01*
X161434022Y-96916051D01*
X161434243Y-96915869D01*
X161439214Y-96921878D01*
X161460045Y-96941439D01*
X161489635Y-96969226D01*
X161510529Y-96990120D01*
X161516011Y-96994373D01*
X161520443Y-96998157D01*
X161554418Y-97030062D01*
X161571976Y-97039714D01*
X161588233Y-97050393D01*
X161604064Y-97062673D01*
X161623737Y-97071186D01*
X161646833Y-97081182D01*
X161652077Y-97083750D01*
X161692908Y-97106197D01*
X161705523Y-97109435D01*
X161712305Y-97111177D01*
X161730719Y-97117481D01*
X161749104Y-97125438D01*
X161795157Y-97132732D01*
X161800826Y-97133906D01*
X161845981Y-97145500D01*
X161866016Y-97145500D01*
X161885413Y-97147026D01*
X161905196Y-97150160D01*
X161951584Y-97145775D01*
X161957422Y-97145500D01*
X161970519Y-97145500D01*
X162037558Y-97165185D01*
X162076058Y-97204404D01*
X162084660Y-97218350D01*
X162206650Y-97340340D01*
X162353484Y-97430908D01*
X162517247Y-97485174D01*
X162618323Y-97495500D01*
X163216676Y-97495499D01*
X163216684Y-97495498D01*
X163216687Y-97495498D01*
X163277009Y-97489336D01*
X163317753Y-97485174D01*
X163481516Y-97430908D01*
X163628350Y-97340340D01*
X163742675Y-97226014D01*
X163803994Y-97192532D01*
X163873686Y-97197516D01*
X163918034Y-97226017D01*
X164031961Y-97339944D01*
X164031965Y-97339947D01*
X164178688Y-97430448D01*
X164178699Y-97430453D01*
X164342347Y-97484680D01*
X164443351Y-97494999D01*
X164492499Y-97494998D01*
X164492500Y-97494998D01*
X164492500Y-96770000D01*
X164992500Y-96770000D01*
X164992500Y-97494999D01*
X165041640Y-97494999D01*
X165041654Y-97494998D01*
X165142652Y-97484680D01*
X165306300Y-97430453D01*
X165306311Y-97430448D01*
X165453034Y-97339947D01*
X165453038Y-97339944D01*
X165574944Y-97218038D01*
X165574947Y-97218034D01*
X165665448Y-97071311D01*
X165665453Y-97071300D01*
X165719680Y-96907652D01*
X165729999Y-96806654D01*
X165730000Y-96806641D01*
X165730000Y-96770000D01*
X167455001Y-96770000D01*
X167455001Y-97219986D01*
X167465494Y-97322697D01*
X167520641Y-97489119D01*
X167520643Y-97489124D01*
X167612684Y-97638345D01*
X167736654Y-97762315D01*
X167885875Y-97854356D01*
X167885880Y-97854358D01*
X168052302Y-97909505D01*
X168052309Y-97909506D01*
X168155019Y-97919999D01*
X168367499Y-97919999D01*
X168367500Y-97919998D01*
X168367500Y-96770000D01*
X168867500Y-96770000D01*
X168867500Y-97919999D01*
X169079972Y-97919999D01*
X169079986Y-97919998D01*
X169182697Y-97909505D01*
X169349119Y-97854358D01*
X169349124Y-97854356D01*
X169498345Y-97762315D01*
X169622315Y-97638345D01*
X169714356Y-97489124D01*
X169714358Y-97489119D01*
X169769505Y-97322697D01*
X169769506Y-97322690D01*
X169779999Y-97219986D01*
X169780000Y-97219973D01*
X169780000Y-96770000D01*
X168867500Y-96770000D01*
X168367500Y-96770000D01*
X167455001Y-96770000D01*
X165730000Y-96770000D01*
X164992500Y-96770000D01*
X164492500Y-96770000D01*
X164492500Y-96394000D01*
X164512185Y-96326961D01*
X164564989Y-96281206D01*
X164616500Y-96270000D01*
X165729999Y-96270000D01*
X165729999Y-96233360D01*
X165729998Y-96233345D01*
X165719680Y-96132346D01*
X165703496Y-96083503D01*
X165701095Y-96013675D01*
X165736826Y-95953633D01*
X165799347Y-95922441D01*
X165821202Y-95920500D01*
X167331000Y-95920500D01*
X167398039Y-95940185D01*
X167443794Y-95992989D01*
X167455000Y-96044500D01*
X167455000Y-96270000D01*
X169779999Y-96270000D01*
X169779999Y-96044500D01*
X169799684Y-95977461D01*
X169852488Y-95931706D01*
X169903999Y-95920500D01*
X170207048Y-95920500D01*
X170274087Y-95940185D01*
X170294729Y-95956819D01*
X170543181Y-96205271D01*
X170576666Y-96266594D01*
X170579500Y-96292952D01*
X170579500Y-97220001D01*
X170579501Y-97220019D01*
X170590000Y-97322796D01*
X170590001Y-97322799D01*
X170645185Y-97489331D01*
X170645187Y-97489336D01*
X170648989Y-97495500D01*
X170737288Y-97638656D01*
X170861344Y-97762712D01*
X171010666Y-97854814D01*
X171177203Y-97909999D01*
X171279991Y-97920500D01*
X172205008Y-97920499D01*
X172205016Y-97920498D01*
X172205019Y-97920498D01*
X172261302Y-97914748D01*
X172307797Y-97909999D01*
X172474334Y-97854814D01*
X172623656Y-97762712D01*
X172747712Y-97638656D01*
X172839814Y-97489334D01*
X172894999Y-97322797D01*
X172898758Y-97286000D01*
X172901732Y-97256897D01*
X172928129Y-97192205D01*
X172985310Y-97152054D01*
X173025090Y-97145500D01*
X174670519Y-97145500D01*
X174737558Y-97165185D01*
X174776058Y-97204404D01*
X174784660Y-97218350D01*
X174906650Y-97340340D01*
X175053484Y-97430908D01*
X175217247Y-97485174D01*
X175318323Y-97495500D01*
X175916676Y-97495499D01*
X175916684Y-97495498D01*
X175916687Y-97495498D01*
X175977009Y-97489336D01*
X176017753Y-97485174D01*
X176181516Y-97430908D01*
X176328350Y-97340340D01*
X176442319Y-97226371D01*
X176503642Y-97192886D01*
X176573334Y-97197870D01*
X176617681Y-97226371D01*
X176731650Y-97340340D01*
X176878484Y-97430908D01*
X177042247Y-97485174D01*
X177143323Y-97495500D01*
X177741676Y-97495499D01*
X177741684Y-97495498D01*
X177741687Y-97495498D01*
X177802009Y-97489336D01*
X177842753Y-97485174D01*
X178006516Y-97430908D01*
X178153350Y-97340340D01*
X178275340Y-97218350D01*
X178283942Y-97204404D01*
X178335890Y-97157679D01*
X178389481Y-97145500D01*
X180054547Y-97145500D01*
X180121586Y-97165185D01*
X180167341Y-97217989D01*
X180177285Y-97287147D01*
X180148260Y-97350703D01*
X180142228Y-97357181D01*
X179237728Y-98261681D01*
X179176405Y-98295166D01*
X179150047Y-98298000D01*
X158275570Y-98298000D01*
X158208531Y-98278315D01*
X158162776Y-98225511D01*
X158152832Y-98156353D01*
X158181857Y-98092797D01*
X158187889Y-98086319D01*
X158220394Y-98053814D01*
X158255421Y-98018787D01*
X158389777Y-97826907D01*
X158488772Y-97614611D01*
X158549398Y-97388351D01*
X158569814Y-97155000D01*
X158569390Y-97150159D01*
X158556092Y-96998161D01*
X158549398Y-96921649D01*
X158488772Y-96695389D01*
X158389777Y-96483093D01*
X158255421Y-96291213D01*
X158089787Y-96125579D01*
X157897907Y-95991223D01*
X157685611Y-95892228D01*
X157685607Y-95892227D01*
X157685603Y-95892225D01*
X157459356Y-95831603D01*
X157459346Y-95831601D01*
X157226001Y-95811186D01*
X157225999Y-95811186D01*
X156992653Y-95831601D01*
X156992643Y-95831603D01*
X156766396Y-95892225D01*
X156766389Y-95892227D01*
X156766389Y-95892228D01*
X156554093Y-95991223D01*
X156362213Y-96125579D01*
X156362211Y-96125580D01*
X156362208Y-96125583D01*
X156196583Y-96291208D01*
X156196580Y-96291211D01*
X156196579Y-96291213D01*
X156062223Y-96483093D01*
X155984161Y-96650499D01*
X155963229Y-96695387D01*
X155963225Y-96695396D01*
X155902603Y-96921643D01*
X155902601Y-96921653D01*
X155882186Y-97154999D01*
X155882186Y-97155000D01*
X155902601Y-97388346D01*
X155902603Y-97388356D01*
X155963225Y-97614603D01*
X155963227Y-97614607D01*
X155963228Y-97614611D01*
X156062223Y-97826907D01*
X156196579Y-98018787D01*
X156196583Y-98018791D01*
X156264111Y-98086319D01*
X156297596Y-98147642D01*
X156292612Y-98217334D01*
X156250740Y-98273267D01*
X156185276Y-98297684D01*
X156176430Y-98298000D01*
X140494864Y-98298000D01*
X140427825Y-98278315D01*
X140382070Y-98225511D01*
X140372126Y-98156353D01*
X140401151Y-98092797D01*
X140407183Y-98086319D01*
X140475036Y-98018465D01*
X140609339Y-97826660D01*
X140609341Y-97826656D01*
X140708298Y-97614443D01*
X140764420Y-97405000D01*
X139879686Y-97405000D01*
X139905493Y-97364844D01*
X139946000Y-97226889D01*
X139946000Y-97083111D01*
X139905493Y-96945156D01*
X139879686Y-96905000D01*
X140764420Y-96905000D01*
X140764419Y-96904999D01*
X140708298Y-96695556D01*
X140609341Y-96483343D01*
X140609339Y-96483339D01*
X140475036Y-96291534D01*
X140309465Y-96125963D01*
X140117660Y-95991660D01*
X140117656Y-95991658D01*
X139905443Y-95892701D01*
X139696000Y-95836580D01*
X139696000Y-96719498D01*
X139588315Y-96670320D01*
X139481763Y-96655000D01*
X139410237Y-96655000D01*
X139303685Y-96670320D01*
X139196000Y-96719498D01*
X139196000Y-95836580D01*
X139195999Y-95836580D01*
X138986556Y-95892701D01*
X138774343Y-95991658D01*
X138774339Y-95991660D01*
X138582534Y-96125963D01*
X138416963Y-96291534D01*
X138282660Y-96483339D01*
X138282658Y-96483343D01*
X138183701Y-96695556D01*
X138127580Y-96904999D01*
X138127580Y-96905000D01*
X139012314Y-96905000D01*
X138986507Y-96945156D01*
X138946000Y-97083111D01*
X138946000Y-97226889D01*
X138986507Y-97364844D01*
X139012314Y-97405000D01*
X138127580Y-97405000D01*
X138183701Y-97614443D01*
X138282658Y-97826656D01*
X138282660Y-97826660D01*
X138416963Y-98018465D01*
X138484817Y-98086319D01*
X138518302Y-98147642D01*
X138513318Y-98217334D01*
X138471446Y-98273267D01*
X138405982Y-98297684D01*
X138397136Y-98298000D01*
X126745755Y-98298000D01*
X126678716Y-98278315D01*
X126632961Y-98225511D01*
X126623017Y-98156353D01*
X126640216Y-98108904D01*
X126649945Y-98093130D01*
X126653408Y-98087516D01*
X126707674Y-97923753D01*
X126718000Y-97822677D01*
X126717999Y-97445451D01*
X126737683Y-97378413D01*
X126754313Y-97357776D01*
X127425273Y-96686816D01*
X127486594Y-96653333D01*
X127512952Y-96650499D01*
X127514981Y-96650499D01*
X127514991Y-96650500D01*
X128440008Y-96650499D01*
X128440016Y-96650498D01*
X128440019Y-96650498D01*
X128496302Y-96644748D01*
X128542797Y-96639999D01*
X128709334Y-96584814D01*
X128858656Y-96492712D01*
X128982712Y-96368656D01*
X129074814Y-96219334D01*
X129129999Y-96052797D01*
X129140500Y-95950009D01*
X129140500Y-95500000D01*
X129940001Y-95500000D01*
X129940001Y-95949986D01*
X129950494Y-96052697D01*
X130005641Y-96219119D01*
X130005643Y-96219124D01*
X130097684Y-96368345D01*
X130221654Y-96492315D01*
X130370875Y-96584356D01*
X130370880Y-96584358D01*
X130537302Y-96639505D01*
X130537309Y-96639506D01*
X130640019Y-96649999D01*
X130852499Y-96649999D01*
X130852500Y-96649998D01*
X130852500Y-95500000D01*
X131352500Y-95500000D01*
X131352500Y-96649999D01*
X131564972Y-96649999D01*
X131564986Y-96649998D01*
X131667697Y-96639505D01*
X131834119Y-96584358D01*
X131834124Y-96584356D01*
X131983345Y-96492315D01*
X132107315Y-96368345D01*
X132199356Y-96219124D01*
X132199358Y-96219119D01*
X132254505Y-96052697D01*
X132254506Y-96052690D01*
X132264999Y-95949986D01*
X132265000Y-95949973D01*
X132265000Y-95885000D01*
X132514592Y-95885000D01*
X132534201Y-96171680D01*
X132592666Y-96453034D01*
X132592667Y-96453037D01*
X132688894Y-96723793D01*
X132688893Y-96723793D01*
X132821098Y-96978935D01*
X132986812Y-97213700D01*
X133020103Y-97249345D01*
X133182947Y-97423708D01*
X133405853Y-97605055D01*
X133603675Y-97725354D01*
X133651382Y-97754365D01*
X133808668Y-97822683D01*
X133914942Y-97868844D01*
X134191642Y-97946371D01*
X134441920Y-97980771D01*
X134476321Y-97985500D01*
X134476322Y-97985500D01*
X134763679Y-97985500D01*
X134794370Y-97981281D01*
X135048358Y-97946371D01*
X135325058Y-97868844D01*
X135468052Y-97806733D01*
X135588617Y-97754365D01*
X135588620Y-97754363D01*
X135588625Y-97754361D01*
X135834147Y-97605055D01*
X136057053Y-97423708D01*
X136253189Y-97213698D01*
X136418901Y-96978936D01*
X136551104Y-96723797D01*
X136647334Y-96453032D01*
X136705798Y-96171686D01*
X136725408Y-95885000D01*
X136705798Y-95598314D01*
X136647334Y-95316968D01*
X136646508Y-95314645D01*
X136551105Y-95046206D01*
X136551106Y-95046206D01*
X136418901Y-94791064D01*
X136253187Y-94556299D01*
X136147984Y-94443655D01*
X136057053Y-94346292D01*
X135834147Y-94164945D01*
X135834146Y-94164944D01*
X135588617Y-94015634D01*
X135325063Y-93901158D01*
X135325061Y-93901157D01*
X135325058Y-93901156D01*
X135178169Y-93860000D01*
X135048364Y-93823630D01*
X135048359Y-93823629D01*
X135048358Y-93823629D01*
X134854090Y-93796927D01*
X134763679Y-93784500D01*
X134763678Y-93784500D01*
X134476322Y-93784500D01*
X134476321Y-93784500D01*
X134191642Y-93823629D01*
X134191635Y-93823630D01*
X133983861Y-93881845D01*
X133914942Y-93901156D01*
X133914939Y-93901156D01*
X133914936Y-93901158D01*
X133914935Y-93901158D01*
X133651382Y-94015634D01*
X133405853Y-94164944D01*
X133182950Y-94346289D01*
X132986812Y-94556299D01*
X132821098Y-94791064D01*
X132688894Y-95046206D01*
X132592667Y-95316962D01*
X132592666Y-95316965D01*
X132534201Y-95598319D01*
X132514592Y-95885000D01*
X132265000Y-95885000D01*
X132265000Y-95500000D01*
X131352500Y-95500000D01*
X130852500Y-95500000D01*
X129940001Y-95500000D01*
X129140500Y-95500000D01*
X129140499Y-95022950D01*
X129160183Y-94955912D01*
X129176813Y-94935275D01*
X129736542Y-94375546D01*
X129797863Y-94342063D01*
X129867555Y-94347047D01*
X129923488Y-94388919D01*
X129947905Y-94454383D01*
X129947579Y-94475831D01*
X129940000Y-94550011D01*
X129940000Y-95000000D01*
X130852500Y-95000000D01*
X130852500Y-93850000D01*
X131352500Y-93850000D01*
X131352500Y-95000000D01*
X132264999Y-95000000D01*
X132264999Y-94550028D01*
X132264998Y-94550013D01*
X132254505Y-94447302D01*
X132199358Y-94280880D01*
X132199356Y-94280875D01*
X132107315Y-94131654D01*
X131983345Y-94007684D01*
X131834124Y-93915643D01*
X131834119Y-93915641D01*
X131667697Y-93860494D01*
X131667690Y-93860493D01*
X131564986Y-93850000D01*
X131352500Y-93850000D01*
X130852500Y-93850000D01*
X130640029Y-93850000D01*
X130640007Y-93850002D01*
X130565829Y-93857579D01*
X130497137Y-93844809D01*
X130446253Y-93796927D01*
X130429333Y-93729137D01*
X130451750Y-93662961D01*
X130465541Y-93646547D01*
X134042271Y-90069819D01*
X134103594Y-90036334D01*
X134129952Y-90033500D01*
X136569257Y-90033500D01*
X136584877Y-90035224D01*
X136584904Y-90034939D01*
X136592660Y-90035671D01*
X136592667Y-90035673D01*
X136661814Y-90033500D01*
X136691350Y-90033500D01*
X136698228Y-90032630D01*
X136704041Y-90032172D01*
X136750627Y-90030709D01*
X136769869Y-90025117D01*
X136788912Y-90021174D01*
X136808792Y-90018664D01*
X136852122Y-90001507D01*
X136857646Y-89999617D01*
X136861396Y-89998527D01*
X136902390Y-89986618D01*
X136919629Y-89976422D01*
X136937103Y-89967862D01*
X136955727Y-89960488D01*
X136955727Y-89960487D01*
X136955732Y-89960486D01*
X136993449Y-89933082D01*
X136998305Y-89929892D01*
X137038420Y-89906170D01*
X137052589Y-89891999D01*
X137067379Y-89879368D01*
X137083587Y-89867594D01*
X137113299Y-89831676D01*
X137117212Y-89827376D01*
X138652771Y-88291819D01*
X138714094Y-88258334D01*
X138740452Y-88255500D01*
X139545611Y-88255500D01*
X139612650Y-88275185D01*
X139658405Y-88327989D01*
X139668349Y-88397147D01*
X139659168Y-88429308D01*
X139651282Y-88447286D01*
X139594753Y-88670515D01*
X139575738Y-88899994D01*
X139575738Y-88900005D01*
X139594753Y-89129484D01*
X139651282Y-89352714D01*
X139743782Y-89563594D01*
X139869728Y-89756370D01*
X139906526Y-89796343D01*
X140025692Y-89925792D01*
X140103842Y-89986618D01*
X140199063Y-90060732D01*
X140207411Y-90067229D01*
X140409931Y-90176828D01*
X140523025Y-90215653D01*
X140627725Y-90251597D01*
X140627727Y-90251597D01*
X140627729Y-90251598D01*
X140854863Y-90289500D01*
X140854864Y-90289500D01*
X141085136Y-90289500D01*
X141085137Y-90289500D01*
X141312271Y-90251598D01*
X141530069Y-90176828D01*
X141732589Y-90067229D01*
X141914308Y-89925792D01*
X142070269Y-89756373D01*
X142196217Y-89563595D01*
X142288717Y-89352716D01*
X142345246Y-89129488D01*
X142363418Y-88910185D01*
X142364262Y-88900005D01*
X142364262Y-88899994D01*
X142348868Y-88714226D01*
X142345246Y-88670512D01*
X142288717Y-88447284D01*
X142280831Y-88429307D01*
X142271931Y-88360008D01*
X142301908Y-88296896D01*
X142361248Y-88260011D01*
X142394389Y-88255500D01*
X152245611Y-88255500D01*
X152312650Y-88275185D01*
X152358405Y-88327989D01*
X152368349Y-88397147D01*
X152359168Y-88429308D01*
X152351282Y-88447286D01*
X152294753Y-88670515D01*
X152275738Y-88899994D01*
X152275738Y-88900005D01*
X152294753Y-89129484D01*
X152351282Y-89352714D01*
X152443782Y-89563594D01*
X152569728Y-89756370D01*
X152606526Y-89796343D01*
X152725692Y-89925792D01*
X152803842Y-89986618D01*
X152899063Y-90060732D01*
X152907411Y-90067229D01*
X153109931Y-90176828D01*
X153223025Y-90215653D01*
X153327725Y-90251597D01*
X153327727Y-90251597D01*
X153327729Y-90251598D01*
X153554863Y-90289500D01*
X153554864Y-90289500D01*
X153785136Y-90289500D01*
X153785137Y-90289500D01*
X154012271Y-90251598D01*
X154230069Y-90176828D01*
X154432589Y-90067229D01*
X154614308Y-89925792D01*
X154770269Y-89756373D01*
X154896217Y-89563595D01*
X154988717Y-89352716D01*
X155045246Y-89129488D01*
X155063418Y-88910185D01*
X155064262Y-88900005D01*
X155064262Y-88899994D01*
X155048868Y-88714226D01*
X155045246Y-88670512D01*
X154988717Y-88447284D01*
X154896217Y-88236405D01*
X154770271Y-88043629D01*
X154729070Y-87998873D01*
X154614308Y-87874208D01*
X154474668Y-87765522D01*
X154428541Y-87729620D01*
X154429525Y-87728354D01*
X154388824Y-87680670D01*
X154379396Y-87611439D01*
X154408893Y-87548102D01*
X154428865Y-87530796D01*
X154428541Y-87530380D01*
X154511652Y-87465692D01*
X154614308Y-87385792D01*
X154734272Y-87255475D01*
X154794157Y-87219487D01*
X154863995Y-87221587D01*
G37*
G04 #@! TD.AperFunction*
G04 #@! TA.AperFunction,Conductor*
G36*
X119477625Y-82897215D02*
G01*
X120024499Y-83444090D01*
X120547705Y-83967296D01*
X120581190Y-84028619D01*
X120580230Y-84085416D01*
X120544753Y-84225513D01*
X120525738Y-84454994D01*
X120525738Y-84455005D01*
X120544753Y-84684484D01*
X120601282Y-84907714D01*
X120693782Y-85118594D01*
X120819728Y-85311370D01*
X120857131Y-85352000D01*
X120975692Y-85480792D01*
X121005429Y-85503937D01*
X121161459Y-85625380D01*
X121160476Y-85626641D01*
X121201183Y-85674349D01*
X121210600Y-85743581D01*
X121181092Y-85806914D01*
X121161136Y-85824205D01*
X121161459Y-85824620D01*
X120975694Y-85969206D01*
X120975689Y-85969211D01*
X120819728Y-86138629D01*
X120693782Y-86331405D01*
X120601282Y-86542285D01*
X120544753Y-86765515D01*
X120525738Y-86994994D01*
X120525738Y-86995005D01*
X120544753Y-87224484D01*
X120601282Y-87447714D01*
X120693782Y-87658594D01*
X120819728Y-87851370D01*
X120819731Y-87851373D01*
X120975692Y-88020792D01*
X121026311Y-88060190D01*
X121155658Y-88160865D01*
X121157411Y-88162229D01*
X121359931Y-88271828D01*
X121418163Y-88291819D01*
X121577725Y-88346597D01*
X121577727Y-88346597D01*
X121577729Y-88346598D01*
X121804863Y-88384500D01*
X121804864Y-88384500D01*
X122035136Y-88384500D01*
X122035137Y-88384500D01*
X122262271Y-88346598D01*
X122480069Y-88271828D01*
X122682589Y-88162229D01*
X122864308Y-88020792D01*
X123020269Y-87851373D01*
X123146217Y-87658595D01*
X123238717Y-87447716D01*
X123295246Y-87224488D01*
X123310795Y-87036839D01*
X123314262Y-86995005D01*
X123314262Y-86994994D01*
X123298054Y-86799401D01*
X123295246Y-86765512D01*
X123238717Y-86542284D01*
X123146217Y-86331405D01*
X123135817Y-86315486D01*
X123020271Y-86138629D01*
X122988333Y-86103935D01*
X122864308Y-85969208D01*
X122682589Y-85827771D01*
X122682590Y-85827771D01*
X122678541Y-85824620D01*
X122679525Y-85823354D01*
X122638824Y-85775670D01*
X122629396Y-85706439D01*
X122658893Y-85643102D01*
X122678865Y-85625796D01*
X122678541Y-85625380D01*
X122715174Y-85596866D01*
X122864308Y-85480792D01*
X123020269Y-85311373D01*
X123146217Y-85118595D01*
X123238717Y-84907716D01*
X123295246Y-84684488D01*
X123311893Y-84483594D01*
X123312154Y-84480442D01*
X123337307Y-84415257D01*
X123393709Y-84374019D01*
X123463452Y-84369821D01*
X123523410Y-84403000D01*
X125649987Y-86529578D01*
X127769197Y-88648788D01*
X127779022Y-88661051D01*
X127779243Y-88660869D01*
X127784214Y-88666878D01*
X127809387Y-88690516D01*
X127834635Y-88714226D01*
X127855529Y-88735120D01*
X127861011Y-88739373D01*
X127865443Y-88743157D01*
X127899418Y-88775062D01*
X127916976Y-88784714D01*
X127933235Y-88795395D01*
X127949064Y-88807673D01*
X127991838Y-88826182D01*
X127997056Y-88828738D01*
X128037908Y-88851197D01*
X128057316Y-88856180D01*
X128075717Y-88862480D01*
X128094104Y-88870437D01*
X128137488Y-88877308D01*
X128140119Y-88877725D01*
X128145839Y-88878909D01*
X128190981Y-88890500D01*
X128211016Y-88890500D01*
X128230414Y-88892026D01*
X128250194Y-88895159D01*
X128250195Y-88895160D01*
X128250195Y-88895159D01*
X128250196Y-88895160D01*
X128296584Y-88890775D01*
X128302422Y-88890500D01*
X133153047Y-88890500D01*
X133220086Y-88910185D01*
X133265841Y-88962989D01*
X133275785Y-89032147D01*
X133246760Y-89095703D01*
X133240728Y-89102181D01*
X128529727Y-93813181D01*
X128468404Y-93846666D01*
X128442046Y-93849500D01*
X127514998Y-93849500D01*
X127514980Y-93849501D01*
X127412203Y-93860000D01*
X127412200Y-93860001D01*
X127245668Y-93915185D01*
X127245663Y-93915187D01*
X127096342Y-94007289D01*
X126972289Y-94131342D01*
X126880187Y-94280663D01*
X126880185Y-94280668D01*
X126866120Y-94323114D01*
X126825001Y-94447203D01*
X126825001Y-94447204D01*
X126825000Y-94447204D01*
X126814500Y-94549983D01*
X126814500Y-95477046D01*
X126794815Y-95544085D01*
X126778181Y-95564727D01*
X125818727Y-96524181D01*
X125757404Y-96557666D01*
X125731046Y-96560500D01*
X125690453Y-96560500D01*
X125623414Y-96540815D01*
X125602772Y-96524181D01*
X123690803Y-94612212D01*
X123680980Y-94599950D01*
X123680759Y-94600134D01*
X123675786Y-94594123D01*
X123625364Y-94546773D01*
X123614919Y-94536328D01*
X123604475Y-94525883D01*
X123598986Y-94521625D01*
X123594561Y-94517847D01*
X123560582Y-94485938D01*
X123560580Y-94485936D01*
X123560577Y-94485935D01*
X123543029Y-94476288D01*
X123526763Y-94465604D01*
X123510933Y-94453325D01*
X123468168Y-94434818D01*
X123462922Y-94432248D01*
X123422093Y-94409803D01*
X123422092Y-94409802D01*
X123402693Y-94404822D01*
X123384281Y-94398518D01*
X123365898Y-94390562D01*
X123365892Y-94390560D01*
X123319874Y-94383272D01*
X123314152Y-94382087D01*
X123269021Y-94370500D01*
X123261282Y-94369523D01*
X123261527Y-94367577D01*
X123204442Y-94350815D01*
X123165942Y-94311596D01*
X123165589Y-94311025D01*
X123157340Y-94297650D01*
X123035350Y-94175660D01*
X122888516Y-94085092D01*
X122724753Y-94030826D01*
X122724751Y-94030825D01*
X122623678Y-94020500D01*
X122025330Y-94020500D01*
X122025312Y-94020501D01*
X121924247Y-94030825D01*
X121760484Y-94085092D01*
X121760481Y-94085093D01*
X121613648Y-94175661D01*
X121499681Y-94289629D01*
X121438358Y-94323114D01*
X121368666Y-94318130D01*
X121324319Y-94289629D01*
X121210347Y-94175657D01*
X121183901Y-94159345D01*
X121137178Y-94107397D01*
X121125000Y-94053808D01*
X121125000Y-90610238D01*
X121126724Y-90594624D01*
X121126438Y-90594597D01*
X121127172Y-90586834D01*
X121125000Y-90517703D01*
X121125000Y-90488151D01*
X121125000Y-90488150D01*
X121124129Y-90481259D01*
X121123672Y-90475445D01*
X121122209Y-90428872D01*
X121116622Y-90409644D01*
X121112674Y-90390584D01*
X121110163Y-90370704D01*
X121093012Y-90327387D01*
X121091119Y-90321858D01*
X121078118Y-90277109D01*
X121078116Y-90277106D01*
X121067923Y-90259871D01*
X121059361Y-90242394D01*
X121051987Y-90223770D01*
X121050862Y-90222221D01*
X121024579Y-90186045D01*
X121021388Y-90181186D01*
X121018810Y-90176827D01*
X120999054Y-90143420D01*
X120997672Y-90141083D01*
X120997665Y-90141074D01*
X120983506Y-90126915D01*
X120970868Y-90112119D01*
X120964466Y-90103307D01*
X120959094Y-90095913D01*
X120924418Y-90067227D01*
X120923188Y-90066209D01*
X120918876Y-90062286D01*
X119704237Y-88847647D01*
X119670752Y-88786324D01*
X119672143Y-88727872D01*
X119699063Y-88627408D01*
X119719659Y-88392000D01*
X119699063Y-88156592D01*
X119647593Y-87964500D01*
X119637905Y-87928344D01*
X119637904Y-87928343D01*
X119637903Y-87928337D01*
X119538035Y-87714171D01*
X119532549Y-87706335D01*
X119402494Y-87520597D01*
X119235402Y-87353506D01*
X119235401Y-87353505D01*
X119049405Y-87223269D01*
X119005781Y-87168692D01*
X118998588Y-87099193D01*
X119030110Y-87036839D01*
X119049405Y-87020119D01*
X119235082Y-86890105D01*
X119402105Y-86723082D01*
X119537600Y-86529578D01*
X119637429Y-86315492D01*
X119637432Y-86315486D01*
X119694636Y-86102000D01*
X118797686Y-86102000D01*
X118823493Y-86061844D01*
X118864000Y-85923889D01*
X118864000Y-85780111D01*
X118823493Y-85642156D01*
X118797686Y-85602000D01*
X119694636Y-85602000D01*
X119694635Y-85601999D01*
X119637432Y-85388513D01*
X119637429Y-85388507D01*
X119537600Y-85174422D01*
X119537599Y-85174420D01*
X119402113Y-84980926D01*
X119402108Y-84980920D01*
X119235082Y-84813894D01*
X119041578Y-84678399D01*
X118827492Y-84578570D01*
X118827486Y-84578567D01*
X118614000Y-84521364D01*
X118614000Y-85416498D01*
X118506315Y-85367320D01*
X118399763Y-85352000D01*
X118328237Y-85352000D01*
X118221685Y-85367320D01*
X118114000Y-85416498D01*
X118114000Y-84521364D01*
X118113999Y-84521363D01*
X117970593Y-84559789D01*
X117900743Y-84558126D01*
X117842881Y-84518963D01*
X117815377Y-84454735D01*
X117814500Y-84440014D01*
X117814500Y-83019452D01*
X117834185Y-82952413D01*
X117850819Y-82931771D01*
X117861772Y-82920818D01*
X117923095Y-82887333D01*
X117949453Y-82884499D01*
X119261871Y-82884499D01*
X119261872Y-82884499D01*
X119321483Y-82878091D01*
X119346613Y-82868717D01*
X119416302Y-82863732D01*
X119477625Y-82897215D01*
G37*
G04 #@! TD.AperFunction*
G04 #@! TA.AperFunction,Conductor*
G36*
X181393894Y-93664342D02*
G01*
X181439707Y-93598914D01*
X181439708Y-93598912D01*
X181497342Y-93475317D01*
X181543514Y-93422877D01*
X181610707Y-93403725D01*
X181677589Y-93423941D01*
X181722106Y-93475317D01*
X181779858Y-93599167D01*
X181906868Y-93780555D01*
X182063445Y-93937132D01*
X182244833Y-94064142D01*
X182289905Y-94085159D01*
X182445513Y-94157720D01*
X182445515Y-94157720D01*
X182445520Y-94157723D01*
X182659409Y-94215035D01*
X182816974Y-94228820D01*
X182879998Y-94234334D01*
X182880000Y-94234334D01*
X182880001Y-94234334D01*
X182896877Y-94232857D01*
X182962603Y-94227107D01*
X183031102Y-94240873D01*
X183081285Y-94289488D01*
X183097219Y-94357517D01*
X183073844Y-94423361D01*
X183061091Y-94438316D01*
X181641228Y-95858181D01*
X181579905Y-95891666D01*
X181553547Y-95894500D01*
X178389481Y-95894500D01*
X178322442Y-95874815D01*
X178283942Y-95835596D01*
X178281478Y-95831601D01*
X178275340Y-95821650D01*
X178153350Y-95699660D01*
X178006516Y-95609092D01*
X177842753Y-95554826D01*
X177842751Y-95554825D01*
X177741678Y-95544500D01*
X177143330Y-95544500D01*
X177143312Y-95544501D01*
X177042247Y-95554825D01*
X176878484Y-95609092D01*
X176878481Y-95609093D01*
X176731648Y-95699661D01*
X176617681Y-95813629D01*
X176556358Y-95847114D01*
X176486666Y-95842130D01*
X176442319Y-95813629D01*
X176328351Y-95699661D01*
X176328350Y-95699660D01*
X176181516Y-95609092D01*
X176017753Y-95554826D01*
X176017751Y-95554825D01*
X175916678Y-95544500D01*
X175318330Y-95544500D01*
X175318312Y-95544501D01*
X175217247Y-95554825D01*
X175053484Y-95609092D01*
X175053481Y-95609093D01*
X174906648Y-95699661D01*
X174784660Y-95821649D01*
X174784659Y-95821651D01*
X174776058Y-95835596D01*
X174724110Y-95882321D01*
X174670519Y-95894500D01*
X173025089Y-95894500D01*
X172958050Y-95874815D01*
X172912295Y-95822011D01*
X172901731Y-95783102D01*
X172899839Y-95764591D01*
X172894999Y-95717203D01*
X172839814Y-95550666D01*
X172747712Y-95401344D01*
X172623656Y-95277288D01*
X172474334Y-95185186D01*
X172307797Y-95130001D01*
X172307795Y-95130000D01*
X172205016Y-95119500D01*
X171277953Y-95119500D01*
X171210914Y-95099815D01*
X171190272Y-95083181D01*
X171018303Y-94911212D01*
X171008480Y-94898950D01*
X171008259Y-94899134D01*
X171003286Y-94893123D01*
X170984659Y-94875631D01*
X170952864Y-94845773D01*
X170942419Y-94835328D01*
X170931975Y-94824883D01*
X170926486Y-94820625D01*
X170922061Y-94816847D01*
X170888082Y-94784938D01*
X170888080Y-94784936D01*
X170888077Y-94784935D01*
X170870529Y-94775288D01*
X170854263Y-94764604D01*
X170838433Y-94752325D01*
X170795668Y-94733818D01*
X170790422Y-94731248D01*
X170749593Y-94708803D01*
X170749592Y-94708802D01*
X170730193Y-94703822D01*
X170711781Y-94697518D01*
X170693398Y-94689562D01*
X170693392Y-94689560D01*
X170647374Y-94682272D01*
X170641652Y-94681087D01*
X170596521Y-94669500D01*
X170596519Y-94669500D01*
X170576484Y-94669500D01*
X170557086Y-94667973D01*
X170543631Y-94665842D01*
X170537305Y-94664840D01*
X170537304Y-94664840D01*
X170490916Y-94669225D01*
X170485078Y-94669500D01*
X164225243Y-94669500D01*
X164209622Y-94667775D01*
X164209595Y-94668061D01*
X164201833Y-94667326D01*
X164132672Y-94669500D01*
X164103149Y-94669500D01*
X164096278Y-94670367D01*
X164090459Y-94670825D01*
X164043874Y-94672289D01*
X164043868Y-94672290D01*
X164024626Y-94677880D01*
X164005587Y-94681823D01*
X163985717Y-94684334D01*
X163985703Y-94684337D01*
X163942383Y-94701488D01*
X163936858Y-94703380D01*
X163892113Y-94716380D01*
X163892110Y-94716381D01*
X163874866Y-94726579D01*
X163857405Y-94735133D01*
X163838774Y-94742510D01*
X163838762Y-94742517D01*
X163801070Y-94769902D01*
X163796187Y-94773109D01*
X163756080Y-94796829D01*
X163741914Y-94810995D01*
X163727124Y-94823627D01*
X163710914Y-94835404D01*
X163710911Y-94835407D01*
X163681210Y-94871309D01*
X163677277Y-94875631D01*
X163044727Y-95508181D01*
X162983404Y-95541666D01*
X162957046Y-95544500D01*
X162618331Y-95544500D01*
X162618312Y-95544501D01*
X162517247Y-95554825D01*
X162353484Y-95609092D01*
X162353481Y-95609093D01*
X162206650Y-95699660D01*
X162185630Y-95720680D01*
X162124306Y-95754164D01*
X162054614Y-95749178D01*
X162010269Y-95720678D01*
X160574814Y-94285223D01*
X160541329Y-94223900D01*
X160546313Y-94154208D01*
X160588185Y-94098275D01*
X160610084Y-94085164D01*
X160655167Y-94064142D01*
X160836555Y-93937132D01*
X160993132Y-93780555D01*
X161120142Y-93599167D01*
X161177618Y-93475907D01*
X161223790Y-93423468D01*
X161290983Y-93404316D01*
X161357864Y-93424531D01*
X161402381Y-93475907D01*
X161459858Y-93599167D01*
X161586868Y-93780555D01*
X161743445Y-93937132D01*
X161924833Y-94064142D01*
X161969905Y-94085159D01*
X162125513Y-94157720D01*
X162125515Y-94157720D01*
X162125520Y-94157723D01*
X162339409Y-94215035D01*
X162496974Y-94228820D01*
X162559998Y-94234334D01*
X162560000Y-94234334D01*
X162560002Y-94234334D01*
X162615147Y-94229509D01*
X162780591Y-94215035D01*
X162994480Y-94157723D01*
X163195167Y-94064142D01*
X163376555Y-93937132D01*
X163533132Y-93780555D01*
X163660142Y-93599167D01*
X163717618Y-93475907D01*
X163763790Y-93423468D01*
X163830983Y-93404316D01*
X163897864Y-93424531D01*
X163942381Y-93475907D01*
X163999858Y-93599167D01*
X164126868Y-93780555D01*
X164283445Y-93937132D01*
X164464833Y-94064142D01*
X164509905Y-94085159D01*
X164665513Y-94157720D01*
X164665515Y-94157720D01*
X164665520Y-94157723D01*
X164879409Y-94215035D01*
X165036974Y-94228820D01*
X165099998Y-94234334D01*
X165100000Y-94234334D01*
X165100002Y-94234334D01*
X165155147Y-94229509D01*
X165320591Y-94215035D01*
X165534480Y-94157723D01*
X165735167Y-94064142D01*
X165916555Y-93937132D01*
X166073132Y-93780555D01*
X166200142Y-93599167D01*
X166257618Y-93475907D01*
X166303790Y-93423468D01*
X166370983Y-93404316D01*
X166437864Y-93424531D01*
X166482381Y-93475907D01*
X166539858Y-93599167D01*
X166666868Y-93780555D01*
X166823445Y-93937132D01*
X167004833Y-94064142D01*
X167049905Y-94085159D01*
X167205513Y-94157720D01*
X167205515Y-94157720D01*
X167205520Y-94157723D01*
X167419409Y-94215035D01*
X167576974Y-94228820D01*
X167639998Y-94234334D01*
X167640000Y-94234334D01*
X167640002Y-94234334D01*
X167695147Y-94229509D01*
X167860591Y-94215035D01*
X168074480Y-94157723D01*
X168275167Y-94064142D01*
X168456555Y-93937132D01*
X168613132Y-93780555D01*
X168740142Y-93599167D01*
X168797618Y-93475907D01*
X168843790Y-93423468D01*
X168910983Y-93404316D01*
X168977864Y-93424531D01*
X169022381Y-93475907D01*
X169079858Y-93599167D01*
X169206868Y-93780555D01*
X169363445Y-93937132D01*
X169544833Y-94064142D01*
X169589905Y-94085159D01*
X169745513Y-94157720D01*
X169745515Y-94157720D01*
X169745520Y-94157723D01*
X169959409Y-94215035D01*
X170116974Y-94228820D01*
X170179998Y-94234334D01*
X170180000Y-94234334D01*
X170180002Y-94234334D01*
X170235147Y-94229509D01*
X170400591Y-94215035D01*
X170614480Y-94157723D01*
X170815167Y-94064142D01*
X170996555Y-93937132D01*
X171153132Y-93780555D01*
X171280142Y-93599167D01*
X171337618Y-93475907D01*
X171383790Y-93423468D01*
X171450983Y-93404316D01*
X171517864Y-93424531D01*
X171562381Y-93475907D01*
X171619858Y-93599167D01*
X171746868Y-93780555D01*
X171903445Y-93937132D01*
X172084833Y-94064142D01*
X172129905Y-94085159D01*
X172285513Y-94157720D01*
X172285515Y-94157720D01*
X172285520Y-94157723D01*
X172499409Y-94215035D01*
X172656974Y-94228820D01*
X172719998Y-94234334D01*
X172720000Y-94234334D01*
X172720002Y-94234334D01*
X172775147Y-94229509D01*
X172940591Y-94215035D01*
X173154480Y-94157723D01*
X173355167Y-94064142D01*
X173536555Y-93937132D01*
X173693132Y-93780555D01*
X173820142Y-93599167D01*
X173877618Y-93475907D01*
X173923790Y-93423468D01*
X173990983Y-93404316D01*
X174057864Y-93424531D01*
X174102381Y-93475907D01*
X174159858Y-93599167D01*
X174286868Y-93780555D01*
X174443445Y-93937132D01*
X174624833Y-94064142D01*
X174669905Y-94085159D01*
X174825513Y-94157720D01*
X174825515Y-94157720D01*
X174825520Y-94157723D01*
X175039409Y-94215035D01*
X175196974Y-94228820D01*
X175259998Y-94234334D01*
X175260000Y-94234334D01*
X175260002Y-94234334D01*
X175315147Y-94229509D01*
X175480591Y-94215035D01*
X175694480Y-94157723D01*
X175895167Y-94064142D01*
X176076555Y-93937132D01*
X176233132Y-93780555D01*
X176360142Y-93599167D01*
X176417618Y-93475907D01*
X176463790Y-93423468D01*
X176530983Y-93404316D01*
X176597864Y-93424531D01*
X176642381Y-93475907D01*
X176699858Y-93599167D01*
X176826868Y-93780555D01*
X176983445Y-93937132D01*
X177164833Y-94064142D01*
X177209905Y-94085159D01*
X177365513Y-94157720D01*
X177365515Y-94157720D01*
X177365520Y-94157723D01*
X177579409Y-94215035D01*
X177736974Y-94228820D01*
X177799998Y-94234334D01*
X177800000Y-94234334D01*
X177800002Y-94234334D01*
X177855147Y-94229509D01*
X178020591Y-94215035D01*
X178234480Y-94157723D01*
X178435167Y-94064142D01*
X178616555Y-93937132D01*
X178773132Y-93780555D01*
X178900142Y-93599167D01*
X178957895Y-93475312D01*
X179004064Y-93422878D01*
X179071258Y-93403725D01*
X179138139Y-93423940D01*
X179182657Y-93475316D01*
X179240295Y-93598919D01*
X179286103Y-93664341D01*
X179286105Y-93664342D01*
X179848866Y-93101580D01*
X179871318Y-93178040D01*
X179950605Y-93301413D01*
X180061438Y-93397451D01*
X180194839Y-93458373D01*
X180198633Y-93458918D01*
X179639656Y-94017894D01*
X179705083Y-94063706D01*
X179705085Y-94063707D01*
X179905690Y-94157250D01*
X179905699Y-94157254D01*
X180119490Y-94214538D01*
X180119500Y-94214540D01*
X180339999Y-94233832D01*
X180340001Y-94233832D01*
X180560499Y-94214540D01*
X180560509Y-94214538D01*
X180774300Y-94157254D01*
X180774309Y-94157250D01*
X180974915Y-94063706D01*
X181040342Y-94017894D01*
X180481366Y-93458918D01*
X180485161Y-93458373D01*
X180618562Y-93397451D01*
X180729395Y-93301413D01*
X180808682Y-93178040D01*
X180831133Y-93101580D01*
X181393894Y-93664342D01*
G37*
G04 #@! TD.AperFunction*
G04 #@! TA.AperFunction,Conductor*
G36*
X104732855Y-94646546D02*
G01*
X104749575Y-94665842D01*
X104879501Y-94851396D01*
X104879506Y-94851402D01*
X105046597Y-95018493D01*
X105046603Y-95018498D01*
X105232158Y-95148425D01*
X105275783Y-95203002D01*
X105282977Y-95272500D01*
X105251454Y-95334855D01*
X105232158Y-95351575D01*
X105046597Y-95481505D01*
X104879505Y-95648597D01*
X104853880Y-95685193D01*
X104799303Y-95728816D01*
X104729804Y-95736008D01*
X104667450Y-95704484D01*
X104636125Y-95657400D01*
X104583354Y-95515913D01*
X104583350Y-95515906D01*
X104497190Y-95400812D01*
X104497187Y-95400809D01*
X104382093Y-95314649D01*
X104382086Y-95314645D01*
X104240599Y-95261874D01*
X104184665Y-95220003D01*
X104160248Y-95154538D01*
X104175100Y-95086265D01*
X104212809Y-95044117D01*
X104243037Y-95022951D01*
X104249401Y-95018495D01*
X104416495Y-94851401D01*
X104543000Y-94670734D01*
X104546425Y-94665842D01*
X104601002Y-94622217D01*
X104670500Y-94615023D01*
X104732855Y-94646546D01*
G37*
G04 #@! TD.AperFunction*
G04 #@! TA.AperFunction,Conductor*
G36*
X178826587Y-87259185D02*
G01*
X178847229Y-87275819D01*
X183061092Y-91489683D01*
X183094577Y-91551006D01*
X183089593Y-91620698D01*
X183047721Y-91676631D01*
X182982257Y-91701048D01*
X182962605Y-91700892D01*
X182880004Y-91693666D01*
X182879998Y-91693666D01*
X182659414Y-91712964D01*
X182659407Y-91712965D01*
X182445524Y-91770275D01*
X182445513Y-91770279D01*
X182244836Y-91863856D01*
X182244834Y-91863857D01*
X182063444Y-91990868D01*
X181906868Y-92147444D01*
X181779857Y-92328833D01*
X181722106Y-92452683D01*
X181675934Y-92505122D01*
X181608740Y-92524274D01*
X181541859Y-92504058D01*
X181497342Y-92452683D01*
X181439707Y-92329085D01*
X181439706Y-92329083D01*
X181393894Y-92263657D01*
X181393894Y-92263656D01*
X180831132Y-92826418D01*
X180808682Y-92749960D01*
X180729395Y-92626587D01*
X180618562Y-92530549D01*
X180485161Y-92469627D01*
X180481366Y-92469081D01*
X181040342Y-91910105D01*
X181040341Y-91910103D01*
X180974919Y-91864295D01*
X180774309Y-91770749D01*
X180774300Y-91770745D01*
X180560509Y-91713461D01*
X180560499Y-91713459D01*
X180340001Y-91694168D01*
X180339999Y-91694168D01*
X180119500Y-91713459D01*
X180119490Y-91713461D01*
X179905699Y-91770745D01*
X179905690Y-91770749D01*
X179705084Y-91864293D01*
X179639657Y-91910104D01*
X180198634Y-92469081D01*
X180194839Y-92469627D01*
X180061438Y-92530549D01*
X179950605Y-92626587D01*
X179871318Y-92749960D01*
X179848866Y-92826419D01*
X179286104Y-92263657D01*
X179240293Y-92329084D01*
X179182657Y-92452683D01*
X179136484Y-92505122D01*
X179069290Y-92524274D01*
X179002409Y-92504058D01*
X178957893Y-92452682D01*
X178900142Y-92328833D01*
X178773132Y-92147445D01*
X178616555Y-91990868D01*
X178435167Y-91863858D01*
X178362292Y-91829876D01*
X178234486Y-91770279D01*
X178234475Y-91770275D01*
X178020592Y-91712965D01*
X178020585Y-91712964D01*
X177800002Y-91693666D01*
X177799998Y-91693666D01*
X177579414Y-91712964D01*
X177579407Y-91712965D01*
X177365524Y-91770275D01*
X177365513Y-91770279D01*
X177164836Y-91863856D01*
X177164834Y-91863857D01*
X176983444Y-91990868D01*
X176826868Y-92147444D01*
X176699857Y-92328834D01*
X176699856Y-92328836D01*
X176642382Y-92452091D01*
X176596210Y-92504531D01*
X176529017Y-92523683D01*
X176462135Y-92503467D01*
X176417618Y-92452091D01*
X176389050Y-92390828D01*
X176360142Y-92328833D01*
X176233132Y-92147445D01*
X176076555Y-91990868D01*
X175895167Y-91863858D01*
X175822292Y-91829876D01*
X175694486Y-91770279D01*
X175694475Y-91770275D01*
X175480592Y-91712965D01*
X175480585Y-91712964D01*
X175260002Y-91693666D01*
X175259998Y-91693666D01*
X175039414Y-91712964D01*
X175039407Y-91712965D01*
X174825524Y-91770275D01*
X174825513Y-91770279D01*
X174624836Y-91863856D01*
X174624834Y-91863857D01*
X174443444Y-91990868D01*
X174286868Y-92147444D01*
X174159857Y-92328834D01*
X174159856Y-92328836D01*
X174102382Y-92452091D01*
X174056210Y-92504531D01*
X173989017Y-92523683D01*
X173922135Y-92503467D01*
X173877618Y-92452091D01*
X173849050Y-92390828D01*
X173820142Y-92328833D01*
X173693132Y-92147445D01*
X173536555Y-91990868D01*
X173355167Y-91863858D01*
X173282292Y-91829876D01*
X173154486Y-91770279D01*
X173154475Y-91770275D01*
X172940592Y-91712965D01*
X172940585Y-91712964D01*
X172720002Y-91693666D01*
X172719998Y-91693666D01*
X172499414Y-91712964D01*
X172499407Y-91712965D01*
X172285524Y-91770275D01*
X172285513Y-91770279D01*
X172084836Y-91863856D01*
X172084834Y-91863857D01*
X171903444Y-91990868D01*
X171746868Y-92147444D01*
X171619857Y-92328834D01*
X171619856Y-92328836D01*
X171562382Y-92452091D01*
X171516210Y-92504531D01*
X171449017Y-92523683D01*
X171382135Y-92503467D01*
X171337618Y-92452091D01*
X171309050Y-92390828D01*
X171280142Y-92328833D01*
X171153132Y-92147445D01*
X170996555Y-91990868D01*
X170815167Y-91863858D01*
X170742292Y-91829876D01*
X170614486Y-91770279D01*
X170614475Y-91770275D01*
X170400592Y-91712965D01*
X170400585Y-91712964D01*
X170180002Y-91693666D01*
X170179998Y-91693666D01*
X169959414Y-91712964D01*
X169959407Y-91712965D01*
X169745524Y-91770275D01*
X169745513Y-91770279D01*
X169544836Y-91863856D01*
X169544834Y-91863857D01*
X169363444Y-91990868D01*
X169206868Y-92147444D01*
X169079857Y-92328834D01*
X169079856Y-92328836D01*
X169022382Y-92452091D01*
X168976210Y-92504531D01*
X168909017Y-92523683D01*
X168842135Y-92503467D01*
X168797618Y-92452091D01*
X168769050Y-92390828D01*
X168740142Y-92328833D01*
X168613132Y-92147445D01*
X168456555Y-91990868D01*
X168275167Y-91863858D01*
X168202292Y-91829876D01*
X168074486Y-91770279D01*
X168074475Y-91770275D01*
X167860592Y-91712965D01*
X167860585Y-91712964D01*
X167640002Y-91693666D01*
X167639998Y-91693666D01*
X167419414Y-91712964D01*
X167419407Y-91712965D01*
X167205524Y-91770275D01*
X167205513Y-91770279D01*
X167004836Y-91863856D01*
X167004834Y-91863857D01*
X166823444Y-91990868D01*
X166666868Y-92147444D01*
X166539857Y-92328834D01*
X166539856Y-92328836D01*
X166482382Y-92452091D01*
X166436210Y-92504531D01*
X166369017Y-92523683D01*
X166302135Y-92503467D01*
X166257618Y-92452091D01*
X166229050Y-92390828D01*
X166200142Y-92328833D01*
X166073132Y-92147445D01*
X165916555Y-91990868D01*
X165735167Y-91863858D01*
X165662292Y-91829876D01*
X165534486Y-91770279D01*
X165534475Y-91770275D01*
X165320592Y-91712965D01*
X165320585Y-91712964D01*
X165100002Y-91693666D01*
X165099998Y-91693666D01*
X164879414Y-91712964D01*
X164879407Y-91712965D01*
X164665524Y-91770275D01*
X164665513Y-91770279D01*
X164464836Y-91863856D01*
X164464834Y-91863857D01*
X164283444Y-91990868D01*
X164126868Y-92147444D01*
X163999857Y-92328834D01*
X163999856Y-92328836D01*
X163942382Y-92452091D01*
X163896210Y-92504531D01*
X163829017Y-92523683D01*
X163762135Y-92503467D01*
X163717618Y-92452091D01*
X163689050Y-92390828D01*
X163660142Y-92328833D01*
X163533132Y-92147445D01*
X163376555Y-91990868D01*
X163195167Y-91863858D01*
X163122292Y-91829876D01*
X162994486Y-91770279D01*
X162994475Y-91770275D01*
X162780592Y-91712965D01*
X162780585Y-91712964D01*
X162560002Y-91693666D01*
X162559998Y-91693666D01*
X162339414Y-91712964D01*
X162339407Y-91712965D01*
X162125524Y-91770275D01*
X162125513Y-91770279D01*
X161924836Y-91863856D01*
X161924834Y-91863857D01*
X161743444Y-91990868D01*
X161586868Y-92147444D01*
X161459857Y-92328834D01*
X161459856Y-92328836D01*
X161402382Y-92452091D01*
X161356210Y-92504531D01*
X161289017Y-92523683D01*
X161222135Y-92503467D01*
X161177618Y-92452091D01*
X161149050Y-92390828D01*
X161120142Y-92328833D01*
X160993132Y-92147445D01*
X160836555Y-91990868D01*
X160655167Y-91863858D01*
X160582292Y-91829876D01*
X160454486Y-91770279D01*
X160454475Y-91770275D01*
X160240592Y-91712965D01*
X160240585Y-91712964D01*
X160020002Y-91693666D01*
X160019998Y-91693666D01*
X159799414Y-91712964D01*
X159799407Y-91712965D01*
X159585524Y-91770275D01*
X159585512Y-91770279D01*
X159551902Y-91785952D01*
X159482824Y-91796443D01*
X159419041Y-91767921D01*
X159380803Y-91709444D01*
X159375500Y-91673569D01*
X159375500Y-90886342D01*
X159377224Y-90870728D01*
X159376938Y-90870701D01*
X159377672Y-90862938D01*
X159375500Y-90793807D01*
X159375500Y-90764255D01*
X159375500Y-90764254D01*
X159374629Y-90757363D01*
X159374172Y-90751549D01*
X159372709Y-90704976D01*
X159367122Y-90685748D01*
X159363174Y-90666688D01*
X159360663Y-90646808D01*
X159343512Y-90603491D01*
X159341619Y-90597962D01*
X159328618Y-90553213D01*
X159328616Y-90553210D01*
X159318423Y-90535975D01*
X159309861Y-90518498D01*
X159302487Y-90499874D01*
X159285681Y-90476742D01*
X159262202Y-90410936D01*
X159262000Y-90403858D01*
X159262000Y-89589501D01*
X159369685Y-89638680D01*
X159476237Y-89654000D01*
X159547763Y-89654000D01*
X159654315Y-89638680D01*
X159762000Y-89589501D01*
X159762000Y-90484633D01*
X159975483Y-90427433D01*
X159975492Y-90427429D01*
X160189578Y-90327600D01*
X160383082Y-90192105D01*
X160550105Y-90025082D01*
X160685600Y-89831578D01*
X160785429Y-89617492D01*
X160785432Y-89617486D01*
X160842636Y-89404000D01*
X159945686Y-89404000D01*
X159971493Y-89363844D01*
X160012000Y-89225889D01*
X160012000Y-89082111D01*
X159971493Y-88944156D01*
X159945686Y-88904000D01*
X160842636Y-88904000D01*
X160842635Y-88903999D01*
X160785432Y-88690513D01*
X160785429Y-88690507D01*
X160685600Y-88476422D01*
X160685599Y-88476420D01*
X160550113Y-88282926D01*
X160550108Y-88282920D01*
X160428053Y-88160865D01*
X160394568Y-88099542D01*
X160399552Y-88029850D01*
X160441424Y-87973917D01*
X160472400Y-87957002D01*
X160604331Y-87907796D01*
X160719546Y-87821546D01*
X160805796Y-87706331D01*
X160856091Y-87571483D01*
X160862500Y-87511873D01*
X160862500Y-87363500D01*
X160882185Y-87296461D01*
X160934989Y-87250706D01*
X160986500Y-87239500D01*
X178759548Y-87239500D01*
X178826587Y-87259185D01*
G37*
G04 #@! TD.AperFunction*
G04 #@! TA.AperFunction,Conductor*
G36*
X165233138Y-66440685D02*
G01*
X165278893Y-66493489D01*
X165288837Y-66562647D01*
X165259812Y-66626203D01*
X165231196Y-66650539D01*
X165146654Y-66702684D01*
X165022684Y-66826654D01*
X164930643Y-66975875D01*
X164930641Y-66975880D01*
X164875494Y-67142302D01*
X164875493Y-67142309D01*
X164865000Y-67245013D01*
X164865000Y-67695000D01*
X167189999Y-67695000D01*
X167189999Y-67245028D01*
X167189998Y-67245013D01*
X167179505Y-67142302D01*
X167124358Y-66975880D01*
X167124356Y-66975875D01*
X167032315Y-66826654D01*
X166908345Y-66702684D01*
X166823804Y-66650539D01*
X166777080Y-66598591D01*
X166765857Y-66529628D01*
X166793701Y-66465546D01*
X166851769Y-66426690D01*
X166888901Y-66421000D01*
X173684638Y-66421000D01*
X173751677Y-66440685D01*
X173772319Y-66457319D01*
X184113681Y-76798681D01*
X184147166Y-76860004D01*
X184150000Y-76886362D01*
X184150000Y-90510047D01*
X184130315Y-90577086D01*
X184077511Y-90622841D01*
X184008353Y-90632785D01*
X183944797Y-90603760D01*
X183938319Y-90597728D01*
X179570803Y-86230212D01*
X179560980Y-86217950D01*
X179560759Y-86218134D01*
X179555786Y-86212123D01*
X179552474Y-86209013D01*
X179505364Y-86164773D01*
X179490747Y-86150156D01*
X179484475Y-86143883D01*
X179478986Y-86139625D01*
X179474561Y-86135847D01*
X179440582Y-86103938D01*
X179440580Y-86103936D01*
X179440577Y-86103935D01*
X179423029Y-86094288D01*
X179406763Y-86083604D01*
X179390936Y-86071327D01*
X179390935Y-86071326D01*
X179390933Y-86071325D01*
X179348168Y-86052818D01*
X179342922Y-86050248D01*
X179302093Y-86027803D01*
X179302092Y-86027802D01*
X179282693Y-86022822D01*
X179264281Y-86016518D01*
X179245898Y-86008562D01*
X179245892Y-86008560D01*
X179199874Y-86001272D01*
X179194152Y-86000087D01*
X179149021Y-85988500D01*
X179149019Y-85988500D01*
X179128984Y-85988500D01*
X179109586Y-85986973D01*
X179102162Y-85985797D01*
X179089805Y-85983840D01*
X179089804Y-85983840D01*
X179043416Y-85988225D01*
X179037578Y-85988500D01*
X160986499Y-85988500D01*
X160919460Y-85968815D01*
X160873705Y-85916011D01*
X160862499Y-85864500D01*
X160862499Y-85716129D01*
X160862498Y-85716123D01*
X160862497Y-85716116D01*
X160856091Y-85656517D01*
X160843302Y-85622229D01*
X160805797Y-85521671D01*
X160805793Y-85521664D01*
X160719547Y-85406455D01*
X160719544Y-85406452D01*
X160604335Y-85320206D01*
X160604328Y-85320202D01*
X160472917Y-85271189D01*
X160416983Y-85229318D01*
X160392566Y-85163853D01*
X160407418Y-85095580D01*
X160428563Y-85067332D01*
X160550495Y-84945401D01*
X160686035Y-84751830D01*
X160785903Y-84537663D01*
X160847063Y-84309408D01*
X160867659Y-84074000D01*
X160847063Y-83838592D01*
X160785903Y-83610337D01*
X160686035Y-83396171D01*
X160665809Y-83367284D01*
X160550494Y-83202597D01*
X160383402Y-83035506D01*
X160383396Y-83035501D01*
X160197842Y-82905575D01*
X160154217Y-82850998D01*
X160147023Y-82781500D01*
X160178546Y-82719145D01*
X160197842Y-82702425D01*
X160272655Y-82650040D01*
X160383401Y-82572495D01*
X160550495Y-82405401D01*
X160686035Y-82211830D01*
X160785903Y-81997663D01*
X160847063Y-81769408D01*
X160867659Y-81534000D01*
X160847063Y-81298592D01*
X160785903Y-81070337D01*
X160686035Y-80856171D01*
X160665809Y-80827284D01*
X160550494Y-80662597D01*
X160383402Y-80495506D01*
X160383396Y-80495501D01*
X160197842Y-80365575D01*
X160154217Y-80310998D01*
X160147023Y-80241500D01*
X160178546Y-80179145D01*
X160197842Y-80162425D01*
X160220026Y-80146891D01*
X160383401Y-80032495D01*
X160550495Y-79865401D01*
X160686035Y-79671830D01*
X160785903Y-79457663D01*
X160847063Y-79229408D01*
X160867659Y-78994000D01*
X160847063Y-78758592D01*
X160800626Y-78585285D01*
X160785905Y-78530344D01*
X160785904Y-78530343D01*
X160785903Y-78530337D01*
X160686035Y-78316171D01*
X160665809Y-78287284D01*
X160550494Y-78122597D01*
X160383402Y-77955506D01*
X160383396Y-77955501D01*
X160197842Y-77825575D01*
X160154217Y-77770998D01*
X160147023Y-77701500D01*
X160178546Y-77639145D01*
X160197842Y-77622425D01*
X160244865Y-77589499D01*
X160383401Y-77492495D01*
X160550495Y-77325401D01*
X160686035Y-77131830D01*
X160785903Y-76917663D01*
X160847063Y-76689408D01*
X160867659Y-76454000D01*
X160847063Y-76218592D01*
X160785903Y-75990337D01*
X160686035Y-75776171D01*
X160665809Y-75747284D01*
X160550494Y-75582597D01*
X160383402Y-75415506D01*
X160383395Y-75415501D01*
X160189834Y-75279967D01*
X160189830Y-75279965D01*
X160153712Y-75263123D01*
X159975663Y-75180097D01*
X159975659Y-75180096D01*
X159975655Y-75180094D01*
X159747413Y-75118938D01*
X159747403Y-75118936D01*
X159512001Y-75098341D01*
X159511999Y-75098341D01*
X159276596Y-75118936D01*
X159276586Y-75118938D01*
X159048344Y-75180094D01*
X159048335Y-75180098D01*
X158834171Y-75279964D01*
X158834169Y-75279965D01*
X158640597Y-75415505D01*
X158473505Y-75582597D01*
X158337965Y-75776169D01*
X158337964Y-75776171D01*
X158238098Y-75990335D01*
X158238094Y-75990344D01*
X158176938Y-76218586D01*
X158176936Y-76218596D01*
X158156341Y-76453999D01*
X158156341Y-76454388D01*
X158156292Y-76454553D01*
X158155869Y-76459394D01*
X158154896Y-76459308D01*
X158136656Y-76521427D01*
X158083852Y-76567182D01*
X158014694Y-76577126D01*
X157951138Y-76548101D01*
X157944660Y-76542069D01*
X155601819Y-74199228D01*
X155568334Y-74137905D01*
X155565500Y-74111547D01*
X155565500Y-73815460D01*
X155585185Y-73748421D01*
X155618374Y-73713887D01*
X155756555Y-73617132D01*
X155913132Y-73460555D01*
X156040142Y-73279167D01*
X156097618Y-73155907D01*
X156143790Y-73103468D01*
X156210983Y-73084316D01*
X156277864Y-73104531D01*
X156322381Y-73155907D01*
X156379858Y-73279167D01*
X156506868Y-73460555D01*
X156663445Y-73617132D01*
X156844833Y-73744142D01*
X156896988Y-73768462D01*
X157045513Y-73837720D01*
X157045515Y-73837720D01*
X157045520Y-73837723D01*
X157259409Y-73895035D01*
X157416974Y-73908820D01*
X157479998Y-73914334D01*
X157480000Y-73914334D01*
X157480002Y-73914334D01*
X157535147Y-73909509D01*
X157700591Y-73895035D01*
X157914480Y-73837723D01*
X158115167Y-73744142D01*
X158296555Y-73617132D01*
X158453132Y-73460555D01*
X158580142Y-73279167D01*
X158637618Y-73155907D01*
X158683790Y-73103468D01*
X158750983Y-73084316D01*
X158817864Y-73104531D01*
X158862381Y-73155907D01*
X158919858Y-73279167D01*
X159046868Y-73460555D01*
X159203445Y-73617132D01*
X159384833Y-73744142D01*
X159436988Y-73768462D01*
X159585513Y-73837720D01*
X159585515Y-73837720D01*
X159585520Y-73837723D01*
X159799409Y-73895035D01*
X159956974Y-73908820D01*
X160019998Y-73914334D01*
X160020000Y-73914334D01*
X160020002Y-73914334D01*
X160075147Y-73909509D01*
X160240591Y-73895035D01*
X160454480Y-73837723D01*
X160655167Y-73744142D01*
X160836555Y-73617132D01*
X160993132Y-73460555D01*
X161120142Y-73279167D01*
X161177618Y-73155907D01*
X161223790Y-73103468D01*
X161290983Y-73084316D01*
X161357864Y-73104531D01*
X161402381Y-73155907D01*
X161459858Y-73279167D01*
X161586868Y-73460555D01*
X161743445Y-73617132D01*
X161924833Y-73744142D01*
X161976988Y-73768462D01*
X162125513Y-73837720D01*
X162125515Y-73837720D01*
X162125520Y-73837723D01*
X162339409Y-73895035D01*
X162496974Y-73908820D01*
X162559998Y-73914334D01*
X162560000Y-73914334D01*
X162560002Y-73914334D01*
X162615147Y-73909509D01*
X162780591Y-73895035D01*
X162994480Y-73837723D01*
X163195167Y-73744142D01*
X163376555Y-73617132D01*
X163533132Y-73460555D01*
X163660142Y-73279167D01*
X163717618Y-73155907D01*
X163763790Y-73103468D01*
X163830983Y-73084316D01*
X163897864Y-73104531D01*
X163942381Y-73155907D01*
X163999858Y-73279167D01*
X164126868Y-73460555D01*
X164283445Y-73617132D01*
X164464833Y-73744142D01*
X164516988Y-73768462D01*
X164665513Y-73837720D01*
X164665515Y-73837720D01*
X164665520Y-73837723D01*
X164879409Y-73895035D01*
X165036974Y-73908820D01*
X165099998Y-73914334D01*
X165100000Y-73914334D01*
X165100002Y-73914334D01*
X165155147Y-73909509D01*
X165320591Y-73895035D01*
X165534480Y-73837723D01*
X165735167Y-73744142D01*
X165916555Y-73617132D01*
X166073132Y-73460555D01*
X166200142Y-73279167D01*
X166257618Y-73155907D01*
X166303790Y-73103468D01*
X166370983Y-73084316D01*
X166437864Y-73104531D01*
X166482381Y-73155907D01*
X166539858Y-73279167D01*
X166666868Y-73460555D01*
X166823445Y-73617132D01*
X167004833Y-73744142D01*
X167056988Y-73768462D01*
X167205513Y-73837720D01*
X167205515Y-73837720D01*
X167205520Y-73837723D01*
X167419409Y-73895035D01*
X167576974Y-73908820D01*
X167639998Y-73914334D01*
X167640000Y-73914334D01*
X167640002Y-73914334D01*
X167695147Y-73909509D01*
X167860591Y-73895035D01*
X168074480Y-73837723D01*
X168275167Y-73744142D01*
X168456555Y-73617132D01*
X168613132Y-73460555D01*
X168740142Y-73279167D01*
X168797618Y-73155907D01*
X168843790Y-73103468D01*
X168910983Y-73084316D01*
X168977864Y-73104531D01*
X169022381Y-73155907D01*
X169079858Y-73279167D01*
X169206868Y-73460555D01*
X169363445Y-73617132D01*
X169544833Y-73744142D01*
X169596988Y-73768462D01*
X169745513Y-73837720D01*
X169745515Y-73837720D01*
X169745520Y-73837723D01*
X169959409Y-73895035D01*
X170116974Y-73908820D01*
X170179998Y-73914334D01*
X170180000Y-73914334D01*
X170180002Y-73914334D01*
X170235147Y-73909509D01*
X170400591Y-73895035D01*
X170614480Y-73837723D01*
X170815167Y-73744142D01*
X170996555Y-73617132D01*
X171153132Y-73460555D01*
X171280142Y-73279167D01*
X171337618Y-73155907D01*
X171383790Y-73103468D01*
X171450983Y-73084316D01*
X171517864Y-73104531D01*
X171562381Y-73155907D01*
X171619858Y-73279167D01*
X171746868Y-73460555D01*
X171903445Y-73617132D01*
X172084833Y-73744142D01*
X172136988Y-73768462D01*
X172285513Y-73837720D01*
X172285515Y-73837720D01*
X172285520Y-73837723D01*
X172499409Y-73895035D01*
X172656974Y-73908820D01*
X172719998Y-73914334D01*
X172720000Y-73914334D01*
X172720002Y-73914334D01*
X172775147Y-73909509D01*
X172940591Y-73895035D01*
X173154480Y-73837723D01*
X173355167Y-73744142D01*
X173536555Y-73617132D01*
X173693132Y-73460555D01*
X173820142Y-73279167D01*
X173877618Y-73155907D01*
X173923790Y-73103468D01*
X173990983Y-73084316D01*
X174057864Y-73104531D01*
X174102381Y-73155907D01*
X174159858Y-73279167D01*
X174286868Y-73460555D01*
X174443445Y-73617132D01*
X174624833Y-73744142D01*
X174676988Y-73768462D01*
X174825513Y-73837720D01*
X174825515Y-73837720D01*
X174825520Y-73837723D01*
X175039409Y-73895035D01*
X175196974Y-73908820D01*
X175259998Y-73914334D01*
X175260000Y-73914334D01*
X175260002Y-73914334D01*
X175315147Y-73909509D01*
X175480591Y-73895035D01*
X175694480Y-73837723D01*
X175895167Y-73744142D01*
X176076555Y-73617132D01*
X176233132Y-73460555D01*
X176360142Y-73279167D01*
X176417618Y-73155907D01*
X176463790Y-73103468D01*
X176530983Y-73084316D01*
X176597864Y-73104531D01*
X176642381Y-73155907D01*
X176699858Y-73279167D01*
X176826868Y-73460555D01*
X176983445Y-73617132D01*
X177164833Y-73744142D01*
X177216988Y-73768462D01*
X177365513Y-73837720D01*
X177365515Y-73837720D01*
X177365520Y-73837723D01*
X177579409Y-73895035D01*
X177736974Y-73908820D01*
X177799998Y-73914334D01*
X177800000Y-73914334D01*
X177800002Y-73914334D01*
X177855147Y-73909509D01*
X178020591Y-73895035D01*
X178234480Y-73837723D01*
X178435167Y-73744142D01*
X178616555Y-73617132D01*
X178773132Y-73460555D01*
X178900142Y-73279167D01*
X178993723Y-73078480D01*
X179051035Y-72864591D01*
X179070334Y-72644000D01*
X179051035Y-72423409D01*
X178993723Y-72209520D01*
X178981574Y-72183467D01*
X178929592Y-72071989D01*
X178900142Y-72008833D01*
X178773132Y-71827445D01*
X178616555Y-71670868D01*
X178435167Y-71543858D01*
X178429975Y-71541437D01*
X178234486Y-71450279D01*
X178234475Y-71450275D01*
X178020592Y-71392965D01*
X178020585Y-71392964D01*
X177800002Y-71373666D01*
X177799998Y-71373666D01*
X177579414Y-71392964D01*
X177579407Y-71392965D01*
X177365524Y-71450275D01*
X177365513Y-71450279D01*
X177164836Y-71543856D01*
X177164834Y-71543857D01*
X176983444Y-71670868D01*
X176826868Y-71827444D01*
X176699857Y-72008834D01*
X176699856Y-72008836D01*
X176642382Y-72132091D01*
X176596210Y-72184531D01*
X176529017Y-72203683D01*
X176462135Y-72183467D01*
X176417618Y-72132091D01*
X176380447Y-72052377D01*
X176360142Y-72008833D01*
X176233132Y-71827445D01*
X176076555Y-71670868D01*
X175895167Y-71543858D01*
X175889975Y-71541437D01*
X175694486Y-71450279D01*
X175694475Y-71450275D01*
X175480592Y-71392965D01*
X175480585Y-71392964D01*
X175260002Y-71373666D01*
X175259998Y-71373666D01*
X175039414Y-71392964D01*
X175039407Y-71392965D01*
X174825524Y-71450275D01*
X174825513Y-71450279D01*
X174624836Y-71543856D01*
X174624834Y-71543857D01*
X174443444Y-71670868D01*
X174286868Y-71827444D01*
X174159857Y-72008834D01*
X174159856Y-72008836D01*
X174102382Y-72132091D01*
X174056210Y-72184531D01*
X173989017Y-72203683D01*
X173922135Y-72183467D01*
X173877618Y-72132091D01*
X173840447Y-72052377D01*
X173820142Y-72008833D01*
X173693132Y-71827445D01*
X173536555Y-71670868D01*
X173355167Y-71543858D01*
X173349975Y-71541437D01*
X173154486Y-71450279D01*
X173154475Y-71450275D01*
X172940592Y-71392965D01*
X172940585Y-71392964D01*
X172720002Y-71373666D01*
X172719998Y-71373666D01*
X172499414Y-71392964D01*
X172499407Y-71392965D01*
X172285524Y-71450275D01*
X172285513Y-71450279D01*
X172084836Y-71543856D01*
X172084834Y-71543857D01*
X171903444Y-71670868D01*
X171746868Y-71827444D01*
X171619857Y-72008834D01*
X171619856Y-72008836D01*
X171562382Y-72132091D01*
X171516210Y-72184531D01*
X171449017Y-72203683D01*
X171382135Y-72183467D01*
X171337618Y-72132091D01*
X171300447Y-72052377D01*
X171280142Y-72008833D01*
X171153132Y-71827445D01*
X170996555Y-71670868D01*
X170815167Y-71543858D01*
X170809975Y-71541437D01*
X170614486Y-71450279D01*
X170614475Y-71450275D01*
X170400592Y-71392965D01*
X170400585Y-71392964D01*
X170180002Y-71373666D01*
X170179998Y-71373666D01*
X169959414Y-71392964D01*
X169959407Y-71392965D01*
X169745524Y-71450275D01*
X169745513Y-71450279D01*
X169544836Y-71543856D01*
X169544834Y-71543857D01*
X169363444Y-71670868D01*
X169206868Y-71827444D01*
X169079857Y-72008834D01*
X169079856Y-72008836D01*
X169022382Y-72132091D01*
X168976210Y-72184531D01*
X168909017Y-72203683D01*
X168842135Y-72183467D01*
X168797618Y-72132091D01*
X168760447Y-72052377D01*
X168740142Y-72008833D01*
X168613132Y-71827445D01*
X168456555Y-71670868D01*
X168275167Y-71543858D01*
X168269975Y-71541437D01*
X168074486Y-71450279D01*
X168074475Y-71450275D01*
X167860592Y-71392965D01*
X167860585Y-71392964D01*
X167640002Y-71373666D01*
X167639998Y-71373666D01*
X167419414Y-71392964D01*
X167419407Y-71392965D01*
X167205524Y-71450275D01*
X167205513Y-71450279D01*
X167004836Y-71543856D01*
X167004834Y-71543857D01*
X166823444Y-71670868D01*
X166666868Y-71827444D01*
X166539857Y-72008834D01*
X166539856Y-72008836D01*
X166482382Y-72132091D01*
X166436210Y-72184531D01*
X166369017Y-72203683D01*
X166302135Y-72183467D01*
X166257618Y-72132091D01*
X166220447Y-72052377D01*
X166200142Y-72008833D01*
X166073132Y-71827445D01*
X165916555Y-71670868D01*
X165735167Y-71543858D01*
X165729975Y-71541437D01*
X165534486Y-71450279D01*
X165534475Y-71450275D01*
X165320592Y-71392965D01*
X165320585Y-71392964D01*
X165100002Y-71373666D01*
X165099998Y-71373666D01*
X164879414Y-71392964D01*
X164879407Y-71392965D01*
X164665524Y-71450275D01*
X164665513Y-71450279D01*
X164464836Y-71543856D01*
X164464834Y-71543857D01*
X164283444Y-71670868D01*
X164126868Y-71827444D01*
X163999857Y-72008834D01*
X163999856Y-72008836D01*
X163942382Y-72132091D01*
X163896210Y-72184531D01*
X163829017Y-72203683D01*
X163762135Y-72183467D01*
X163717618Y-72132091D01*
X163680447Y-72052377D01*
X163660142Y-72008833D01*
X163533132Y-71827445D01*
X163376555Y-71670868D01*
X163195167Y-71543858D01*
X163189975Y-71541437D01*
X162994486Y-71450279D01*
X162994475Y-71450275D01*
X162780592Y-71392965D01*
X162780585Y-71392964D01*
X162560002Y-71373666D01*
X162559998Y-71373666D01*
X162339414Y-71392964D01*
X162339407Y-71392965D01*
X162125524Y-71450275D01*
X162125513Y-71450279D01*
X161924836Y-71543856D01*
X161924834Y-71543857D01*
X161743444Y-71670868D01*
X161586868Y-71827444D01*
X161459857Y-72008834D01*
X161459856Y-72008836D01*
X161402382Y-72132091D01*
X161356210Y-72184531D01*
X161289017Y-72203683D01*
X161222135Y-72183467D01*
X161177618Y-72132091D01*
X161140447Y-72052377D01*
X161120142Y-72008833D01*
X160993132Y-71827445D01*
X160836555Y-71670868D01*
X160655167Y-71543858D01*
X160649975Y-71541437D01*
X160454486Y-71450279D01*
X160454475Y-71450275D01*
X160240592Y-71392965D01*
X160240585Y-71392964D01*
X160020002Y-71373666D01*
X160019998Y-71373666D01*
X159799414Y-71392964D01*
X159799407Y-71392965D01*
X159585524Y-71450275D01*
X159585513Y-71450279D01*
X159421925Y-71526561D01*
X159352847Y-71537053D01*
X159289064Y-71508533D01*
X159250825Y-71450056D01*
X159250271Y-71380188D01*
X159281838Y-71326500D01*
X161112522Y-69495819D01*
X161173845Y-69462334D01*
X161200203Y-69459500D01*
X162223257Y-69459500D01*
X162238877Y-69461224D01*
X162238904Y-69460939D01*
X162246660Y-69461671D01*
X162246667Y-69461673D01*
X162315814Y-69459500D01*
X162345350Y-69459500D01*
X162352228Y-69458630D01*
X162358041Y-69458172D01*
X162404627Y-69456709D01*
X162423869Y-69451117D01*
X162442912Y-69447174D01*
X162462792Y-69444664D01*
X162506122Y-69427507D01*
X162511646Y-69425617D01*
X162515396Y-69424527D01*
X162556390Y-69412618D01*
X162573629Y-69402422D01*
X162591103Y-69393862D01*
X162609729Y-69386487D01*
X162609728Y-69386487D01*
X162609732Y-69386486D01*
X162633548Y-69369181D01*
X162699354Y-69345701D01*
X162706435Y-69345499D01*
X163365002Y-69345499D01*
X163365008Y-69345499D01*
X163467797Y-69334999D01*
X163634334Y-69279814D01*
X163783656Y-69187712D01*
X163907712Y-69063656D01*
X163999814Y-68914334D01*
X164054999Y-68747797D01*
X164065500Y-68645009D01*
X164065500Y-68195000D01*
X164865001Y-68195000D01*
X164865001Y-68644986D01*
X164875494Y-68747697D01*
X164930641Y-68914119D01*
X164930643Y-68914124D01*
X165022684Y-69063345D01*
X165146654Y-69187315D01*
X165295875Y-69279356D01*
X165295880Y-69279358D01*
X165462302Y-69334505D01*
X165462309Y-69334506D01*
X165565019Y-69344999D01*
X165777499Y-69344999D01*
X165777500Y-69344998D01*
X165777500Y-68195000D01*
X166277500Y-68195000D01*
X166277500Y-69344999D01*
X166489972Y-69344999D01*
X166489986Y-69344998D01*
X166592697Y-69334505D01*
X166759119Y-69279358D01*
X166759124Y-69279356D01*
X166908345Y-69187315D01*
X167032315Y-69063345D01*
X167124356Y-68914124D01*
X167124358Y-68914119D01*
X167179505Y-68747697D01*
X167179506Y-68747690D01*
X167189999Y-68644986D01*
X167190000Y-68644973D01*
X167190000Y-68195000D01*
X166277500Y-68195000D01*
X165777500Y-68195000D01*
X164865001Y-68195000D01*
X164065500Y-68195000D01*
X164065499Y-67244992D01*
X164054999Y-67142203D01*
X163999814Y-66975666D01*
X163907712Y-66826344D01*
X163783656Y-66702288D01*
X163783655Y-66702287D01*
X163699757Y-66650539D01*
X163653032Y-66598591D01*
X163641809Y-66529629D01*
X163669653Y-66465546D01*
X163727721Y-66426690D01*
X163764853Y-66421000D01*
X165166099Y-66421000D01*
X165233138Y-66440685D01*
G37*
G04 #@! TD.AperFunction*
G04 #@! TA.AperFunction,Conductor*
G36*
X140510507Y-86150156D02*
G01*
X140470000Y-86288111D01*
X140470000Y-86431889D01*
X140510507Y-86569844D01*
X140536314Y-86610000D01*
X139600464Y-86610000D01*
X139651758Y-86812553D01*
X139659713Y-86830688D01*
X139668617Y-86899988D01*
X139638641Y-86963100D01*
X139579303Y-86999988D01*
X139546158Y-87004500D01*
X138969452Y-87004500D01*
X138902413Y-86984815D01*
X138856658Y-86932011D01*
X138846714Y-86862853D01*
X138875739Y-86799297D01*
X138881771Y-86792819D01*
X138983792Y-86690798D01*
X139528272Y-86146317D01*
X139589592Y-86112834D01*
X139615950Y-86110000D01*
X140536314Y-86110000D01*
X140510507Y-86150156D01*
G37*
G04 #@! TD.AperFunction*
G04 #@! TA.AperFunction,Conductor*
G36*
X152312650Y-80655185D02*
G01*
X152358405Y-80707989D01*
X152368349Y-80777147D01*
X152359168Y-80809308D01*
X152351282Y-80827286D01*
X152294753Y-81050515D01*
X152275738Y-81279994D01*
X152275738Y-81280005D01*
X152294753Y-81509484D01*
X152351282Y-81732714D01*
X152443782Y-81943594D01*
X152569728Y-82136370D01*
X152569731Y-82136373D01*
X152725692Y-82305792D01*
X152831401Y-82388068D01*
X152911459Y-82450380D01*
X152910570Y-82451521D01*
X152951632Y-82499624D01*
X152961063Y-82568855D01*
X152931568Y-82632194D01*
X152911429Y-82649650D01*
X152911733Y-82650040D01*
X152726039Y-82794571D01*
X152726029Y-82794580D01*
X152570126Y-82963937D01*
X152444224Y-83156644D01*
X152351757Y-83367446D01*
X152300464Y-83569999D01*
X152300464Y-83570000D01*
X153236314Y-83570000D01*
X153210507Y-83610156D01*
X153170000Y-83748111D01*
X153170000Y-83891889D01*
X153210507Y-84029844D01*
X153236314Y-84070000D01*
X152300464Y-84070000D01*
X152351757Y-84272553D01*
X152444224Y-84483355D01*
X152570126Y-84676062D01*
X152726029Y-84845419D01*
X152726039Y-84845428D01*
X152911733Y-84989960D01*
X152910789Y-84991172D01*
X152951639Y-85039043D01*
X152961060Y-85108274D01*
X152931556Y-85171609D01*
X152911181Y-85189263D01*
X152911459Y-85189620D01*
X152725694Y-85334206D01*
X152725689Y-85334211D01*
X152569728Y-85503629D01*
X152443782Y-85696405D01*
X152351282Y-85907285D01*
X152294753Y-86130515D01*
X152275738Y-86359994D01*
X152275738Y-86360005D01*
X152294753Y-86589484D01*
X152330230Y-86729581D01*
X152327605Y-86799401D01*
X152297705Y-86847702D01*
X152177226Y-86968182D01*
X152115906Y-87001666D01*
X152089547Y-87004500D01*
X142393842Y-87004500D01*
X142326803Y-86984815D01*
X142281048Y-86932011D01*
X142271104Y-86862853D01*
X142280287Y-86830688D01*
X142288241Y-86812553D01*
X142339535Y-86610000D01*
X141403686Y-86610000D01*
X141429493Y-86569844D01*
X141470000Y-86431889D01*
X141470000Y-86288111D01*
X141429493Y-86150156D01*
X141403686Y-86110000D01*
X142339536Y-86110000D01*
X142339535Y-86109999D01*
X142288242Y-85907446D01*
X142195775Y-85696644D01*
X142069873Y-85503937D01*
X141913970Y-85334580D01*
X141913960Y-85334571D01*
X141728267Y-85190040D01*
X141729209Y-85188829D01*
X141688355Y-85140947D01*
X141678941Y-85071714D01*
X141708450Y-85008382D01*
X141728820Y-84990738D01*
X141728541Y-84990380D01*
X141770331Y-84957853D01*
X141914308Y-84845792D01*
X142070269Y-84676373D01*
X142196217Y-84483595D01*
X142288717Y-84272716D01*
X142345246Y-84049488D01*
X142362721Y-83838596D01*
X142364262Y-83820005D01*
X142364262Y-83819994D01*
X142346889Y-83610337D01*
X142345246Y-83590512D01*
X142288717Y-83367284D01*
X142196217Y-83156405D01*
X142180889Y-83132943D01*
X142070271Y-82963629D01*
X142009133Y-82897216D01*
X141914308Y-82794208D01*
X141817867Y-82719145D01*
X141728541Y-82649620D01*
X141729525Y-82648354D01*
X141688824Y-82600670D01*
X141679396Y-82531439D01*
X141708893Y-82468102D01*
X141728865Y-82450796D01*
X141728541Y-82450380D01*
X141773997Y-82415000D01*
X141914308Y-82305792D01*
X142070269Y-82136373D01*
X142184402Y-81961678D01*
X142237548Y-81916322D01*
X142288211Y-81905500D01*
X143681257Y-81905500D01*
X143696877Y-81907224D01*
X143696904Y-81906939D01*
X143704660Y-81907671D01*
X143704667Y-81907673D01*
X143773814Y-81905500D01*
X143803350Y-81905500D01*
X149142257Y-81905500D01*
X149157877Y-81907224D01*
X149157904Y-81906939D01*
X149165660Y-81907671D01*
X149165667Y-81907673D01*
X149234814Y-81905500D01*
X149264350Y-81905500D01*
X149271228Y-81904630D01*
X149277041Y-81904172D01*
X149323627Y-81902709D01*
X149342869Y-81897117D01*
X149361912Y-81893174D01*
X149381792Y-81890664D01*
X149425122Y-81873507D01*
X149430646Y-81871617D01*
X149434396Y-81870527D01*
X149475390Y-81858618D01*
X149492629Y-81848422D01*
X149510103Y-81839862D01*
X149528727Y-81832488D01*
X149528727Y-81832487D01*
X149528732Y-81832486D01*
X149566449Y-81805082D01*
X149571305Y-81801892D01*
X149611420Y-81778170D01*
X149625586Y-81764003D01*
X149640381Y-81751368D01*
X149643619Y-81749014D01*
X149656587Y-81739594D01*
X149686302Y-81703674D01*
X149690202Y-81699387D01*
X150717772Y-80671819D01*
X150779095Y-80638334D01*
X150805453Y-80635500D01*
X152245611Y-80635500D01*
X152312650Y-80655185D01*
G37*
G04 #@! TD.AperFunction*
G04 #@! TA.AperFunction,Conductor*
G36*
X151077539Y-68463185D02*
G01*
X151123294Y-68515989D01*
X151134500Y-68567500D01*
X151134500Y-68866668D01*
X151134501Y-68866687D01*
X151144825Y-68967752D01*
X151170040Y-69043844D01*
X151199020Y-69131300D01*
X151199092Y-69131515D01*
X151199093Y-69131518D01*
X151251693Y-69216795D01*
X151270133Y-69284188D01*
X151249210Y-69350851D01*
X151233835Y-69369573D01*
X150780228Y-69823181D01*
X150718905Y-69856666D01*
X150692547Y-69859500D01*
X141052738Y-69859500D01*
X141037121Y-69857776D01*
X141037094Y-69858062D01*
X141029332Y-69857327D01*
X140960204Y-69859500D01*
X140930650Y-69859500D01*
X140929929Y-69859590D01*
X140923757Y-69860369D01*
X140917945Y-69860826D01*
X140871373Y-69862290D01*
X140871372Y-69862290D01*
X140852129Y-69867881D01*
X140833079Y-69871825D01*
X140813211Y-69874334D01*
X140813209Y-69874335D01*
X140769884Y-69891488D01*
X140764357Y-69893380D01*
X140719610Y-69906381D01*
X140719609Y-69906382D01*
X140702367Y-69916579D01*
X140684899Y-69925137D01*
X140666269Y-69932513D01*
X140666267Y-69932514D01*
X140628576Y-69959898D01*
X140623694Y-69963105D01*
X140583579Y-69986830D01*
X140569408Y-70001000D01*
X140554623Y-70013628D01*
X140538412Y-70025407D01*
X140508709Y-70061310D01*
X140504777Y-70065631D01*
X136223411Y-74346996D01*
X136162088Y-74380481D01*
X136092396Y-74375497D01*
X136036463Y-74333625D01*
X136012154Y-74269555D01*
X135999621Y-74118316D01*
X135995246Y-74065512D01*
X135938717Y-73842284D01*
X135846217Y-73631405D01*
X135836889Y-73617128D01*
X135720271Y-73438629D01*
X135646165Y-73358129D01*
X135564308Y-73269208D01*
X135442871Y-73174690D01*
X135382591Y-73127772D01*
X135180069Y-73018172D01*
X135180061Y-73018169D01*
X134962274Y-72943402D01*
X134773538Y-72911908D01*
X134735137Y-72905500D01*
X134504863Y-72905500D01*
X134466462Y-72911908D01*
X134277725Y-72943402D01*
X134059938Y-73018169D01*
X134059930Y-73018172D01*
X133857408Y-73127772D01*
X133675694Y-73269206D01*
X133675689Y-73269211D01*
X133519728Y-73438629D01*
X133393782Y-73631405D01*
X133301282Y-73842285D01*
X133244753Y-74065515D01*
X133225738Y-74294994D01*
X133225738Y-74295005D01*
X133244753Y-74524484D01*
X133301282Y-74747714D01*
X133393782Y-74958594D01*
X133519728Y-75151370D01*
X133546173Y-75180097D01*
X133675692Y-75320792D01*
X133775673Y-75398610D01*
X133861459Y-75465380D01*
X133860476Y-75466641D01*
X133901183Y-75514349D01*
X133910600Y-75583581D01*
X133881092Y-75646914D01*
X133861136Y-75664205D01*
X133861459Y-75664620D01*
X133675694Y-75809206D01*
X133675689Y-75809211D01*
X133519728Y-75978629D01*
X133393782Y-76171405D01*
X133301282Y-76382285D01*
X133244753Y-76605515D01*
X133225738Y-76834994D01*
X133225738Y-76835005D01*
X133244753Y-77064484D01*
X133301282Y-77287714D01*
X133393782Y-77498594D01*
X133519728Y-77691370D01*
X133531658Y-77704329D01*
X133675692Y-77860792D01*
X133774887Y-77937998D01*
X133861459Y-78005380D01*
X133860476Y-78006641D01*
X133901183Y-78054349D01*
X133910600Y-78123581D01*
X133881092Y-78186914D01*
X133861136Y-78204205D01*
X133861459Y-78204620D01*
X133675694Y-78349206D01*
X133675689Y-78349211D01*
X133519728Y-78518629D01*
X133393782Y-78711405D01*
X133301282Y-78922285D01*
X133244753Y-79145515D01*
X133225738Y-79374994D01*
X133225738Y-79375005D01*
X133244753Y-79604484D01*
X133301282Y-79827714D01*
X133393782Y-80038594D01*
X133519728Y-80231370D01*
X133540176Y-80253582D01*
X133675692Y-80400792D01*
X133792591Y-80491778D01*
X133861459Y-80545380D01*
X133860570Y-80546521D01*
X133901632Y-80594624D01*
X133911063Y-80663855D01*
X133881568Y-80727194D01*
X133861429Y-80744650D01*
X133861733Y-80745040D01*
X133676039Y-80889571D01*
X133676029Y-80889580D01*
X133520126Y-81058937D01*
X133394224Y-81251644D01*
X133301757Y-81462446D01*
X133250464Y-81664999D01*
X133250464Y-81665000D01*
X134186314Y-81665000D01*
X134160507Y-81705156D01*
X134120000Y-81843111D01*
X134120000Y-81986889D01*
X134160507Y-82124844D01*
X134186314Y-82165000D01*
X133250464Y-82165000D01*
X133301757Y-82367553D01*
X133394224Y-82578355D01*
X133520126Y-82771062D01*
X133676029Y-82940419D01*
X133676039Y-82940428D01*
X133861733Y-83084960D01*
X133860789Y-83086172D01*
X133901639Y-83134043D01*
X133911060Y-83203274D01*
X133881556Y-83266609D01*
X133861181Y-83284263D01*
X133861459Y-83284620D01*
X133675694Y-83429206D01*
X133675689Y-83429211D01*
X133519728Y-83598629D01*
X133393782Y-83791405D01*
X133301282Y-84002285D01*
X133244753Y-84225515D01*
X133225738Y-84454994D01*
X133225738Y-84455005D01*
X133244753Y-84684484D01*
X133301282Y-84907713D01*
X133309168Y-84925692D01*
X133318069Y-84994992D01*
X133288092Y-85058104D01*
X133228752Y-85094989D01*
X133195611Y-85099500D01*
X128580453Y-85099500D01*
X128513414Y-85079815D01*
X128492772Y-85063181D01*
X123292294Y-79862703D01*
X123258809Y-79801380D01*
X123259769Y-79744581D01*
X123295246Y-79604488D01*
X123296566Y-79588557D01*
X123314262Y-79375005D01*
X123314262Y-79374994D01*
X123295246Y-79145515D01*
X123295246Y-79145512D01*
X123238717Y-78922284D01*
X123146217Y-78711405D01*
X123111407Y-78658124D01*
X123050673Y-78565163D01*
X123030486Y-78498274D01*
X123049666Y-78431088D01*
X123066796Y-78409666D01*
X132234646Y-69241819D01*
X132295969Y-69208334D01*
X132322327Y-69205500D01*
X146095519Y-69205500D01*
X146162558Y-69225185D01*
X146201058Y-69264404D01*
X146209660Y-69278350D01*
X146331650Y-69400340D01*
X146478484Y-69490908D01*
X146642247Y-69545174D01*
X146743323Y-69555500D01*
X147341676Y-69555499D01*
X147341684Y-69555498D01*
X147341687Y-69555498D01*
X147397030Y-69549844D01*
X147442753Y-69545174D01*
X147606516Y-69490908D01*
X147753350Y-69400340D01*
X147867319Y-69286371D01*
X147928642Y-69252886D01*
X147998334Y-69257870D01*
X148042681Y-69286371D01*
X148156650Y-69400340D01*
X148303484Y-69490908D01*
X148467247Y-69545174D01*
X148568323Y-69555500D01*
X149166676Y-69555499D01*
X149166684Y-69555498D01*
X149166687Y-69555498D01*
X149222030Y-69549844D01*
X149267753Y-69545174D01*
X149431516Y-69490908D01*
X149578350Y-69400340D01*
X149700340Y-69278350D01*
X149790908Y-69131516D01*
X149845174Y-68967753D01*
X149855500Y-68866677D01*
X149855499Y-68567499D01*
X149875183Y-68500461D01*
X149927987Y-68454706D01*
X149979499Y-68443500D01*
X151010500Y-68443500D01*
X151077539Y-68463185D01*
G37*
G04 #@! TD.AperFunction*
G04 #@! TA.AperFunction,Conductor*
G36*
X139499834Y-75482269D02*
G01*
X139555767Y-75524141D01*
X139580184Y-75589605D01*
X139580500Y-75598451D01*
X139580500Y-77136870D01*
X139580501Y-77136876D01*
X139586908Y-77196483D01*
X139637202Y-77331328D01*
X139637206Y-77331335D01*
X139723452Y-77446544D01*
X139723455Y-77446547D01*
X139838664Y-77532793D01*
X139838673Y-77532798D01*
X139889927Y-77551914D01*
X139929890Y-77566819D01*
X139985824Y-77608689D01*
X140010242Y-77674153D01*
X139995391Y-77742426D01*
X139977788Y-77766983D01*
X139870129Y-77883932D01*
X139870127Y-77883934D01*
X139744224Y-78076644D01*
X139651757Y-78287446D01*
X139600464Y-78489999D01*
X139600464Y-78490000D01*
X140536314Y-78490000D01*
X140510507Y-78530156D01*
X140470000Y-78668111D01*
X140470000Y-78811889D01*
X140510507Y-78949844D01*
X140536314Y-78990000D01*
X139600464Y-78990000D01*
X139651757Y-79192553D01*
X139744224Y-79403355D01*
X139870126Y-79596062D01*
X140026029Y-79765419D01*
X140026039Y-79765428D01*
X140211733Y-79909960D01*
X140210789Y-79911172D01*
X140251639Y-79959043D01*
X140261060Y-80028274D01*
X140231556Y-80091609D01*
X140211181Y-80109263D01*
X140211459Y-80109620D01*
X140025694Y-80254206D01*
X140025689Y-80254211D01*
X139869728Y-80423629D01*
X139743782Y-80616405D01*
X139651282Y-80827285D01*
X139594753Y-81050515D01*
X139575738Y-81279994D01*
X139575738Y-81280005D01*
X139594753Y-81509484D01*
X139630230Y-81649581D01*
X139627605Y-81719401D01*
X139597705Y-81767702D01*
X136302228Y-85063181D01*
X136240905Y-85096666D01*
X136214547Y-85099500D01*
X136044389Y-85099500D01*
X135977350Y-85079815D01*
X135931595Y-85027011D01*
X135921651Y-84957853D01*
X135930832Y-84925692D01*
X135938717Y-84907716D01*
X135995246Y-84684488D01*
X136011893Y-84483594D01*
X136014262Y-84455005D01*
X136014262Y-84454994D01*
X135995246Y-84225515D01*
X135995246Y-84225512D01*
X135938717Y-84002284D01*
X135846217Y-83791405D01*
X135839662Y-83781372D01*
X135720271Y-83598629D01*
X135619536Y-83489202D01*
X135564308Y-83429208D01*
X135382589Y-83287771D01*
X135382590Y-83287771D01*
X135378541Y-83284620D01*
X135379428Y-83283480D01*
X135338363Y-83235366D01*
X135328938Y-83166135D01*
X135358437Y-83102798D01*
X135378572Y-83085352D01*
X135378267Y-83084960D01*
X135563960Y-82940428D01*
X135563970Y-82940419D01*
X135719873Y-82771062D01*
X135845775Y-82578355D01*
X135938242Y-82367553D01*
X135989535Y-82165000D01*
X135053686Y-82165000D01*
X135079493Y-82124844D01*
X135120000Y-81986889D01*
X135120000Y-81843111D01*
X135079493Y-81705156D01*
X135053686Y-81665000D01*
X135989536Y-81665000D01*
X135989535Y-81664999D01*
X135938242Y-81462446D01*
X135845775Y-81251644D01*
X135719873Y-81058937D01*
X135563970Y-80889580D01*
X135563960Y-80889571D01*
X135378267Y-80745040D01*
X135379209Y-80743829D01*
X135338355Y-80695947D01*
X135328941Y-80626714D01*
X135358450Y-80563382D01*
X135378820Y-80545738D01*
X135378541Y-80545380D01*
X135442625Y-80495501D01*
X135564308Y-80400792D01*
X135720269Y-80231373D01*
X135846217Y-80038595D01*
X135938717Y-79827716D01*
X135995246Y-79604488D01*
X136008036Y-79450137D01*
X136014262Y-79375005D01*
X136014262Y-79374994D01*
X135995246Y-79145513D01*
X135995245Y-79145509D01*
X135959769Y-79005417D01*
X135962393Y-78935596D01*
X135992291Y-78887297D01*
X139368821Y-75510768D01*
X139430142Y-75477285D01*
X139499834Y-75482269D01*
G37*
G04 #@! TD.AperFunction*
G04 #@! TA.AperFunction,Conductor*
G36*
X148773083Y-71765185D02*
G01*
X148818838Y-71817989D01*
X148828782Y-71887147D01*
X148807619Y-71940624D01*
X148759857Y-72008834D01*
X148759856Y-72008836D01*
X148666279Y-72209513D01*
X148666275Y-72209524D01*
X148608965Y-72423407D01*
X148608964Y-72423414D01*
X148589666Y-72643998D01*
X148589666Y-72644001D01*
X148608964Y-72864585D01*
X148608965Y-72864592D01*
X148666275Y-73078475D01*
X148666279Y-73078486D01*
X148755213Y-73269206D01*
X148759858Y-73279167D01*
X148886868Y-73460555D01*
X149043445Y-73617132D01*
X149224833Y-73744142D01*
X149276988Y-73768462D01*
X149425513Y-73837720D01*
X149425515Y-73837720D01*
X149425520Y-73837723D01*
X149639409Y-73895035D01*
X149796974Y-73908820D01*
X149859998Y-73914334D01*
X149860000Y-73914334D01*
X149860001Y-73914334D01*
X149876877Y-73912857D01*
X149942603Y-73907107D01*
X150011102Y-73920873D01*
X150061285Y-73969488D01*
X150077219Y-74037517D01*
X150053844Y-74103361D01*
X150041091Y-74118316D01*
X143541228Y-80618181D01*
X143479905Y-80651666D01*
X143453547Y-80654500D01*
X142288211Y-80654500D01*
X142221172Y-80634815D01*
X142184402Y-80598321D01*
X142070271Y-80423629D01*
X141973353Y-80318348D01*
X141914308Y-80254208D01*
X141808833Y-80172114D01*
X141728541Y-80109620D01*
X141729428Y-80108480D01*
X141688363Y-80060366D01*
X141678938Y-79991135D01*
X141708437Y-79927798D01*
X141728572Y-79910352D01*
X141728267Y-79909960D01*
X141913960Y-79765428D01*
X141913970Y-79765419D01*
X142069873Y-79596062D01*
X142195775Y-79403355D01*
X142288242Y-79192553D01*
X142339535Y-78990000D01*
X141403686Y-78990000D01*
X141429493Y-78949844D01*
X141470000Y-78811889D01*
X141470000Y-78668111D01*
X141429493Y-78530156D01*
X141403686Y-78490000D01*
X142339536Y-78490000D01*
X142339535Y-78489999D01*
X142288242Y-78287446D01*
X142195775Y-78076644D01*
X142069873Y-77883937D01*
X141962211Y-77766984D01*
X141931289Y-77704329D01*
X141939149Y-77634903D01*
X141983296Y-77580748D01*
X142010105Y-77566821D01*
X142101331Y-77532796D01*
X142216546Y-77446546D01*
X142302796Y-77331331D01*
X142353091Y-77196483D01*
X142359500Y-77136873D01*
X142359499Y-75263128D01*
X142354299Y-75214757D01*
X142353091Y-75203516D01*
X142302797Y-75068671D01*
X142302793Y-75068664D01*
X142216547Y-74953455D01*
X142216544Y-74953452D01*
X142101335Y-74867206D01*
X142101328Y-74867202D01*
X141966482Y-74816908D01*
X141966483Y-74816908D01*
X141906883Y-74810501D01*
X141906881Y-74810500D01*
X141906873Y-74810500D01*
X141906865Y-74810500D01*
X140368451Y-74810500D01*
X140301412Y-74790815D01*
X140255657Y-74738011D01*
X140245713Y-74668853D01*
X140274738Y-74605297D01*
X140280770Y-74598819D01*
X140842073Y-74037517D01*
X143097772Y-71781819D01*
X143159095Y-71748334D01*
X143185453Y-71745500D01*
X148706044Y-71745500D01*
X148773083Y-71765185D01*
G37*
G04 #@! TD.AperFunction*
G04 #@! TA.AperFunction,Conductor*
G36*
X131536780Y-67955185D02*
G01*
X131582535Y-68007989D01*
X131592479Y-68077147D01*
X131565279Y-68138547D01*
X131550581Y-68156312D01*
X131546650Y-68160631D01*
X123392977Y-76314304D01*
X123331654Y-76347789D01*
X123261962Y-76342805D01*
X123206029Y-76300933D01*
X123191740Y-76276433D01*
X123145775Y-76171644D01*
X123019873Y-75978937D01*
X122912211Y-75861984D01*
X122881289Y-75799329D01*
X122889149Y-75729903D01*
X122933296Y-75675748D01*
X122960105Y-75661821D01*
X123051331Y-75627796D01*
X123166546Y-75541546D01*
X123252796Y-75426331D01*
X123303091Y-75291483D01*
X123309500Y-75231873D01*
X123309499Y-73358128D01*
X123303091Y-73298517D01*
X123295873Y-73279165D01*
X123252797Y-73163671D01*
X123252793Y-73163664D01*
X123166547Y-73048455D01*
X123166544Y-73048452D01*
X123051335Y-72962206D01*
X123051328Y-72962202D01*
X122916482Y-72911908D01*
X122916483Y-72911908D01*
X122856883Y-72905501D01*
X122856881Y-72905500D01*
X122856873Y-72905500D01*
X122856865Y-72905500D01*
X121953451Y-72905500D01*
X121886412Y-72885815D01*
X121840657Y-72833011D01*
X121830713Y-72763853D01*
X121859738Y-72700297D01*
X121865770Y-72693819D01*
X122916213Y-71643377D01*
X126587772Y-67971819D01*
X126649095Y-67938334D01*
X126675453Y-67935500D01*
X131469741Y-67935500D01*
X131536780Y-67955185D01*
G37*
G04 #@! TD.AperFunction*
G04 #@! TA.AperFunction,Conductor*
G36*
X161682539Y-67193185D02*
G01*
X161728294Y-67245989D01*
X161739500Y-67297500D01*
X161739500Y-67695000D01*
X161739501Y-68084500D01*
X161719817Y-68151539D01*
X161667013Y-68197294D01*
X161615501Y-68208500D01*
X160972487Y-68208500D01*
X160956870Y-68206776D01*
X160956843Y-68207062D01*
X160949081Y-68206327D01*
X160879953Y-68208500D01*
X160850400Y-68208500D01*
X160849679Y-68208590D01*
X160843507Y-68209369D01*
X160837695Y-68209826D01*
X160791123Y-68211290D01*
X160791122Y-68211290D01*
X160771879Y-68216881D01*
X160752829Y-68220825D01*
X160732961Y-68223334D01*
X160732959Y-68223335D01*
X160689634Y-68240488D01*
X160684107Y-68242380D01*
X160639360Y-68255381D01*
X160639359Y-68255382D01*
X160622117Y-68265579D01*
X160604649Y-68274137D01*
X160586019Y-68281513D01*
X160586017Y-68281514D01*
X160548326Y-68308898D01*
X160543444Y-68312105D01*
X160503329Y-68335830D01*
X160489158Y-68350000D01*
X160474373Y-68362628D01*
X160458162Y-68374407D01*
X160428459Y-68410310D01*
X160424526Y-68414631D01*
X159388037Y-69451122D01*
X158380978Y-70458181D01*
X158319655Y-70491666D01*
X158293297Y-70494500D01*
X152177452Y-70494500D01*
X152110413Y-70474815D01*
X152064658Y-70422011D01*
X152054714Y-70352853D01*
X152083739Y-70289297D01*
X152089771Y-70282819D01*
X152291397Y-70081193D01*
X152506288Y-69866301D01*
X152518542Y-69856486D01*
X152518359Y-69856264D01*
X152524366Y-69851292D01*
X152524377Y-69851286D01*
X152555839Y-69817782D01*
X152571727Y-69800864D01*
X152582171Y-69790418D01*
X152592620Y-69779971D01*
X152596879Y-69774478D01*
X152600652Y-69770061D01*
X152632562Y-69736082D01*
X152642213Y-69718524D01*
X152652896Y-69702261D01*
X152665173Y-69686436D01*
X152683685Y-69643653D01*
X152686238Y-69638441D01*
X152708697Y-69597592D01*
X152713680Y-69578180D01*
X152719981Y-69559780D01*
X152727937Y-69541396D01*
X152732375Y-69513372D01*
X152762302Y-69450239D01*
X152789745Y-69427235D01*
X152833350Y-69400340D01*
X152947675Y-69286014D01*
X153008994Y-69252532D01*
X153078686Y-69257516D01*
X153123034Y-69286017D01*
X153236961Y-69399944D01*
X153236965Y-69399947D01*
X153383688Y-69490448D01*
X153383699Y-69490453D01*
X153547347Y-69544680D01*
X153648351Y-69554999D01*
X153697499Y-69554998D01*
X153697500Y-69554998D01*
X153697500Y-68830000D01*
X154197500Y-68830000D01*
X154197500Y-69554999D01*
X154246640Y-69554999D01*
X154246654Y-69554998D01*
X154347652Y-69544680D01*
X154511300Y-69490453D01*
X154511311Y-69490448D01*
X154658034Y-69399947D01*
X154658038Y-69399944D01*
X154779944Y-69278038D01*
X154779947Y-69278034D01*
X154870448Y-69131311D01*
X154870453Y-69131300D01*
X154924680Y-68967652D01*
X154934999Y-68866654D01*
X154935000Y-68866641D01*
X154935000Y-68830000D01*
X154197500Y-68830000D01*
X153697500Y-68830000D01*
X153697500Y-67605000D01*
X154197500Y-67605000D01*
X154197500Y-68330000D01*
X154934999Y-68330000D01*
X154934999Y-68293360D01*
X154934998Y-68293345D01*
X154924680Y-68192347D01*
X154870453Y-68028699D01*
X154870448Y-68028688D01*
X154779947Y-67881965D01*
X154779944Y-67881961D01*
X154658038Y-67760055D01*
X154658034Y-67760052D01*
X154511311Y-67669551D01*
X154511300Y-67669546D01*
X154347652Y-67615319D01*
X154246654Y-67605000D01*
X154197500Y-67605000D01*
X153697500Y-67605000D01*
X153697499Y-67604999D01*
X153648361Y-67605000D01*
X153648343Y-67605001D01*
X153547347Y-67615319D01*
X153383699Y-67669546D01*
X153383688Y-67669551D01*
X153236965Y-67760052D01*
X153123034Y-67873983D01*
X153061711Y-67907467D01*
X152992019Y-67902483D01*
X152947672Y-67873982D01*
X152833351Y-67759661D01*
X152833350Y-67759660D01*
X152728520Y-67695000D01*
X152686518Y-67669093D01*
X152686513Y-67669091D01*
X152660282Y-67660399D01*
X152522753Y-67614826D01*
X152522751Y-67614825D01*
X152421684Y-67604500D01*
X152421677Y-67604500D01*
X152082953Y-67604500D01*
X152015914Y-67584815D01*
X151995272Y-67568181D01*
X151861303Y-67434212D01*
X151851480Y-67421950D01*
X151851259Y-67422134D01*
X151846286Y-67416123D01*
X151825456Y-67396562D01*
X151816223Y-67387891D01*
X151780829Y-67327652D01*
X151783621Y-67257838D01*
X151823715Y-67200617D01*
X151888380Y-67174155D01*
X151901107Y-67173500D01*
X161615500Y-67173500D01*
X161682539Y-67193185D01*
G37*
G04 #@! TD.AperFunction*
M02*
