G04 #@! TF.GenerationSoftware,KiCad,Pcbnew,7.0.8*
G04 #@! TF.CreationDate,2024-01-13T09:37:12-08:00*
G04 #@! TF.ProjectId,ph-sensor,70682d73-656e-4736-9f72-2e6b69636164,rev?*
G04 #@! TF.SameCoordinates,Original*
G04 #@! TF.FileFunction,Legend,Bot*
G04 #@! TF.FilePolarity,Positive*
%FSLAX46Y46*%
G04 Gerber Fmt 4.6, Leading zero omitted, Abs format (unit mm)*
G04 Created by KiCad (PCBNEW 7.0.8) date 2024-01-13 09:37:12*
%MOMM*%
%LPD*%
G01*
G04 APERTURE LIST*
G04 Aperture macros list*
%AMRoundRect*
0 Rectangle with rounded corners*
0 $1 Rounding radius*
0 $2 $3 $4 $5 $6 $7 $8 $9 X,Y pos of 4 corners*
0 Add a 4 corners polygon primitive as box body*
4,1,4,$2,$3,$4,$5,$6,$7,$8,$9,$2,$3,0*
0 Add four circle primitives for the rounded corners*
1,1,$1+$1,$2,$3*
1,1,$1+$1,$4,$5*
1,1,$1+$1,$6,$7*
1,1,$1+$1,$8,$9*
0 Add four rect primitives between the rounded corners*
20,1,$1+$1,$2,$3,$4,$5,0*
20,1,$1+$1,$4,$5,$6,$7,0*
20,1,$1+$1,$6,$7,$8,$9,0*
20,1,$1+$1,$8,$9,$2,$3,0*%
G04 Aperture macros list end*
%ADD10C,0.150000*%
%ADD11C,0.120000*%
%ADD12C,0.127000*%
%ADD13C,1.778000*%
%ADD14C,3.404000*%
%ADD15RoundRect,0.050800X-0.889000X-0.889000X0.889000X-0.889000X0.889000X0.889000X-0.889000X0.889000X0*%
%ADD16C,1.879600*%
%ADD17C,1.700000*%
%ADD18O,1.700000X1.700000*%
%ADD19R,1.700000X1.700000*%
%ADD20R,1.524000X1.524000*%
%ADD21RoundRect,0.237500X0.237500X-0.250000X0.237500X0.250000X-0.237500X0.250000X-0.237500X-0.250000X0*%
%ADD22C,1.734000*%
%ADD23RoundRect,0.250000X-0.412500X-0.650000X0.412500X-0.650000X0.412500X0.650000X-0.412500X0.650000X0*%
%ADD24RoundRect,0.250000X0.650000X-0.412500X0.650000X0.412500X-0.650000X0.412500X-0.650000X-0.412500X0*%
G04 APERTURE END LIST*
D10*
X115609286Y-88196009D02*
X115466429Y-88243628D01*
X115466429Y-88243628D02*
X115418810Y-88291247D01*
X115418810Y-88291247D02*
X115371191Y-88386485D01*
X115371191Y-88386485D02*
X115371191Y-88529342D01*
X115371191Y-88529342D02*
X115418810Y-88624580D01*
X115418810Y-88624580D02*
X115466429Y-88672200D01*
X115466429Y-88672200D02*
X115561667Y-88719819D01*
X115561667Y-88719819D02*
X115942619Y-88719819D01*
X115942619Y-88719819D02*
X115942619Y-87719819D01*
X115942619Y-87719819D02*
X115609286Y-87719819D01*
X115609286Y-87719819D02*
X115514048Y-87767438D01*
X115514048Y-87767438D02*
X115466429Y-87815057D01*
X115466429Y-87815057D02*
X115418810Y-87910295D01*
X115418810Y-87910295D02*
X115418810Y-88005533D01*
X115418810Y-88005533D02*
X115466429Y-88100771D01*
X115466429Y-88100771D02*
X115514048Y-88148390D01*
X115514048Y-88148390D02*
X115609286Y-88196009D01*
X115609286Y-88196009D02*
X115942619Y-88196009D01*
X114514048Y-88719819D02*
X114514048Y-88196009D01*
X114514048Y-88196009D02*
X114561667Y-88100771D01*
X114561667Y-88100771D02*
X114656905Y-88053152D01*
X114656905Y-88053152D02*
X114847381Y-88053152D01*
X114847381Y-88053152D02*
X114942619Y-88100771D01*
X114514048Y-88672200D02*
X114609286Y-88719819D01*
X114609286Y-88719819D02*
X114847381Y-88719819D01*
X114847381Y-88719819D02*
X114942619Y-88672200D01*
X114942619Y-88672200D02*
X114990238Y-88576961D01*
X114990238Y-88576961D02*
X114990238Y-88481723D01*
X114990238Y-88481723D02*
X114942619Y-88386485D01*
X114942619Y-88386485D02*
X114847381Y-88338866D01*
X114847381Y-88338866D02*
X114609286Y-88338866D01*
X114609286Y-88338866D02*
X114514048Y-88291247D01*
X114180714Y-88053152D02*
X113799762Y-88053152D01*
X114037857Y-87719819D02*
X114037857Y-88576961D01*
X114037857Y-88576961D02*
X113990238Y-88672200D01*
X113990238Y-88672200D02*
X113895000Y-88719819D01*
X113895000Y-88719819D02*
X113799762Y-88719819D01*
X113609285Y-88053152D02*
X113228333Y-88053152D01*
X113466428Y-87719819D02*
X113466428Y-88576961D01*
X113466428Y-88576961D02*
X113418809Y-88672200D01*
X113418809Y-88672200D02*
X113323571Y-88719819D01*
X113323571Y-88719819D02*
X113228333Y-88719819D01*
X112514047Y-88672200D02*
X112609285Y-88719819D01*
X112609285Y-88719819D02*
X112799761Y-88719819D01*
X112799761Y-88719819D02*
X112894999Y-88672200D01*
X112894999Y-88672200D02*
X112942618Y-88576961D01*
X112942618Y-88576961D02*
X112942618Y-88196009D01*
X112942618Y-88196009D02*
X112894999Y-88100771D01*
X112894999Y-88100771D02*
X112799761Y-88053152D01*
X112799761Y-88053152D02*
X112609285Y-88053152D01*
X112609285Y-88053152D02*
X112514047Y-88100771D01*
X112514047Y-88100771D02*
X112466428Y-88196009D01*
X112466428Y-88196009D02*
X112466428Y-88291247D01*
X112466428Y-88291247D02*
X112942618Y-88386485D01*
X112037856Y-88719819D02*
X112037856Y-88053152D01*
X112037856Y-88243628D02*
X111990237Y-88148390D01*
X111990237Y-88148390D02*
X111942618Y-88100771D01*
X111942618Y-88100771D02*
X111847380Y-88053152D01*
X111847380Y-88053152D02*
X111752142Y-88053152D01*
X111514046Y-88053152D02*
X111275951Y-88719819D01*
X111037856Y-88053152D02*
X111275951Y-88719819D01*
X111275951Y-88719819D02*
X111371189Y-88957914D01*
X111371189Y-88957914D02*
X111418808Y-89005533D01*
X111418808Y-89005533D02*
X111514046Y-89053152D01*
X109894998Y-88719819D02*
X109894998Y-87719819D01*
X109418808Y-88719819D02*
X109418808Y-87719819D01*
X109418808Y-87719819D02*
X108847380Y-88719819D01*
X108847380Y-88719819D02*
X108847380Y-87719819D01*
X116269047Y-74224819D02*
X116269047Y-73224819D01*
X116269047Y-73224819D02*
X116030952Y-73224819D01*
X116030952Y-73224819D02*
X115888095Y-73272438D01*
X115888095Y-73272438D02*
X115792857Y-73367676D01*
X115792857Y-73367676D02*
X115745238Y-73462914D01*
X115745238Y-73462914D02*
X115697619Y-73653390D01*
X115697619Y-73653390D02*
X115697619Y-73796247D01*
X115697619Y-73796247D02*
X115745238Y-73986723D01*
X115745238Y-73986723D02*
X115792857Y-74081961D01*
X115792857Y-74081961D02*
X115888095Y-74177200D01*
X115888095Y-74177200D02*
X116030952Y-74224819D01*
X116030952Y-74224819D02*
X116269047Y-74224819D01*
X114840476Y-73558152D02*
X114840476Y-74224819D01*
X115269047Y-73558152D02*
X115269047Y-74081961D01*
X115269047Y-74081961D02*
X115221428Y-74177200D01*
X115221428Y-74177200D02*
X115126190Y-74224819D01*
X115126190Y-74224819D02*
X114983333Y-74224819D01*
X114983333Y-74224819D02*
X114888095Y-74177200D01*
X114888095Y-74177200D02*
X114840476Y-74129580D01*
X114364285Y-74224819D02*
X114364285Y-73558152D01*
X114364285Y-73748628D02*
X114316666Y-73653390D01*
X114316666Y-73653390D02*
X114269047Y-73605771D01*
X114269047Y-73605771D02*
X114173809Y-73558152D01*
X114173809Y-73558152D02*
X114078571Y-73558152D01*
X113316666Y-74224819D02*
X113316666Y-73701009D01*
X113316666Y-73701009D02*
X113364285Y-73605771D01*
X113364285Y-73605771D02*
X113459523Y-73558152D01*
X113459523Y-73558152D02*
X113649999Y-73558152D01*
X113649999Y-73558152D02*
X113745237Y-73605771D01*
X113316666Y-74177200D02*
X113411904Y-74224819D01*
X113411904Y-74224819D02*
X113649999Y-74224819D01*
X113649999Y-74224819D02*
X113745237Y-74177200D01*
X113745237Y-74177200D02*
X113792856Y-74081961D01*
X113792856Y-74081961D02*
X113792856Y-73986723D01*
X113792856Y-73986723D02*
X113745237Y-73891485D01*
X113745237Y-73891485D02*
X113649999Y-73843866D01*
X113649999Y-73843866D02*
X113411904Y-73843866D01*
X113411904Y-73843866D02*
X113316666Y-73796247D01*
X112983332Y-73558152D02*
X112602380Y-73558152D01*
X112840475Y-74224819D02*
X112840475Y-73367676D01*
X112840475Y-73367676D02*
X112792856Y-73272438D01*
X112792856Y-73272438D02*
X112697618Y-73224819D01*
X112697618Y-73224819D02*
X112602380Y-73224819D01*
X111888094Y-74177200D02*
X111983332Y-74224819D01*
X111983332Y-74224819D02*
X112173808Y-74224819D01*
X112173808Y-74224819D02*
X112269046Y-74177200D01*
X112269046Y-74177200D02*
X112316665Y-74081961D01*
X112316665Y-74081961D02*
X112316665Y-73701009D01*
X112316665Y-73701009D02*
X112269046Y-73605771D01*
X112269046Y-73605771D02*
X112173808Y-73558152D01*
X112173808Y-73558152D02*
X111983332Y-73558152D01*
X111983332Y-73558152D02*
X111888094Y-73605771D01*
X111888094Y-73605771D02*
X111840475Y-73701009D01*
X111840475Y-73701009D02*
X111840475Y-73796247D01*
X111840475Y-73796247D02*
X112316665Y-73891485D01*
X111554760Y-73558152D02*
X111173808Y-73558152D01*
X111411903Y-73224819D02*
X111411903Y-74081961D01*
X111411903Y-74081961D02*
X111364284Y-74177200D01*
X111364284Y-74177200D02*
X111269046Y-74224819D01*
X111269046Y-74224819D02*
X111173808Y-74224819D01*
X110078569Y-74224819D02*
X110078569Y-73224819D01*
X109602379Y-74224819D02*
X109602379Y-73224819D01*
X109602379Y-73224819D02*
X109030951Y-74224819D01*
X109030951Y-74224819D02*
X109030951Y-73224819D01*
X172410000Y-82719104D02*
X171933810Y-82719104D01*
X172505238Y-83004819D02*
X172171905Y-82004819D01*
X172171905Y-82004819D02*
X171838572Y-83004819D01*
X171076667Y-83004819D02*
X171076667Y-82004819D01*
X171076667Y-82957200D02*
X171171905Y-83004819D01*
X171171905Y-83004819D02*
X171362381Y-83004819D01*
X171362381Y-83004819D02*
X171457619Y-82957200D01*
X171457619Y-82957200D02*
X171505238Y-82909580D01*
X171505238Y-82909580D02*
X171552857Y-82814342D01*
X171552857Y-82814342D02*
X171552857Y-82528628D01*
X171552857Y-82528628D02*
X171505238Y-82433390D01*
X171505238Y-82433390D02*
X171457619Y-82385771D01*
X171457619Y-82385771D02*
X171362381Y-82338152D01*
X171362381Y-82338152D02*
X171171905Y-82338152D01*
X171171905Y-82338152D02*
X171076667Y-82385771D01*
X170171905Y-83004819D02*
X170171905Y-82481009D01*
X170171905Y-82481009D02*
X170219524Y-82385771D01*
X170219524Y-82385771D02*
X170314762Y-82338152D01*
X170314762Y-82338152D02*
X170505238Y-82338152D01*
X170505238Y-82338152D02*
X170600476Y-82385771D01*
X170171905Y-82957200D02*
X170267143Y-83004819D01*
X170267143Y-83004819D02*
X170505238Y-83004819D01*
X170505238Y-83004819D02*
X170600476Y-82957200D01*
X170600476Y-82957200D02*
X170648095Y-82861961D01*
X170648095Y-82861961D02*
X170648095Y-82766723D01*
X170648095Y-82766723D02*
X170600476Y-82671485D01*
X170600476Y-82671485D02*
X170505238Y-82623866D01*
X170505238Y-82623866D02*
X170267143Y-82623866D01*
X170267143Y-82623866D02*
X170171905Y-82576247D01*
X169552857Y-83004819D02*
X169648095Y-82957200D01*
X169648095Y-82957200D02*
X169695714Y-82861961D01*
X169695714Y-82861961D02*
X169695714Y-82004819D01*
X169029047Y-83004819D02*
X169124285Y-82957200D01*
X169124285Y-82957200D02*
X169171904Y-82909580D01*
X169171904Y-82909580D02*
X169219523Y-82814342D01*
X169219523Y-82814342D02*
X169219523Y-82528628D01*
X169219523Y-82528628D02*
X169171904Y-82433390D01*
X169171904Y-82433390D02*
X169124285Y-82385771D01*
X169124285Y-82385771D02*
X169029047Y-82338152D01*
X169029047Y-82338152D02*
X168886190Y-82338152D01*
X168886190Y-82338152D02*
X168790952Y-82385771D01*
X168790952Y-82385771D02*
X168743333Y-82433390D01*
X168743333Y-82433390D02*
X168695714Y-82528628D01*
X168695714Y-82528628D02*
X168695714Y-82814342D01*
X168695714Y-82814342D02*
X168743333Y-82909580D01*
X168743333Y-82909580D02*
X168790952Y-82957200D01*
X168790952Y-82957200D02*
X168886190Y-83004819D01*
X168886190Y-83004819D02*
X169029047Y-83004819D01*
X167838571Y-82338152D02*
X167838571Y-83147676D01*
X167838571Y-83147676D02*
X167886190Y-83242914D01*
X167886190Y-83242914D02*
X167933809Y-83290533D01*
X167933809Y-83290533D02*
X168029047Y-83338152D01*
X168029047Y-83338152D02*
X168171904Y-83338152D01*
X168171904Y-83338152D02*
X168267142Y-83290533D01*
X167838571Y-82957200D02*
X167933809Y-83004819D01*
X167933809Y-83004819D02*
X168124285Y-83004819D01*
X168124285Y-83004819D02*
X168219523Y-82957200D01*
X168219523Y-82957200D02*
X168267142Y-82909580D01*
X168267142Y-82909580D02*
X168314761Y-82814342D01*
X168314761Y-82814342D02*
X168314761Y-82528628D01*
X168314761Y-82528628D02*
X168267142Y-82433390D01*
X168267142Y-82433390D02*
X168219523Y-82385771D01*
X168219523Y-82385771D02*
X168124285Y-82338152D01*
X168124285Y-82338152D02*
X167933809Y-82338152D01*
X167933809Y-82338152D02*
X167838571Y-82385771D01*
X166933809Y-82338152D02*
X166933809Y-83147676D01*
X166933809Y-83147676D02*
X166981428Y-83242914D01*
X166981428Y-83242914D02*
X167029047Y-83290533D01*
X167029047Y-83290533D02*
X167124285Y-83338152D01*
X167124285Y-83338152D02*
X167267142Y-83338152D01*
X167267142Y-83338152D02*
X167362380Y-83290533D01*
X166933809Y-82957200D02*
X167029047Y-83004819D01*
X167029047Y-83004819D02*
X167219523Y-83004819D01*
X167219523Y-83004819D02*
X167314761Y-82957200D01*
X167314761Y-82957200D02*
X167362380Y-82909580D01*
X167362380Y-82909580D02*
X167409999Y-82814342D01*
X167409999Y-82814342D02*
X167409999Y-82528628D01*
X167409999Y-82528628D02*
X167362380Y-82433390D01*
X167362380Y-82433390D02*
X167314761Y-82385771D01*
X167314761Y-82385771D02*
X167219523Y-82338152D01*
X167219523Y-82338152D02*
X167029047Y-82338152D01*
X167029047Y-82338152D02*
X166933809Y-82385771D01*
X166076666Y-82957200D02*
X166171904Y-83004819D01*
X166171904Y-83004819D02*
X166362380Y-83004819D01*
X166362380Y-83004819D02*
X166457618Y-82957200D01*
X166457618Y-82957200D02*
X166505237Y-82861961D01*
X166505237Y-82861961D02*
X166505237Y-82481009D01*
X166505237Y-82481009D02*
X166457618Y-82385771D01*
X166457618Y-82385771D02*
X166362380Y-82338152D01*
X166362380Y-82338152D02*
X166171904Y-82338152D01*
X166171904Y-82338152D02*
X166076666Y-82385771D01*
X166076666Y-82385771D02*
X166029047Y-82481009D01*
X166029047Y-82481009D02*
X166029047Y-82576247D01*
X166029047Y-82576247D02*
X166505237Y-82671485D01*
X165600475Y-83004819D02*
X165600475Y-82338152D01*
X165600475Y-82528628D02*
X165552856Y-82433390D01*
X165552856Y-82433390D02*
X165505237Y-82385771D01*
X165505237Y-82385771D02*
X165409999Y-82338152D01*
X165409999Y-82338152D02*
X165314761Y-82338152D01*
X106677333Y-85052819D02*
X106677333Y-85767104D01*
X106677333Y-85767104D02*
X106724952Y-85909961D01*
X106724952Y-85909961D02*
X106820190Y-86005200D01*
X106820190Y-86005200D02*
X106963047Y-86052819D01*
X106963047Y-86052819D02*
X107058285Y-86052819D01*
X106248761Y-85148057D02*
X106201142Y-85100438D01*
X106201142Y-85100438D02*
X106105904Y-85052819D01*
X106105904Y-85052819D02*
X105867809Y-85052819D01*
X105867809Y-85052819D02*
X105772571Y-85100438D01*
X105772571Y-85100438D02*
X105724952Y-85148057D01*
X105724952Y-85148057D02*
X105677333Y-85243295D01*
X105677333Y-85243295D02*
X105677333Y-85338533D01*
X105677333Y-85338533D02*
X105724952Y-85481390D01*
X105724952Y-85481390D02*
X106296380Y-86052819D01*
X106296380Y-86052819D02*
X105677333Y-86052819D01*
X127166666Y-69415819D02*
X127499999Y-68939628D01*
X127738094Y-69415819D02*
X127738094Y-68415819D01*
X127738094Y-68415819D02*
X127357142Y-68415819D01*
X127357142Y-68415819D02*
X127261904Y-68463438D01*
X127261904Y-68463438D02*
X127214285Y-68511057D01*
X127214285Y-68511057D02*
X127166666Y-68606295D01*
X127166666Y-68606295D02*
X127166666Y-68749152D01*
X127166666Y-68749152D02*
X127214285Y-68844390D01*
X127214285Y-68844390D02*
X127261904Y-68892009D01*
X127261904Y-68892009D02*
X127357142Y-68939628D01*
X127357142Y-68939628D02*
X127738094Y-68939628D01*
X126261904Y-68415819D02*
X126738094Y-68415819D01*
X126738094Y-68415819D02*
X126785713Y-68892009D01*
X126785713Y-68892009D02*
X126738094Y-68844390D01*
X126738094Y-68844390D02*
X126642856Y-68796771D01*
X126642856Y-68796771D02*
X126404761Y-68796771D01*
X126404761Y-68796771D02*
X126309523Y-68844390D01*
X126309523Y-68844390D02*
X126261904Y-68892009D01*
X126261904Y-68892009D02*
X126214285Y-68987247D01*
X126214285Y-68987247D02*
X126214285Y-69225342D01*
X126214285Y-69225342D02*
X126261904Y-69320580D01*
X126261904Y-69320580D02*
X126309523Y-69368200D01*
X126309523Y-69368200D02*
X126404761Y-69415819D01*
X126404761Y-69415819D02*
X126642856Y-69415819D01*
X126642856Y-69415819D02*
X126738094Y-69368200D01*
X126738094Y-69368200D02*
X126785713Y-69320580D01*
X148796285Y-70273104D02*
X148320095Y-70273104D01*
X148891523Y-70558819D02*
X148558190Y-69558819D01*
X148558190Y-69558819D02*
X148224857Y-70558819D01*
X147367714Y-70558819D02*
X147939142Y-70558819D01*
X147653428Y-70558819D02*
X147653428Y-69558819D01*
X147653428Y-69558819D02*
X147748666Y-69701676D01*
X147748666Y-69701676D02*
X147843904Y-69796914D01*
X147843904Y-69796914D02*
X147939142Y-69844533D01*
X115990666Y-97205580D02*
X116038285Y-97253200D01*
X116038285Y-97253200D02*
X116181142Y-97300819D01*
X116181142Y-97300819D02*
X116276380Y-97300819D01*
X116276380Y-97300819D02*
X116419237Y-97253200D01*
X116419237Y-97253200D02*
X116514475Y-97157961D01*
X116514475Y-97157961D02*
X116562094Y-97062723D01*
X116562094Y-97062723D02*
X116609713Y-96872247D01*
X116609713Y-96872247D02*
X116609713Y-96729390D01*
X116609713Y-96729390D02*
X116562094Y-96538914D01*
X116562094Y-96538914D02*
X116514475Y-96443676D01*
X116514475Y-96443676D02*
X116419237Y-96348438D01*
X116419237Y-96348438D02*
X116276380Y-96300819D01*
X116276380Y-96300819D02*
X116181142Y-96300819D01*
X116181142Y-96300819D02*
X116038285Y-96348438D01*
X116038285Y-96348438D02*
X115990666Y-96396057D01*
X115085904Y-96300819D02*
X115562094Y-96300819D01*
X115562094Y-96300819D02*
X115609713Y-96777009D01*
X115609713Y-96777009D02*
X115562094Y-96729390D01*
X115562094Y-96729390D02*
X115466856Y-96681771D01*
X115466856Y-96681771D02*
X115228761Y-96681771D01*
X115228761Y-96681771D02*
X115133523Y-96729390D01*
X115133523Y-96729390D02*
X115085904Y-96777009D01*
X115085904Y-96777009D02*
X115038285Y-96872247D01*
X115038285Y-96872247D02*
X115038285Y-97110342D01*
X115038285Y-97110342D02*
X115085904Y-97205580D01*
X115085904Y-97205580D02*
X115133523Y-97253200D01*
X115133523Y-97253200D02*
X115228761Y-97300819D01*
X115228761Y-97300819D02*
X115466856Y-97300819D01*
X115466856Y-97300819D02*
X115562094Y-97253200D01*
X115562094Y-97253200D02*
X115609713Y-97205580D01*
X106677333Y-68034819D02*
X106677333Y-68749104D01*
X106677333Y-68749104D02*
X106724952Y-68891961D01*
X106724952Y-68891961D02*
X106820190Y-68987200D01*
X106820190Y-68987200D02*
X106963047Y-69034819D01*
X106963047Y-69034819D02*
X107058285Y-69034819D01*
X105677333Y-69034819D02*
X106248761Y-69034819D01*
X105963047Y-69034819D02*
X105963047Y-68034819D01*
X105963047Y-68034819D02*
X106058285Y-68177676D01*
X106058285Y-68177676D02*
X106153523Y-68272914D01*
X106153523Y-68272914D02*
X106248761Y-68320533D01*
X120308666Y-67415580D02*
X120356285Y-67463200D01*
X120356285Y-67463200D02*
X120499142Y-67510819D01*
X120499142Y-67510819D02*
X120594380Y-67510819D01*
X120594380Y-67510819D02*
X120737237Y-67463200D01*
X120737237Y-67463200D02*
X120832475Y-67367961D01*
X120832475Y-67367961D02*
X120880094Y-67272723D01*
X120880094Y-67272723D02*
X120927713Y-67082247D01*
X120927713Y-67082247D02*
X120927713Y-66939390D01*
X120927713Y-66939390D02*
X120880094Y-66748914D01*
X120880094Y-66748914D02*
X120832475Y-66653676D01*
X120832475Y-66653676D02*
X120737237Y-66558438D01*
X120737237Y-66558438D02*
X120594380Y-66510819D01*
X120594380Y-66510819D02*
X120499142Y-66510819D01*
X120499142Y-66510819D02*
X120356285Y-66558438D01*
X120356285Y-66558438D02*
X120308666Y-66606057D01*
X119356285Y-67510819D02*
X119927713Y-67510819D01*
X119641999Y-67510819D02*
X119641999Y-66510819D01*
X119641999Y-66510819D02*
X119737237Y-66653676D01*
X119737237Y-66653676D02*
X119832475Y-66748914D01*
X119832475Y-66748914D02*
X119927713Y-66796533D01*
D11*
X108274000Y-84522000D02*
X116904000Y-84522000D01*
X108274000Y-87122000D02*
X116904000Y-87122000D01*
X108274000Y-89662000D02*
X116904000Y-89662000D01*
X108274000Y-89898195D02*
X116904000Y-89898195D01*
X108274000Y-90134385D02*
X116904000Y-90134385D01*
X108274000Y-90370575D02*
X116904000Y-90370575D01*
X108274000Y-90606765D02*
X116904000Y-90606765D01*
X108274000Y-90842955D02*
X116904000Y-90842955D01*
X108274000Y-91079145D02*
X116904000Y-91079145D01*
X108274000Y-91315335D02*
X116904000Y-91315335D01*
X108274000Y-91551525D02*
X116904000Y-91551525D01*
X108274000Y-91787715D02*
X116904000Y-91787715D01*
X108274000Y-92023905D02*
X116904000Y-92023905D01*
X108274000Y-92262000D02*
X108274000Y-84522000D01*
X108274000Y-92262000D02*
X116904000Y-92262000D01*
X116904000Y-85492000D02*
X117314000Y-85492000D01*
X116904000Y-86212000D02*
X117314000Y-86212000D01*
X116904000Y-88032000D02*
X117314000Y-88032000D01*
X116904000Y-88752000D02*
X117314000Y-88752000D01*
X116904000Y-90572000D02*
X117254000Y-90572000D01*
X116904000Y-91292000D02*
X117254000Y-91292000D01*
X116904000Y-92262000D02*
X116904000Y-84522000D01*
X118364000Y-92262000D02*
X119474000Y-92262000D01*
X119474000Y-92262000D02*
X119474000Y-90932000D01*
X124572500Y-69192224D02*
X124572500Y-68682776D01*
X125617500Y-69192224D02*
X125617500Y-68682776D01*
D12*
X194310000Y-91694000D02*
X194310000Y-73914000D01*
X191770000Y-71374000D02*
X146050000Y-71374000D01*
X146050000Y-94234000D02*
X191770000Y-94234000D01*
X143510000Y-73914000D02*
X143510000Y-91694000D01*
X191770000Y-94234000D02*
G75*
G03*
X194310000Y-91694000I-1J2540001D01*
G01*
X194310000Y-73914000D02*
G75*
G03*
X191770000Y-71374000I-2540001J-1D01*
G01*
X143510000Y-91694000D02*
G75*
G03*
X146050000Y-94234000I2540000J0D01*
G01*
X146050000Y-71374000D02*
G75*
G03*
X143510000Y-73914000I0J-2540000D01*
G01*
D11*
X115112748Y-94086000D02*
X116535252Y-94086000D01*
X115112748Y-95906000D02*
X116535252Y-95906000D01*
X108274000Y-67504000D02*
X116904000Y-67504000D01*
X108274000Y-70104000D02*
X116904000Y-70104000D01*
X108274000Y-72644000D02*
X116904000Y-72644000D01*
X108274000Y-75184000D02*
X116904000Y-75184000D01*
X108274000Y-77724000D02*
X116904000Y-77724000D01*
X108274000Y-80264000D02*
X116904000Y-80264000D01*
X108274000Y-82864000D02*
X108274000Y-67504000D01*
X108274000Y-82864000D02*
X116904000Y-82864000D01*
X116904000Y-68474000D02*
X117314000Y-68474000D01*
X116904000Y-69194000D02*
X117314000Y-69194000D01*
X116904000Y-71014000D02*
X117314000Y-71014000D01*
X116904000Y-71734000D02*
X117314000Y-71734000D01*
X116904000Y-73554000D02*
X117314000Y-73554000D01*
X116904000Y-74274000D02*
X117314000Y-74274000D01*
X116904000Y-76094000D02*
X117314000Y-76094000D01*
X116904000Y-76814000D02*
X117314000Y-76814000D01*
X116904000Y-78634000D02*
X117314000Y-78634000D01*
X116904000Y-79354000D02*
X117314000Y-79354000D01*
X116904000Y-81174000D02*
X117254000Y-81174000D01*
X116904000Y-81894000D02*
X117254000Y-81894000D01*
X116904000Y-82864000D02*
X116904000Y-67504000D01*
X118364000Y-82864000D02*
X119474000Y-82864000D01*
X119474000Y-82864000D02*
X119474000Y-81534000D01*
X121010000Y-70561252D02*
X121010000Y-69138748D01*
X122830000Y-70561252D02*
X122830000Y-69138748D01*
%LPC*%
D13*
X139446000Y-97155000D03*
X157226000Y-97155000D03*
D14*
X190500000Y-68580000D03*
D15*
X121920000Y-74295000D03*
D16*
X121920000Y-76835000D03*
X121920000Y-79375000D03*
X121920000Y-81915000D03*
X121920000Y-84455000D03*
X121920000Y-86995000D03*
X134620000Y-74295000D03*
X134620000Y-76835000D03*
X134620000Y-79375000D03*
X134620000Y-81915000D03*
X134620000Y-84455000D03*
X134620000Y-86995000D03*
D14*
X190500000Y-97155000D03*
D17*
X159512000Y-76454000D03*
D18*
X159512000Y-78994000D03*
X159512000Y-81534000D03*
X159512000Y-84074000D03*
D19*
X159512000Y-86614000D03*
D18*
X159512000Y-89154000D03*
D15*
X140970000Y-76200000D03*
D16*
X140970000Y-78740000D03*
X140970000Y-81280000D03*
X140970000Y-83820000D03*
X140970000Y-86360000D03*
X140970000Y-88900000D03*
X153670000Y-76200000D03*
X153670000Y-78740000D03*
X153670000Y-81280000D03*
X153670000Y-83820000D03*
X153670000Y-86360000D03*
X153670000Y-88900000D03*
D14*
X134620000Y-95885000D03*
D20*
X103378000Y-96520000D03*
D17*
X103378000Y-93980000D03*
X105918000Y-96520000D03*
X105918000Y-93980000D03*
X108458000Y-96520000D03*
X108458000Y-93980000D03*
X110998000Y-96520000D03*
X110998000Y-93980000D03*
D19*
X118364000Y-90932000D03*
D18*
X118364000Y-88392000D03*
X118364000Y-85852000D03*
D21*
X125095000Y-69850000D03*
X125095000Y-68025000D03*
D22*
X187960000Y-92964000D03*
X185420000Y-92964000D03*
X182880000Y-92964000D03*
X180340000Y-92964000D03*
X177800000Y-92964000D03*
X175260000Y-92964000D03*
X172720000Y-92964000D03*
X170180000Y-92964000D03*
X167640000Y-92964000D03*
X165100000Y-92964000D03*
X162560000Y-92964000D03*
X160020000Y-92964000D03*
X157480000Y-92964000D03*
X154940000Y-92964000D03*
X152400000Y-92964000D03*
X149860000Y-92964000D03*
X149860000Y-72644000D03*
X152400000Y-72644000D03*
X154940000Y-72644000D03*
X157480000Y-72644000D03*
X160020000Y-72644000D03*
X162560000Y-72644000D03*
X165100000Y-72644000D03*
X167640000Y-72644000D03*
X170180000Y-72644000D03*
X172720000Y-72644000D03*
X175260000Y-72644000D03*
X177800000Y-72644000D03*
D23*
X114261500Y-94996000D03*
X117386500Y-94996000D03*
D19*
X118364000Y-81534000D03*
D18*
X118364000Y-78994000D03*
X118364000Y-76454000D03*
X118364000Y-73914000D03*
X118364000Y-71374000D03*
X118364000Y-68834000D03*
D24*
X121920000Y-71412500D03*
X121920000Y-68287500D03*
%LPD*%
M02*
