G04 #@! TF.GenerationSoftware,KiCad,Pcbnew,7.0.8*
G04 #@! TF.CreationDate,2024-01-13T09:37:12-08:00*
G04 #@! TF.ProjectId,ph-sensor,70682d73-656e-4736-9f72-2e6b69636164,rev?*
G04 #@! TF.SameCoordinates,Original*
G04 #@! TF.FileFunction,Copper,L2,Bot*
G04 #@! TF.FilePolarity,Positive*
%FSLAX46Y46*%
G04 Gerber Fmt 4.6, Leading zero omitted, Abs format (unit mm)*
G04 Created by KiCad (PCBNEW 7.0.8) date 2024-01-13 09:37:12*
%MOMM*%
%LPD*%
G01*
G04 APERTURE LIST*
G04 Aperture macros list*
%AMRoundRect*
0 Rectangle with rounded corners*
0 $1 Rounding radius*
0 $2 $3 $4 $5 $6 $7 $8 $9 X,Y pos of 4 corners*
0 Add a 4 corners polygon primitive as box body*
4,1,4,$2,$3,$4,$5,$6,$7,$8,$9,$2,$3,0*
0 Add four circle primitives for the rounded corners*
1,1,$1+$1,$2,$3*
1,1,$1+$1,$4,$5*
1,1,$1+$1,$6,$7*
1,1,$1+$1,$8,$9*
0 Add four rect primitives between the rounded corners*
20,1,$1+$1,$2,$3,$4,$5,0*
20,1,$1+$1,$4,$5,$6,$7,0*
20,1,$1+$1,$6,$7,$8,$9,0*
20,1,$1+$1,$8,$9,$2,$3,0*%
G04 Aperture macros list end*
G04 #@! TA.AperFunction,ComponentPad*
%ADD10C,1.676400*%
G04 #@! TD*
G04 #@! TA.AperFunction,ComponentPad*
%ADD11C,3.200000*%
G04 #@! TD*
G04 #@! TA.AperFunction,ComponentPad*
%ADD12R,1.778000X1.778000*%
G04 #@! TD*
G04 #@! TA.AperFunction,ComponentPad*
%ADD13C,1.778000*%
G04 #@! TD*
G04 #@! TA.AperFunction,ComponentPad*
%ADD14C,1.700000*%
G04 #@! TD*
G04 #@! TA.AperFunction,ComponentPad*
%ADD15O,1.700000X1.700000*%
G04 #@! TD*
G04 #@! TA.AperFunction,ComponentPad*
%ADD16R,1.700000X1.700000*%
G04 #@! TD*
G04 #@! TA.AperFunction,ComponentPad*
%ADD17R,1.524000X1.524000*%
G04 #@! TD*
G04 #@! TA.AperFunction,SMDPad,CuDef*
%ADD18RoundRect,0.237500X0.237500X-0.250000X0.237500X0.250000X-0.237500X0.250000X-0.237500X-0.250000X0*%
G04 #@! TD*
G04 #@! TA.AperFunction,ComponentPad*
%ADD19C,1.530000*%
G04 #@! TD*
G04 #@! TA.AperFunction,SMDPad,CuDef*
%ADD20RoundRect,0.250000X-0.412500X-0.650000X0.412500X-0.650000X0.412500X0.650000X-0.412500X0.650000X0*%
G04 #@! TD*
G04 #@! TA.AperFunction,SMDPad,CuDef*
%ADD21RoundRect,0.250000X0.650000X-0.412500X0.650000X0.412500X-0.650000X0.412500X-0.650000X-0.412500X0*%
G04 #@! TD*
G04 #@! TA.AperFunction,ViaPad*
%ADD22C,0.800000*%
G04 #@! TD*
G04 #@! TA.AperFunction,Conductor*
%ADD23C,0.250000*%
G04 #@! TD*
G04 APERTURE END LIST*
D10*
X139446000Y-97155000D03*
X157226000Y-97155000D03*
D11*
X190500000Y-68580000D03*
D12*
X121920000Y-74295000D03*
D13*
X121920000Y-76835000D03*
X121920000Y-79375000D03*
X121920000Y-81915000D03*
X121920000Y-84455000D03*
X121920000Y-86995000D03*
X134620000Y-74295000D03*
X134620000Y-76835000D03*
X134620000Y-79375000D03*
X134620000Y-81915000D03*
X134620000Y-84455000D03*
X134620000Y-86995000D03*
D11*
X190500000Y-97155000D03*
D14*
X159512000Y-76454000D03*
D15*
X159512000Y-78994000D03*
X159512000Y-81534000D03*
X159512000Y-84074000D03*
D16*
X159512000Y-86614000D03*
D15*
X159512000Y-89154000D03*
D12*
X140970000Y-76200000D03*
D13*
X140970000Y-78740000D03*
X140970000Y-81280000D03*
X140970000Y-83820000D03*
X140970000Y-86360000D03*
X140970000Y-88900000D03*
X153670000Y-76200000D03*
X153670000Y-78740000D03*
X153670000Y-81280000D03*
X153670000Y-83820000D03*
X153670000Y-86360000D03*
X153670000Y-88900000D03*
D11*
X134620000Y-95885000D03*
D17*
X103378000Y-96520000D03*
D14*
X103378000Y-93980000D03*
X105918000Y-96520000D03*
X105918000Y-93980000D03*
X108458000Y-96520000D03*
X108458000Y-93980000D03*
X110998000Y-96520000D03*
X110998000Y-93980000D03*
D16*
X118364000Y-90932000D03*
D15*
X118364000Y-88392000D03*
X118364000Y-85852000D03*
D18*
X125095000Y-69850000D03*
X125095000Y-68025000D03*
D19*
X187960000Y-92964000D03*
X185420000Y-92964000D03*
X182880000Y-92964000D03*
X180340000Y-92964000D03*
X177800000Y-92964000D03*
X175260000Y-92964000D03*
X172720000Y-92964000D03*
X170180000Y-92964000D03*
X167640000Y-92964000D03*
X165100000Y-92964000D03*
X162560000Y-92964000D03*
X160020000Y-92964000D03*
X157480000Y-92964000D03*
X154940000Y-92964000D03*
X152400000Y-92964000D03*
X149860000Y-92964000D03*
X149860000Y-72644000D03*
X152400000Y-72644000D03*
X154940000Y-72644000D03*
X157480000Y-72644000D03*
X160020000Y-72644000D03*
X162560000Y-72644000D03*
X165100000Y-72644000D03*
X167640000Y-72644000D03*
X170180000Y-72644000D03*
X172720000Y-72644000D03*
X175260000Y-72644000D03*
X177800000Y-72644000D03*
D20*
X114261500Y-94996000D03*
X117386500Y-94996000D03*
D16*
X118364000Y-81534000D03*
D15*
X118364000Y-78994000D03*
X118364000Y-76454000D03*
X118364000Y-73914000D03*
X118364000Y-71374000D03*
X118364000Y-68834000D03*
D21*
X121920000Y-71412500D03*
X121920000Y-68287500D03*
D22*
X123190000Y-88646000D03*
X169672000Y-69850000D03*
X166624000Y-96520000D03*
X157480000Y-69850000D03*
X121920000Y-92456000D03*
X124714000Y-72644000D03*
X114300000Y-81280000D03*
X119380000Y-97028000D03*
X177800000Y-89408000D03*
X145034000Y-89662000D03*
X128778000Y-68834000D03*
D23*
X130810000Y-85725000D02*
X118491000Y-85725000D01*
X134620000Y-81915000D02*
X130810000Y-85725000D01*
X134620000Y-81915000D02*
X136906000Y-81915000D01*
X127969000Y-68025000D02*
X125095000Y-68025000D01*
X121373500Y-68834000D02*
X121920000Y-68287500D01*
X136906000Y-81915000D02*
X140081000Y-78740000D01*
X121920000Y-92456000D02*
X119888000Y-92456000D01*
X140081000Y-78740000D02*
X140970000Y-78740000D01*
X119888000Y-92456000D02*
X117386500Y-94957500D01*
X118364000Y-68834000D02*
X121373500Y-68834000D01*
X128778000Y-68834000D02*
X127969000Y-68025000D01*
X125095000Y-68025000D02*
X122182500Y-68025000D01*
X157861000Y-72644000D02*
X163830000Y-78613000D01*
X163830000Y-78613000D02*
X163830000Y-93599000D01*
X147844000Y-94504000D02*
X146050000Y-92710000D01*
X121920000Y-99060000D02*
X108458000Y-99060000D01*
X108458000Y-99060000D02*
X105918000Y-96520000D01*
X128270000Y-92710000D02*
X121920000Y-99060000D01*
X162925000Y-94504000D02*
X147844000Y-94504000D01*
X146050000Y-92710000D02*
X128270000Y-92710000D01*
X163830000Y-93599000D02*
X162925000Y-94504000D01*
X137160000Y-85725000D02*
X140335000Y-82550000D01*
X133985000Y-85725000D02*
X137160000Y-85725000D01*
X102362000Y-95250000D02*
X101854000Y-94742000D01*
X104648000Y-95250000D02*
X102362000Y-95250000D01*
X149151000Y-71120000D02*
X161036000Y-71120000D01*
X130048000Y-89662000D02*
X133985000Y-85725000D01*
X140335000Y-82550000D02*
X141478000Y-82550000D01*
X101854000Y-94742000D02*
X101854000Y-93726000D01*
X105918000Y-89662000D02*
X130048000Y-89662000D01*
X105918000Y-93980000D02*
X104648000Y-95250000D01*
X147955000Y-76073000D02*
X147955000Y-72316000D01*
X141478000Y-82550000D02*
X147955000Y-76073000D01*
X161036000Y-71120000D02*
X162560000Y-72644000D01*
X147955000Y-72316000D02*
X149151000Y-71120000D01*
X101854000Y-93726000D02*
X105918000Y-89662000D01*
X127635000Y-92075000D02*
X146425654Y-92075000D01*
X110363000Y-98425000D02*
X121285000Y-98425000D01*
X161470000Y-94054000D02*
X162560000Y-92964000D01*
X108458000Y-96520000D02*
X110363000Y-98425000D01*
X148404654Y-94054000D02*
X161470000Y-94054000D01*
X146425654Y-92075000D02*
X148404654Y-94054000D01*
X121285000Y-98425000D02*
X127635000Y-92075000D01*
X120650620Y-90805000D02*
X157861000Y-90805000D01*
X119348620Y-92107000D02*
X120650620Y-90805000D01*
X115824000Y-93980000D02*
X117697000Y-92107000D01*
X109728000Y-95250000D02*
X112014000Y-95250000D01*
X117697000Y-92107000D02*
X119348620Y-92107000D01*
X114613174Y-96520000D02*
X115824000Y-95309174D01*
X108458000Y-93980000D02*
X109728000Y-95250000D01*
X113284000Y-96520000D02*
X114613174Y-96520000D01*
X112014000Y-95250000D02*
X113284000Y-96520000D01*
X157861000Y-90805000D02*
X160020000Y-92964000D01*
X115824000Y-95309174D02*
X115824000Y-93980000D01*
X112395000Y-97790000D02*
X120584597Y-97790000D01*
X126934597Y-91440000D02*
X155956000Y-91440000D01*
X155956000Y-91440000D02*
X157480000Y-92964000D01*
X120584597Y-97790000D02*
X126934597Y-91440000D01*
X111125000Y-96520000D02*
X112395000Y-97790000D01*
X140429933Y-80010000D02*
X136111933Y-84328000D01*
X142494000Y-79052874D02*
X141536874Y-80010000D01*
X141536874Y-80010000D02*
X140429933Y-80010000D01*
X121920000Y-71412500D02*
X123532500Y-71412500D01*
X125095000Y-69850000D02*
X136857620Y-69850000D01*
X120865500Y-71412500D02*
X118364000Y-73914000D01*
X123532500Y-71412500D02*
X125095000Y-69850000D01*
X142494000Y-75486380D02*
X142494000Y-79052874D01*
X136857620Y-69850000D02*
X142494000Y-75486380D01*
X121920000Y-71412500D02*
X120865500Y-71412500D01*
X136111933Y-84328000D02*
X134747000Y-84328000D01*
X149860000Y-75184000D02*
X141224000Y-83820000D01*
X159512000Y-84074000D02*
X157988000Y-82550000D01*
X157988000Y-82550000D02*
X148590000Y-82550000D01*
X149860000Y-72644000D02*
X149860000Y-75184000D01*
X148590000Y-82550000D02*
X147320000Y-83820000D01*
X147320000Y-83820000D02*
X140970000Y-83820000D01*
X166370000Y-73914000D02*
X167640000Y-72644000D01*
X162803692Y-97155000D02*
X166370000Y-93588692D01*
X166370000Y-93588692D02*
X166370000Y-73914000D01*
X157226000Y-97155000D02*
X162803692Y-97155000D01*
X120015000Y-79883000D02*
X120015000Y-76200000D01*
X112268000Y-93472000D02*
X111506000Y-92710000D01*
X118364000Y-81534000D02*
X120015000Y-83185000D01*
X118364000Y-81534000D02*
X120015000Y-79883000D01*
X111506000Y-92710000D02*
X104648000Y-92710000D01*
X114808000Y-94488000D02*
X114808000Y-93472000D01*
X134079933Y-80645000D02*
X136525000Y-80645000D01*
X120015000Y-83185000D02*
X131539933Y-83185000D01*
X114808000Y-93472000D02*
X117348000Y-90932000D01*
X136525000Y-80645000D02*
X140970000Y-76200000D01*
X120015000Y-76200000D02*
X121920000Y-74295000D01*
X131539933Y-83185000D02*
X134079933Y-80645000D01*
X114300000Y-94996000D02*
X114808000Y-94488000D01*
X104648000Y-92710000D02*
X103378000Y-93980000D01*
X112268000Y-94488000D02*
X112268000Y-93472000D01*
X114261500Y-94996000D02*
X112776000Y-94996000D01*
X117348000Y-90932000D02*
X118364000Y-90932000D01*
X112776000Y-94996000D02*
X112268000Y-94488000D01*
X118364000Y-88392000D02*
X117189000Y-87217000D01*
X117189000Y-80169000D02*
X118364000Y-78994000D01*
X117189000Y-87217000D02*
X117189000Y-80169000D01*
G04 #@! TA.AperFunction,Conductor*
G36*
X103628000Y-97782000D02*
G01*
X104187828Y-97782000D01*
X104187844Y-97781999D01*
X104247372Y-97775598D01*
X104247379Y-97775596D01*
X104382086Y-97725354D01*
X104382093Y-97725350D01*
X104497187Y-97639190D01*
X104497190Y-97639187D01*
X104583350Y-97524093D01*
X104583354Y-97524086D01*
X104636125Y-97382599D01*
X104677996Y-97326666D01*
X104743460Y-97302248D01*
X104811733Y-97317099D01*
X104853881Y-97354808D01*
X104879498Y-97391393D01*
X104879504Y-97391400D01*
X104879505Y-97391401D01*
X105046599Y-97558495D01*
X105126741Y-97614611D01*
X105240165Y-97694032D01*
X105240167Y-97694033D01*
X105240170Y-97694035D01*
X105454337Y-97793903D01*
X105454343Y-97793904D01*
X105454344Y-97793905D01*
X105502220Y-97806733D01*
X105682592Y-97855063D01*
X105870918Y-97871539D01*
X105917999Y-97875659D01*
X105918000Y-97875659D01*
X105918001Y-97875659D01*
X105957234Y-97872226D01*
X106153408Y-97855063D01*
X106253873Y-97828143D01*
X106323722Y-97829806D01*
X106373647Y-97860237D01*
X106599729Y-98086319D01*
X106633214Y-98147642D01*
X106628230Y-98217334D01*
X106586358Y-98273267D01*
X106520894Y-98297684D01*
X106512048Y-98298000D01*
X103175362Y-98298000D01*
X103108323Y-98278315D01*
X103087681Y-98261681D01*
X102819681Y-97993681D01*
X102786196Y-97932358D01*
X102791180Y-97862666D01*
X102833052Y-97806733D01*
X102898516Y-97782316D01*
X102907362Y-97782000D01*
X103128000Y-97782000D01*
X103128000Y-96955501D01*
X103235685Y-97004680D01*
X103342237Y-97020000D01*
X103413763Y-97020000D01*
X103520315Y-97004680D01*
X103628000Y-96955501D01*
X103628000Y-97782000D01*
G37*
G04 #@! TD.AperFunction*
G04 #@! TA.AperFunction,Conductor*
G36*
X145806587Y-93355185D02*
G01*
X145827229Y-93371819D01*
X147343197Y-94887788D01*
X147353022Y-94900051D01*
X147353243Y-94899869D01*
X147358214Y-94905878D01*
X147379043Y-94925437D01*
X147408635Y-94953226D01*
X147429529Y-94974120D01*
X147435011Y-94978373D01*
X147439443Y-94982157D01*
X147473418Y-95014062D01*
X147490976Y-95023714D01*
X147507235Y-95034395D01*
X147523064Y-95046673D01*
X147565838Y-95065182D01*
X147571056Y-95067738D01*
X147611908Y-95090197D01*
X147631316Y-95095180D01*
X147649717Y-95101480D01*
X147668104Y-95109437D01*
X147711488Y-95116308D01*
X147714119Y-95116725D01*
X147719839Y-95117909D01*
X147764981Y-95129500D01*
X147785016Y-95129500D01*
X147804414Y-95131026D01*
X147824194Y-95134159D01*
X147824195Y-95134160D01*
X147824195Y-95134159D01*
X147824196Y-95134160D01*
X147870584Y-95129775D01*
X147876422Y-95129500D01*
X162842257Y-95129500D01*
X162857877Y-95131224D01*
X162857904Y-95130939D01*
X162865660Y-95131671D01*
X162865667Y-95131673D01*
X162934814Y-95129500D01*
X162964350Y-95129500D01*
X162971228Y-95128630D01*
X162977041Y-95128172D01*
X163023627Y-95126709D01*
X163042869Y-95121117D01*
X163061912Y-95117174D01*
X163081792Y-95114664D01*
X163125122Y-95097507D01*
X163130646Y-95095617D01*
X163134396Y-95094527D01*
X163175390Y-95082618D01*
X163192629Y-95072422D01*
X163210103Y-95063862D01*
X163228727Y-95056488D01*
X163228727Y-95056487D01*
X163228732Y-95056486D01*
X163266449Y-95029082D01*
X163271305Y-95025892D01*
X163311420Y-95002170D01*
X163325589Y-94987999D01*
X163340379Y-94975368D01*
X163356587Y-94963594D01*
X163386299Y-94927676D01*
X163390212Y-94923376D01*
X164213787Y-94099802D01*
X164226042Y-94089986D01*
X164225859Y-94089764D01*
X164231872Y-94084788D01*
X164231877Y-94084786D01*
X164262458Y-94052220D01*
X164322695Y-94016827D01*
X164392509Y-94019619D01*
X164423972Y-94035531D01*
X164454575Y-94056959D01*
X164464833Y-94064142D01*
X164636520Y-94144200D01*
X164665520Y-94157723D01*
X164666541Y-94158095D01*
X164666927Y-94158379D01*
X164670426Y-94160011D01*
X164670098Y-94160714D01*
X164722802Y-94199524D01*
X164747734Y-94264794D01*
X164733420Y-94333182D01*
X164711804Y-94362295D01*
X162580920Y-96493181D01*
X162519597Y-96526666D01*
X162493239Y-96529500D01*
X158486822Y-96529500D01*
X158419783Y-96509815D01*
X158385247Y-96476624D01*
X158380513Y-96469863D01*
X158255421Y-96291213D01*
X158089787Y-96125579D01*
X157897907Y-95991223D01*
X157685611Y-95892228D01*
X157685607Y-95892227D01*
X157685603Y-95892225D01*
X157459356Y-95831603D01*
X157459346Y-95831601D01*
X157226001Y-95811186D01*
X157225999Y-95811186D01*
X156992653Y-95831601D01*
X156992643Y-95831603D01*
X156766396Y-95892225D01*
X156766389Y-95892227D01*
X156766389Y-95892228D01*
X156554093Y-95991223D01*
X156362213Y-96125579D01*
X156362211Y-96125580D01*
X156362208Y-96125583D01*
X156196583Y-96291208D01*
X156196580Y-96291211D01*
X156196579Y-96291213D01*
X156071487Y-96469863D01*
X156062223Y-96483093D01*
X155963229Y-96695387D01*
X155963225Y-96695396D01*
X155902603Y-96921643D01*
X155902601Y-96921653D01*
X155882186Y-97154999D01*
X155882186Y-97155000D01*
X155902601Y-97388346D01*
X155902603Y-97388356D01*
X155963225Y-97614603D01*
X155963227Y-97614607D01*
X155963228Y-97614611D01*
X156062223Y-97826907D01*
X156196579Y-98018787D01*
X156196583Y-98018791D01*
X156264111Y-98086319D01*
X156297596Y-98147642D01*
X156292612Y-98217334D01*
X156250740Y-98273267D01*
X156185276Y-98297684D01*
X156176430Y-98298000D01*
X140494864Y-98298000D01*
X140427825Y-98278315D01*
X140382070Y-98225511D01*
X140372126Y-98156353D01*
X140401151Y-98092797D01*
X140407183Y-98086319D01*
X140475036Y-98018465D01*
X140609339Y-97826660D01*
X140609341Y-97826656D01*
X140708298Y-97614443D01*
X140764420Y-97405000D01*
X139879686Y-97405000D01*
X139905493Y-97364844D01*
X139946000Y-97226889D01*
X139946000Y-97083111D01*
X139905493Y-96945156D01*
X139879686Y-96905000D01*
X140764420Y-96905000D01*
X140764419Y-96904999D01*
X140708298Y-96695556D01*
X140609341Y-96483343D01*
X140609339Y-96483339D01*
X140475036Y-96291534D01*
X140309465Y-96125963D01*
X140117660Y-95991660D01*
X140117656Y-95991658D01*
X139905443Y-95892701D01*
X139696000Y-95836580D01*
X139696000Y-96719498D01*
X139588315Y-96670320D01*
X139481763Y-96655000D01*
X139410237Y-96655000D01*
X139303685Y-96670320D01*
X139196000Y-96719498D01*
X139196000Y-95836580D01*
X139195999Y-95836580D01*
X138986556Y-95892701D01*
X138774343Y-95991658D01*
X138774339Y-95991660D01*
X138582534Y-96125963D01*
X138416963Y-96291534D01*
X138282660Y-96483339D01*
X138282658Y-96483343D01*
X138183701Y-96695556D01*
X138127580Y-96904999D01*
X138127580Y-96905000D01*
X139012314Y-96905000D01*
X138986507Y-96945156D01*
X138946000Y-97083111D01*
X138946000Y-97226889D01*
X138986507Y-97364844D01*
X139012314Y-97405000D01*
X138127580Y-97405000D01*
X138183701Y-97614443D01*
X138282658Y-97826656D01*
X138282660Y-97826660D01*
X138416963Y-98018465D01*
X138484817Y-98086319D01*
X138518302Y-98147642D01*
X138513318Y-98217334D01*
X138471446Y-98273267D01*
X138405982Y-98297684D01*
X138397136Y-98298000D01*
X123865952Y-98298000D01*
X123798913Y-98278315D01*
X123753158Y-98225511D01*
X123743214Y-98156353D01*
X123772239Y-98092797D01*
X123778271Y-98086319D01*
X125453949Y-96410642D01*
X125979591Y-95885000D01*
X132514592Y-95885000D01*
X132534201Y-96171680D01*
X132592666Y-96453034D01*
X132592667Y-96453037D01*
X132688894Y-96723793D01*
X132688893Y-96723793D01*
X132821098Y-96978935D01*
X132986812Y-97213700D01*
X133069511Y-97302248D01*
X133182947Y-97423708D01*
X133405853Y-97605055D01*
X133641753Y-97748510D01*
X133651382Y-97754365D01*
X133825067Y-97829806D01*
X133914942Y-97868844D01*
X134191642Y-97946371D01*
X134441920Y-97980771D01*
X134476321Y-97985500D01*
X134476322Y-97985500D01*
X134763679Y-97985500D01*
X134794370Y-97981281D01*
X135048358Y-97946371D01*
X135325058Y-97868844D01*
X135440239Y-97818814D01*
X135588617Y-97754365D01*
X135588620Y-97754363D01*
X135588625Y-97754361D01*
X135834147Y-97605055D01*
X136057053Y-97423708D01*
X136253189Y-97213698D01*
X136418901Y-96978936D01*
X136551104Y-96723797D01*
X136647334Y-96453032D01*
X136705798Y-96171686D01*
X136725408Y-95885000D01*
X136705798Y-95598314D01*
X136647334Y-95316968D01*
X136551105Y-95046206D01*
X136551106Y-95046206D01*
X136418901Y-94791064D01*
X136253187Y-94556299D01*
X136155807Y-94452032D01*
X136057053Y-94346292D01*
X135890431Y-94210735D01*
X135834146Y-94164944D01*
X135588617Y-94015634D01*
X135325063Y-93901158D01*
X135325061Y-93901157D01*
X135325058Y-93901156D01*
X135195578Y-93864877D01*
X135048364Y-93823630D01*
X135048359Y-93823629D01*
X135048358Y-93823629D01*
X134906018Y-93804064D01*
X134763679Y-93784500D01*
X134763678Y-93784500D01*
X134476322Y-93784500D01*
X134476321Y-93784500D01*
X134191642Y-93823629D01*
X134191635Y-93823630D01*
X133999936Y-93877342D01*
X133914942Y-93901156D01*
X133914939Y-93901156D01*
X133914936Y-93901158D01*
X133914935Y-93901158D01*
X133651382Y-94015634D01*
X133405853Y-94164944D01*
X133182950Y-94346289D01*
X132986812Y-94556299D01*
X132821098Y-94791064D01*
X132688894Y-95046206D01*
X132592667Y-95316962D01*
X132592666Y-95316965D01*
X132534201Y-95598319D01*
X132514592Y-95885000D01*
X125979591Y-95885000D01*
X128492772Y-93371819D01*
X128554095Y-93338334D01*
X128580453Y-93335500D01*
X145739548Y-93335500D01*
X145806587Y-93355185D01*
G37*
G04 #@! TD.AperFunction*
G04 #@! TA.AperFunction,Conductor*
G36*
X181393894Y-93664342D02*
G01*
X181439707Y-93598914D01*
X181439708Y-93598912D01*
X181497342Y-93475317D01*
X181543514Y-93422877D01*
X181610707Y-93403725D01*
X181677589Y-93423941D01*
X181722102Y-93475308D01*
X181725378Y-93482334D01*
X181737000Y-93534745D01*
X181737000Y-94045000D01*
X181717315Y-94112039D01*
X181687400Y-94144200D01*
X176197426Y-98261681D01*
X176182067Y-98273200D01*
X176116625Y-98297676D01*
X176107667Y-98298000D01*
X158275570Y-98298000D01*
X158208531Y-98278315D01*
X158162776Y-98225511D01*
X158152832Y-98156353D01*
X158181857Y-98092797D01*
X158187889Y-98086319D01*
X158255421Y-98018787D01*
X158385247Y-97833375D01*
X158439824Y-97789751D01*
X158486822Y-97780500D01*
X162720949Y-97780500D01*
X162736569Y-97782224D01*
X162736596Y-97781939D01*
X162744352Y-97782671D01*
X162744359Y-97782673D01*
X162813506Y-97780500D01*
X162843042Y-97780500D01*
X162849920Y-97779630D01*
X162855733Y-97779172D01*
X162902319Y-97777709D01*
X162921561Y-97772117D01*
X162940604Y-97768174D01*
X162960484Y-97765664D01*
X163003814Y-97748507D01*
X163009338Y-97746617D01*
X163013088Y-97745527D01*
X163054082Y-97733618D01*
X163071321Y-97723422D01*
X163088795Y-97714862D01*
X163107419Y-97707488D01*
X163107419Y-97707487D01*
X163107424Y-97707486D01*
X163145141Y-97680082D01*
X163149997Y-97676892D01*
X163190112Y-97653170D01*
X163204281Y-97638999D01*
X163219071Y-97626368D01*
X163235279Y-97614594D01*
X163264991Y-97578676D01*
X163268904Y-97574376D01*
X166753788Y-94089493D01*
X166766042Y-94079678D01*
X166765859Y-94079456D01*
X166771867Y-94074484D01*
X166771877Y-94074478D01*
X166796617Y-94048131D01*
X166856858Y-94012737D01*
X166926672Y-94015530D01*
X166958130Y-94031440D01*
X167004833Y-94064142D01*
X167125572Y-94120443D01*
X167205513Y-94157720D01*
X167205515Y-94157720D01*
X167205520Y-94157723D01*
X167419409Y-94215035D01*
X167576974Y-94228820D01*
X167639998Y-94234334D01*
X167640000Y-94234334D01*
X167640002Y-94234334D01*
X167695147Y-94229509D01*
X167860591Y-94215035D01*
X168074480Y-94157723D01*
X168275167Y-94064142D01*
X168456555Y-93937132D01*
X168613132Y-93780555D01*
X168740142Y-93599167D01*
X168797618Y-93475907D01*
X168843790Y-93423468D01*
X168910983Y-93404316D01*
X168977864Y-93424531D01*
X169022381Y-93475907D01*
X169034312Y-93501492D01*
X169078148Y-93595501D01*
X169079858Y-93599167D01*
X169206868Y-93780555D01*
X169363445Y-93937132D01*
X169544833Y-94064142D01*
X169665572Y-94120443D01*
X169745513Y-94157720D01*
X169745515Y-94157720D01*
X169745520Y-94157723D01*
X169959409Y-94215035D01*
X170116974Y-94228820D01*
X170179998Y-94234334D01*
X170180000Y-94234334D01*
X170180002Y-94234334D01*
X170235147Y-94229509D01*
X170400591Y-94215035D01*
X170614480Y-94157723D01*
X170815167Y-94064142D01*
X170996555Y-93937132D01*
X171153132Y-93780555D01*
X171280142Y-93599167D01*
X171337618Y-93475907D01*
X171383790Y-93423468D01*
X171450983Y-93404316D01*
X171517864Y-93424531D01*
X171562381Y-93475907D01*
X171574312Y-93501492D01*
X171618148Y-93595501D01*
X171619858Y-93599167D01*
X171746868Y-93780555D01*
X171903445Y-93937132D01*
X172084833Y-94064142D01*
X172205572Y-94120443D01*
X172285513Y-94157720D01*
X172285515Y-94157720D01*
X172285520Y-94157723D01*
X172499409Y-94215035D01*
X172656974Y-94228820D01*
X172719998Y-94234334D01*
X172720000Y-94234334D01*
X172720002Y-94234334D01*
X172775147Y-94229509D01*
X172940591Y-94215035D01*
X173154480Y-94157723D01*
X173355167Y-94064142D01*
X173536555Y-93937132D01*
X173693132Y-93780555D01*
X173820142Y-93599167D01*
X173877618Y-93475907D01*
X173923790Y-93423468D01*
X173990983Y-93404316D01*
X174057864Y-93424531D01*
X174102381Y-93475907D01*
X174114312Y-93501492D01*
X174158148Y-93595501D01*
X174159858Y-93599167D01*
X174286868Y-93780555D01*
X174443445Y-93937132D01*
X174624833Y-94064142D01*
X174745572Y-94120443D01*
X174825513Y-94157720D01*
X174825515Y-94157720D01*
X174825520Y-94157723D01*
X175039409Y-94215035D01*
X175196974Y-94228820D01*
X175259998Y-94234334D01*
X175260000Y-94234334D01*
X175260002Y-94234334D01*
X175315147Y-94229509D01*
X175480591Y-94215035D01*
X175694480Y-94157723D01*
X175895167Y-94064142D01*
X176076555Y-93937132D01*
X176233132Y-93780555D01*
X176360142Y-93599167D01*
X176417618Y-93475907D01*
X176463790Y-93423468D01*
X176530983Y-93404316D01*
X176597864Y-93424531D01*
X176642381Y-93475907D01*
X176654312Y-93501492D01*
X176698148Y-93595501D01*
X176699858Y-93599167D01*
X176826868Y-93780555D01*
X176983445Y-93937132D01*
X177164833Y-94064142D01*
X177285572Y-94120443D01*
X177365513Y-94157720D01*
X177365515Y-94157720D01*
X177365520Y-94157723D01*
X177579409Y-94215035D01*
X177736974Y-94228820D01*
X177799998Y-94234334D01*
X177800000Y-94234334D01*
X177800002Y-94234334D01*
X177855147Y-94229509D01*
X178020591Y-94215035D01*
X178234480Y-94157723D01*
X178435167Y-94064142D01*
X178616555Y-93937132D01*
X178773132Y-93780555D01*
X178900142Y-93599167D01*
X178957895Y-93475312D01*
X179004064Y-93422878D01*
X179071258Y-93403725D01*
X179138139Y-93423940D01*
X179182657Y-93475316D01*
X179240295Y-93598919D01*
X179286103Y-93664341D01*
X179286105Y-93664342D01*
X179848866Y-93101580D01*
X179871318Y-93178040D01*
X179950605Y-93301413D01*
X180061438Y-93397451D01*
X180194839Y-93458373D01*
X180198633Y-93458918D01*
X179639656Y-94017894D01*
X179705083Y-94063706D01*
X179705085Y-94063707D01*
X179905690Y-94157250D01*
X179905699Y-94157254D01*
X180119490Y-94214538D01*
X180119500Y-94214540D01*
X180339999Y-94233832D01*
X180340001Y-94233832D01*
X180560499Y-94214540D01*
X180560509Y-94214538D01*
X180774300Y-94157254D01*
X180774309Y-94157250D01*
X180974915Y-94063706D01*
X181040342Y-94017894D01*
X180481366Y-93458918D01*
X180485161Y-93458373D01*
X180618562Y-93397451D01*
X180729395Y-93301413D01*
X180808682Y-93178040D01*
X180831133Y-93101580D01*
X181393894Y-93664342D01*
G37*
G04 #@! TD.AperFunction*
G04 #@! TA.AperFunction,Conductor*
G36*
X125827183Y-91450185D02*
G01*
X125872938Y-91502989D01*
X125882882Y-91572147D01*
X125853857Y-91635703D01*
X125847825Y-91642181D01*
X120361825Y-97128181D01*
X120300502Y-97161666D01*
X120274144Y-97164500D01*
X115155307Y-97164500D01*
X115088268Y-97144815D01*
X115042513Y-97092011D01*
X115032569Y-97022853D01*
X115059757Y-96961467D01*
X115063907Y-96956449D01*
X115074476Y-96943673D01*
X115078385Y-96939377D01*
X116089052Y-95928710D01*
X116150373Y-95895227D01*
X116220065Y-95900211D01*
X116275998Y-95942083D01*
X116289112Y-95963986D01*
X116289639Y-95965117D01*
X116381684Y-96114345D01*
X116505654Y-96238315D01*
X116654875Y-96330356D01*
X116654880Y-96330358D01*
X116821302Y-96385505D01*
X116821309Y-96385506D01*
X116924019Y-96395999D01*
X117136499Y-96395999D01*
X117136500Y-96395998D01*
X117136500Y-95246000D01*
X117636500Y-95246000D01*
X117636500Y-96395999D01*
X117848972Y-96395999D01*
X117848986Y-96395998D01*
X117951697Y-96385505D01*
X118118119Y-96330358D01*
X118118124Y-96330356D01*
X118267345Y-96238315D01*
X118391315Y-96114345D01*
X118483356Y-95965124D01*
X118483358Y-95965119D01*
X118538505Y-95798697D01*
X118538506Y-95798690D01*
X118548999Y-95695986D01*
X118549000Y-95695973D01*
X118549000Y-95246000D01*
X117636500Y-95246000D01*
X117136500Y-95246000D01*
X117136500Y-93603451D01*
X117138688Y-93596000D01*
X117636500Y-93596000D01*
X117636500Y-94746000D01*
X118548999Y-94746000D01*
X118548999Y-94296028D01*
X118548998Y-94296013D01*
X118538505Y-94193302D01*
X118483358Y-94026880D01*
X118483356Y-94026875D01*
X118391315Y-93877654D01*
X118267345Y-93753684D01*
X118118124Y-93661643D01*
X118118119Y-93661641D01*
X117951697Y-93606494D01*
X117951690Y-93606493D01*
X117848986Y-93596000D01*
X117636500Y-93596000D01*
X117138688Y-93596000D01*
X117156185Y-93536412D01*
X117172812Y-93515777D01*
X117919772Y-92768819D01*
X117981095Y-92735334D01*
X118007453Y-92732500D01*
X119265877Y-92732500D01*
X119281497Y-92734224D01*
X119281524Y-92733939D01*
X119289280Y-92734671D01*
X119289287Y-92734673D01*
X119358434Y-92732500D01*
X119387970Y-92732500D01*
X119394848Y-92731630D01*
X119400661Y-92731172D01*
X119447247Y-92729709D01*
X119466489Y-92724117D01*
X119485532Y-92720174D01*
X119505412Y-92717664D01*
X119548742Y-92700507D01*
X119554266Y-92698617D01*
X119558016Y-92697527D01*
X119599010Y-92685618D01*
X119616249Y-92675422D01*
X119633723Y-92666862D01*
X119652347Y-92659488D01*
X119652347Y-92659487D01*
X119652352Y-92659486D01*
X119690069Y-92632082D01*
X119694925Y-92628892D01*
X119735040Y-92605170D01*
X119749209Y-92590999D01*
X119763999Y-92578368D01*
X119780207Y-92566594D01*
X119809919Y-92530676D01*
X119813832Y-92526376D01*
X120873392Y-91466819D01*
X120934715Y-91433334D01*
X120961073Y-91430500D01*
X125760144Y-91430500D01*
X125827183Y-91450185D01*
G37*
G04 #@! TD.AperFunction*
G04 #@! TA.AperFunction,Conductor*
G36*
X101833120Y-95606156D02*
G01*
X101839598Y-95612188D01*
X101861194Y-95633784D01*
X101871017Y-95646045D01*
X101871239Y-95645863D01*
X101876212Y-95651875D01*
X101926636Y-95699227D01*
X101947523Y-95720115D01*
X101947527Y-95720118D01*
X101947529Y-95720120D01*
X101953011Y-95724373D01*
X101957443Y-95728157D01*
X101991418Y-95760062D01*
X102008976Y-95769714D01*
X102025235Y-95780395D01*
X102041064Y-95792673D01*
X102041239Y-95792748D01*
X102041355Y-95792845D01*
X102047780Y-95796645D01*
X102047167Y-95797680D01*
X102094949Y-95837433D01*
X102115975Y-95904064D01*
X102116000Y-95906553D01*
X102116000Y-96270000D01*
X102944314Y-96270000D01*
X102918507Y-96310156D01*
X102878000Y-96448111D01*
X102878000Y-96591889D01*
X102918507Y-96729844D01*
X102944314Y-96770000D01*
X102116000Y-96770000D01*
X102116000Y-96990638D01*
X102096315Y-97057677D01*
X102043511Y-97103432D01*
X101974353Y-97113376D01*
X101910797Y-97084351D01*
X101904319Y-97078319D01*
X101758247Y-96932247D01*
X101725644Y-96874695D01*
X101701286Y-96777449D01*
X101700104Y-96771501D01*
X101646575Y-96410631D01*
X101645981Y-96404583D01*
X101627992Y-96038341D01*
X101627917Y-96035298D01*
X101627917Y-96020000D01*
X101627918Y-95971278D01*
X101627917Y-95971274D01*
X101627917Y-95699869D01*
X101647602Y-95632830D01*
X101700406Y-95587075D01*
X101769564Y-95577131D01*
X101833120Y-95606156D01*
G37*
G04 #@! TD.AperFunction*
G04 #@! TA.AperFunction,Conductor*
G36*
X126514444Y-66684118D02*
G01*
X130556000Y-68326000D01*
X175766520Y-68502397D01*
X175833480Y-68522343D01*
X175853715Y-68538715D01*
X181700681Y-74385681D01*
X181734166Y-74447004D01*
X181737000Y-74473362D01*
X181737000Y-92393254D01*
X181725378Y-92445667D01*
X181722102Y-92452691D01*
X181675926Y-92505127D01*
X181608731Y-92524274D01*
X181541851Y-92504053D01*
X181497342Y-92452683D01*
X181439707Y-92329085D01*
X181439706Y-92329083D01*
X181393894Y-92263657D01*
X181393894Y-92263656D01*
X180831132Y-92826418D01*
X180808682Y-92749960D01*
X180729395Y-92626587D01*
X180618562Y-92530549D01*
X180485161Y-92469627D01*
X180481366Y-92469081D01*
X181040342Y-91910105D01*
X181040341Y-91910103D01*
X180974919Y-91864295D01*
X180774309Y-91770749D01*
X180774300Y-91770745D01*
X180560509Y-91713461D01*
X180560499Y-91713459D01*
X180340001Y-91694168D01*
X180339999Y-91694168D01*
X180119500Y-91713459D01*
X180119490Y-91713461D01*
X179905699Y-91770745D01*
X179905690Y-91770749D01*
X179705084Y-91864293D01*
X179639657Y-91910104D01*
X180198634Y-92469081D01*
X180194839Y-92469627D01*
X180061438Y-92530549D01*
X179950605Y-92626587D01*
X179871318Y-92749960D01*
X179848866Y-92826419D01*
X179286104Y-92263657D01*
X179240293Y-92329084D01*
X179182657Y-92452683D01*
X179136484Y-92505122D01*
X179069290Y-92524274D01*
X179002409Y-92504058D01*
X178957893Y-92452682D01*
X178900142Y-92328833D01*
X178773132Y-92147445D01*
X178616555Y-91990868D01*
X178435167Y-91863858D01*
X178435163Y-91863856D01*
X178234486Y-91770279D01*
X178234475Y-91770275D01*
X178020592Y-91712965D01*
X178020585Y-91712964D01*
X177800002Y-91693666D01*
X177799998Y-91693666D01*
X177579414Y-91712964D01*
X177579407Y-91712965D01*
X177365524Y-91770275D01*
X177365513Y-91770279D01*
X177164836Y-91863856D01*
X177164834Y-91863857D01*
X176983444Y-91990868D01*
X176826868Y-92147444D01*
X176699857Y-92328834D01*
X176699856Y-92328836D01*
X176642382Y-92452091D01*
X176596210Y-92504531D01*
X176529017Y-92523683D01*
X176462135Y-92503467D01*
X176417618Y-92452091D01*
X176389050Y-92390828D01*
X176360142Y-92328833D01*
X176233132Y-92147445D01*
X176076555Y-91990868D01*
X175895167Y-91863858D01*
X175895163Y-91863856D01*
X175694486Y-91770279D01*
X175694475Y-91770275D01*
X175480592Y-91712965D01*
X175480585Y-91712964D01*
X175260002Y-91693666D01*
X175259998Y-91693666D01*
X175039414Y-91712964D01*
X175039407Y-91712965D01*
X174825524Y-91770275D01*
X174825513Y-91770279D01*
X174624836Y-91863856D01*
X174624834Y-91863857D01*
X174443444Y-91990868D01*
X174286868Y-92147444D01*
X174159857Y-92328834D01*
X174159856Y-92328836D01*
X174102382Y-92452091D01*
X174056210Y-92504531D01*
X173989017Y-92523683D01*
X173922135Y-92503467D01*
X173877618Y-92452091D01*
X173849050Y-92390828D01*
X173820142Y-92328833D01*
X173693132Y-92147445D01*
X173536555Y-91990868D01*
X173355167Y-91863858D01*
X173355163Y-91863856D01*
X173154486Y-91770279D01*
X173154475Y-91770275D01*
X172940592Y-91712965D01*
X172940585Y-91712964D01*
X172720002Y-91693666D01*
X172719998Y-91693666D01*
X172499414Y-91712964D01*
X172499407Y-91712965D01*
X172285524Y-91770275D01*
X172285513Y-91770279D01*
X172084836Y-91863856D01*
X172084834Y-91863857D01*
X171903444Y-91990868D01*
X171746868Y-92147444D01*
X171619857Y-92328834D01*
X171619856Y-92328836D01*
X171562382Y-92452091D01*
X171516210Y-92504531D01*
X171449017Y-92523683D01*
X171382135Y-92503467D01*
X171337618Y-92452091D01*
X171309050Y-92390828D01*
X171280142Y-92328833D01*
X171153132Y-92147445D01*
X170996555Y-91990868D01*
X170815167Y-91863858D01*
X170815163Y-91863856D01*
X170614486Y-91770279D01*
X170614475Y-91770275D01*
X170400592Y-91712965D01*
X170400585Y-91712964D01*
X170180002Y-91693666D01*
X170179998Y-91693666D01*
X169959414Y-91712964D01*
X169959407Y-91712965D01*
X169745524Y-91770275D01*
X169745513Y-91770279D01*
X169544836Y-91863856D01*
X169544834Y-91863857D01*
X169363444Y-91990868D01*
X169206868Y-92147444D01*
X169079857Y-92328834D01*
X169079856Y-92328836D01*
X169022382Y-92452091D01*
X168976210Y-92504531D01*
X168909017Y-92523683D01*
X168842135Y-92503467D01*
X168797618Y-92452091D01*
X168769050Y-92390828D01*
X168740142Y-92328833D01*
X168613132Y-92147445D01*
X168456555Y-91990868D01*
X168275167Y-91863858D01*
X168275163Y-91863856D01*
X168074486Y-91770279D01*
X168074475Y-91770275D01*
X167860592Y-91712965D01*
X167860585Y-91712964D01*
X167640002Y-91693666D01*
X167639998Y-91693666D01*
X167419414Y-91712964D01*
X167419407Y-91712965D01*
X167205524Y-91770275D01*
X167205512Y-91770279D01*
X167171902Y-91785952D01*
X167102824Y-91796443D01*
X167039041Y-91767921D01*
X167000803Y-91709444D01*
X166995500Y-91673569D01*
X166995500Y-74224452D01*
X167015185Y-74157413D01*
X167031819Y-74136771D01*
X167131454Y-74037136D01*
X167253756Y-73914833D01*
X167315077Y-73881350D01*
X167373527Y-73882740D01*
X167419409Y-73895035D01*
X167576974Y-73908820D01*
X167639998Y-73914334D01*
X167640000Y-73914334D01*
X167640002Y-73914334D01*
X167695147Y-73909509D01*
X167860591Y-73895035D01*
X168074480Y-73837723D01*
X168275167Y-73744142D01*
X168456555Y-73617132D01*
X168613132Y-73460555D01*
X168740142Y-73279167D01*
X168797618Y-73155907D01*
X168843790Y-73103468D01*
X168910983Y-73084316D01*
X168977864Y-73104531D01*
X169022381Y-73155907D01*
X169079858Y-73279167D01*
X169206868Y-73460555D01*
X169363445Y-73617132D01*
X169544833Y-73744142D01*
X169571168Y-73756422D01*
X169745513Y-73837720D01*
X169745515Y-73837720D01*
X169745520Y-73837723D01*
X169959409Y-73895035D01*
X170116974Y-73908820D01*
X170179998Y-73914334D01*
X170180000Y-73914334D01*
X170180002Y-73914334D01*
X170235147Y-73909509D01*
X170400591Y-73895035D01*
X170614480Y-73837723D01*
X170815167Y-73744142D01*
X170996555Y-73617132D01*
X171153132Y-73460555D01*
X171280142Y-73279167D01*
X171337618Y-73155907D01*
X171383790Y-73103468D01*
X171450983Y-73084316D01*
X171517864Y-73104531D01*
X171562381Y-73155907D01*
X171619858Y-73279167D01*
X171746868Y-73460555D01*
X171903445Y-73617132D01*
X172084833Y-73744142D01*
X172111168Y-73756422D01*
X172285513Y-73837720D01*
X172285515Y-73837720D01*
X172285520Y-73837723D01*
X172499409Y-73895035D01*
X172656974Y-73908820D01*
X172719998Y-73914334D01*
X172720000Y-73914334D01*
X172720002Y-73914334D01*
X172775147Y-73909509D01*
X172940591Y-73895035D01*
X173154480Y-73837723D01*
X173355167Y-73744142D01*
X173536555Y-73617132D01*
X173693132Y-73460555D01*
X173820142Y-73279167D01*
X173877618Y-73155907D01*
X173923790Y-73103468D01*
X173990983Y-73084316D01*
X174057864Y-73104531D01*
X174102381Y-73155907D01*
X174159858Y-73279167D01*
X174286868Y-73460555D01*
X174443445Y-73617132D01*
X174624833Y-73744142D01*
X174651168Y-73756422D01*
X174825513Y-73837720D01*
X174825515Y-73837720D01*
X174825520Y-73837723D01*
X175039409Y-73895035D01*
X175196974Y-73908820D01*
X175259998Y-73914334D01*
X175260000Y-73914334D01*
X175260002Y-73914334D01*
X175315147Y-73909509D01*
X175480591Y-73895035D01*
X175694480Y-73837723D01*
X175895167Y-73744142D01*
X176076555Y-73617132D01*
X176233132Y-73460555D01*
X176360142Y-73279167D01*
X176417618Y-73155907D01*
X176463790Y-73103468D01*
X176530983Y-73084316D01*
X176597864Y-73104531D01*
X176642381Y-73155907D01*
X176699858Y-73279167D01*
X176826868Y-73460555D01*
X176983445Y-73617132D01*
X177164833Y-73744142D01*
X177191168Y-73756422D01*
X177365513Y-73837720D01*
X177365515Y-73837720D01*
X177365520Y-73837723D01*
X177579409Y-73895035D01*
X177736974Y-73908820D01*
X177799998Y-73914334D01*
X177800000Y-73914334D01*
X177800002Y-73914334D01*
X177855147Y-73909509D01*
X178020591Y-73895035D01*
X178234480Y-73837723D01*
X178435167Y-73744142D01*
X178616555Y-73617132D01*
X178773132Y-73460555D01*
X178900142Y-73279167D01*
X178993723Y-73078480D01*
X179051035Y-72864591D01*
X179069943Y-72648465D01*
X179070334Y-72644001D01*
X179070334Y-72643998D01*
X179053155Y-72447641D01*
X179051035Y-72423409D01*
X178993723Y-72209520D01*
X178981574Y-72183467D01*
X178948603Y-72112759D01*
X178900142Y-72008833D01*
X178773132Y-71827445D01*
X178616555Y-71670868D01*
X178435167Y-71543858D01*
X178435163Y-71543856D01*
X178234486Y-71450279D01*
X178234475Y-71450275D01*
X178020592Y-71392965D01*
X178020585Y-71392964D01*
X177800002Y-71373666D01*
X177799998Y-71373666D01*
X177579414Y-71392964D01*
X177579407Y-71392965D01*
X177365524Y-71450275D01*
X177365513Y-71450279D01*
X177164836Y-71543856D01*
X177164834Y-71543857D01*
X176983444Y-71670868D01*
X176826868Y-71827444D01*
X176699857Y-72008834D01*
X176699856Y-72008836D01*
X176642382Y-72132091D01*
X176596210Y-72184531D01*
X176529017Y-72203683D01*
X176462135Y-72183467D01*
X176417618Y-72132091D01*
X176386589Y-72065550D01*
X176360142Y-72008833D01*
X176233132Y-71827445D01*
X176076555Y-71670868D01*
X175895167Y-71543858D01*
X175895163Y-71543856D01*
X175694486Y-71450279D01*
X175694475Y-71450275D01*
X175480592Y-71392965D01*
X175480585Y-71392964D01*
X175260002Y-71373666D01*
X175259998Y-71373666D01*
X175039414Y-71392964D01*
X175039407Y-71392965D01*
X174825524Y-71450275D01*
X174825513Y-71450279D01*
X174624836Y-71543856D01*
X174624834Y-71543857D01*
X174443444Y-71670868D01*
X174286868Y-71827444D01*
X174159857Y-72008834D01*
X174159856Y-72008836D01*
X174102382Y-72132091D01*
X174056210Y-72184531D01*
X173989017Y-72203683D01*
X173922135Y-72183467D01*
X173877618Y-72132091D01*
X173846589Y-72065550D01*
X173820142Y-72008833D01*
X173693132Y-71827445D01*
X173536555Y-71670868D01*
X173355167Y-71543858D01*
X173355163Y-71543856D01*
X173154486Y-71450279D01*
X173154475Y-71450275D01*
X172940592Y-71392965D01*
X172940585Y-71392964D01*
X172720002Y-71373666D01*
X172719998Y-71373666D01*
X172499414Y-71392964D01*
X172499407Y-71392965D01*
X172285524Y-71450275D01*
X172285513Y-71450279D01*
X172084836Y-71543856D01*
X172084834Y-71543857D01*
X171903444Y-71670868D01*
X171746868Y-71827444D01*
X171619857Y-72008834D01*
X171619856Y-72008836D01*
X171562382Y-72132091D01*
X171516210Y-72184531D01*
X171449017Y-72203683D01*
X171382135Y-72183467D01*
X171337618Y-72132091D01*
X171306589Y-72065550D01*
X171280142Y-72008833D01*
X171153132Y-71827445D01*
X170996555Y-71670868D01*
X170815167Y-71543858D01*
X170815163Y-71543856D01*
X170614486Y-71450279D01*
X170614475Y-71450275D01*
X170400592Y-71392965D01*
X170400585Y-71392964D01*
X170180002Y-71373666D01*
X170179998Y-71373666D01*
X169959414Y-71392964D01*
X169959407Y-71392965D01*
X169745524Y-71450275D01*
X169745513Y-71450279D01*
X169544836Y-71543856D01*
X169544834Y-71543857D01*
X169363444Y-71670868D01*
X169206868Y-71827444D01*
X169079857Y-72008834D01*
X169079856Y-72008836D01*
X169022382Y-72132091D01*
X168976210Y-72184531D01*
X168909017Y-72203683D01*
X168842135Y-72183467D01*
X168797618Y-72132091D01*
X168766589Y-72065550D01*
X168740142Y-72008833D01*
X168613132Y-71827445D01*
X168456555Y-71670868D01*
X168275167Y-71543858D01*
X168275163Y-71543856D01*
X168074486Y-71450279D01*
X168074475Y-71450275D01*
X167860592Y-71392965D01*
X167860585Y-71392964D01*
X167640002Y-71373666D01*
X167639998Y-71373666D01*
X167419414Y-71392964D01*
X167419407Y-71392965D01*
X167205524Y-71450275D01*
X167205513Y-71450279D01*
X167004836Y-71543856D01*
X167004834Y-71543857D01*
X166823444Y-71670868D01*
X166666868Y-71827444D01*
X166539857Y-72008834D01*
X166539856Y-72008836D01*
X166482382Y-72132091D01*
X166436210Y-72184531D01*
X166369017Y-72203683D01*
X166302135Y-72183467D01*
X166257618Y-72132091D01*
X166226589Y-72065550D01*
X166200142Y-72008833D01*
X166073132Y-71827445D01*
X165916555Y-71670868D01*
X165735167Y-71543858D01*
X165735163Y-71543856D01*
X165534486Y-71450279D01*
X165534475Y-71450275D01*
X165320592Y-71392965D01*
X165320585Y-71392964D01*
X165100002Y-71373666D01*
X165099998Y-71373666D01*
X164879414Y-71392964D01*
X164879407Y-71392965D01*
X164665524Y-71450275D01*
X164665513Y-71450279D01*
X164464836Y-71543856D01*
X164464834Y-71543857D01*
X164283444Y-71670868D01*
X164126868Y-71827444D01*
X163999857Y-72008834D01*
X163999856Y-72008836D01*
X163942382Y-72132091D01*
X163896210Y-72184531D01*
X163829017Y-72203683D01*
X163762135Y-72183467D01*
X163717618Y-72132091D01*
X163686589Y-72065550D01*
X163660142Y-72008833D01*
X163533132Y-71827445D01*
X163376555Y-71670868D01*
X163195167Y-71543858D01*
X163195163Y-71543856D01*
X162994486Y-71450279D01*
X162994475Y-71450275D01*
X162780592Y-71392965D01*
X162780585Y-71392964D01*
X162560002Y-71373666D01*
X162559998Y-71373666D01*
X162450647Y-71383233D01*
X162339409Y-71392965D01*
X162339407Y-71392965D01*
X162339403Y-71392966D01*
X162293528Y-71405258D01*
X162223678Y-71403595D01*
X162173755Y-71373164D01*
X161536803Y-70736212D01*
X161526980Y-70723950D01*
X161526759Y-70724134D01*
X161521786Y-70718123D01*
X161503159Y-70700631D01*
X161471364Y-70670773D01*
X161460919Y-70660328D01*
X161450475Y-70649883D01*
X161444986Y-70645625D01*
X161440561Y-70641847D01*
X161406582Y-70609938D01*
X161406580Y-70609936D01*
X161406577Y-70609935D01*
X161389029Y-70600288D01*
X161372763Y-70589604D01*
X161356933Y-70577325D01*
X161314168Y-70558818D01*
X161308922Y-70556248D01*
X161268093Y-70533803D01*
X161268092Y-70533802D01*
X161248693Y-70528822D01*
X161230281Y-70522518D01*
X161211898Y-70514562D01*
X161211892Y-70514560D01*
X161165874Y-70507272D01*
X161160152Y-70506087D01*
X161115021Y-70494500D01*
X161115019Y-70494500D01*
X161094984Y-70494500D01*
X161075586Y-70492973D01*
X161068162Y-70491797D01*
X161055805Y-70489840D01*
X161055804Y-70489840D01*
X161009416Y-70494225D01*
X161003578Y-70494500D01*
X149233737Y-70494500D01*
X149218120Y-70492776D01*
X149218093Y-70493062D01*
X149210331Y-70492327D01*
X149141203Y-70494500D01*
X149111650Y-70494500D01*
X149110929Y-70494590D01*
X149104757Y-70495369D01*
X149098945Y-70495826D01*
X149052372Y-70497290D01*
X149052369Y-70497291D01*
X149033126Y-70502881D01*
X149014083Y-70506825D01*
X148994204Y-70509336D01*
X148994203Y-70509337D01*
X148950878Y-70526490D01*
X148945352Y-70528382D01*
X148900608Y-70541383D01*
X148900604Y-70541385D01*
X148883365Y-70551580D01*
X148865898Y-70560137D01*
X148847269Y-70567512D01*
X148847267Y-70567513D01*
X148809564Y-70594906D01*
X148804682Y-70598112D01*
X148764580Y-70621828D01*
X148750408Y-70636000D01*
X148735623Y-70648628D01*
X148719412Y-70660407D01*
X148689709Y-70696310D01*
X148685777Y-70700631D01*
X147571208Y-71815199D01*
X147558951Y-71825020D01*
X147559134Y-71825241D01*
X147553123Y-71830213D01*
X147505772Y-71880636D01*
X147484889Y-71901519D01*
X147484877Y-71901532D01*
X147480621Y-71907017D01*
X147476837Y-71911447D01*
X147444937Y-71945418D01*
X147444936Y-71945420D01*
X147435284Y-71962976D01*
X147424610Y-71979226D01*
X147412329Y-71995061D01*
X147412324Y-71995068D01*
X147393815Y-72037838D01*
X147391245Y-72043084D01*
X147368803Y-72083906D01*
X147363822Y-72103307D01*
X147357521Y-72121710D01*
X147349562Y-72140102D01*
X147349561Y-72140105D01*
X147342271Y-72186127D01*
X147341087Y-72191846D01*
X147329501Y-72236972D01*
X147329500Y-72236982D01*
X147329500Y-72257016D01*
X147327973Y-72276415D01*
X147324840Y-72296194D01*
X147324840Y-72296195D01*
X147329225Y-72342583D01*
X147329500Y-72348421D01*
X147329500Y-75762546D01*
X147309815Y-75829585D01*
X147293181Y-75850227D01*
X142425406Y-80718001D01*
X142364083Y-80751486D01*
X142294391Y-80746502D01*
X142238458Y-80704630D01*
X142224169Y-80680129D01*
X142196218Y-80616407D01*
X142100673Y-80470163D01*
X142080486Y-80403274D01*
X142099666Y-80336088D01*
X142116797Y-80314665D01*
X142877786Y-79553676D01*
X142890048Y-79543854D01*
X142889865Y-79543633D01*
X142895867Y-79538666D01*
X142895877Y-79538660D01*
X142943241Y-79488222D01*
X142964120Y-79467344D01*
X142968373Y-79461860D01*
X142972150Y-79457437D01*
X143004062Y-79423456D01*
X143013714Y-79405897D01*
X143024389Y-79389646D01*
X143036674Y-79373810D01*
X143055186Y-79331026D01*
X143057742Y-79325809D01*
X143080197Y-79284966D01*
X143085180Y-79265554D01*
X143091477Y-79247165D01*
X143099438Y-79228769D01*
X143106729Y-79182727D01*
X143107908Y-79177036D01*
X143119500Y-79131893D01*
X143119500Y-79111857D01*
X143121027Y-79092456D01*
X143124160Y-79072678D01*
X143119775Y-79026289D01*
X143119500Y-79020451D01*
X143119500Y-75569118D01*
X143121223Y-75553501D01*
X143120938Y-75553474D01*
X143121672Y-75545712D01*
X143119500Y-75476583D01*
X143119500Y-75447031D01*
X143119500Y-75447030D01*
X143118629Y-75440139D01*
X143118172Y-75434325D01*
X143116709Y-75387752D01*
X143111122Y-75368524D01*
X143107174Y-75349464D01*
X143104663Y-75329584D01*
X143087512Y-75286267D01*
X143085619Y-75280738D01*
X143072618Y-75235989D01*
X143072616Y-75235986D01*
X143062423Y-75218751D01*
X143053861Y-75201274D01*
X143046487Y-75182650D01*
X143044633Y-75180098D01*
X143019079Y-75144925D01*
X143015888Y-75140066D01*
X143014426Y-75137594D01*
X142992170Y-75099960D01*
X142992168Y-75099958D01*
X142992165Y-75099954D01*
X142978006Y-75085795D01*
X142965368Y-75070999D01*
X142963675Y-75068669D01*
X142953594Y-75054793D01*
X142917688Y-75025089D01*
X142913376Y-75021166D01*
X137358423Y-69466212D01*
X137348600Y-69453950D01*
X137348379Y-69454134D01*
X137343406Y-69448123D01*
X137334229Y-69439505D01*
X137292984Y-69400773D01*
X137282539Y-69390328D01*
X137272095Y-69379883D01*
X137266606Y-69375625D01*
X137262181Y-69371847D01*
X137228202Y-69339938D01*
X137228200Y-69339936D01*
X137228197Y-69339935D01*
X137210649Y-69330288D01*
X137194383Y-69319604D01*
X137178553Y-69307325D01*
X137135788Y-69288818D01*
X137130542Y-69286248D01*
X137089713Y-69263803D01*
X137089712Y-69263802D01*
X137070313Y-69258822D01*
X137051901Y-69252518D01*
X137033518Y-69244562D01*
X137033512Y-69244560D01*
X136987494Y-69237272D01*
X136981772Y-69236087D01*
X136936641Y-69224500D01*
X136936639Y-69224500D01*
X136916604Y-69224500D01*
X136897206Y-69222973D01*
X136889782Y-69221797D01*
X136877425Y-69219840D01*
X136877424Y-69219840D01*
X136831036Y-69224225D01*
X136825198Y-69224500D01*
X126037191Y-69224500D01*
X125970152Y-69204815D01*
X125931652Y-69165596D01*
X125915340Y-69139150D01*
X125801017Y-69024827D01*
X125767532Y-68963504D01*
X125772516Y-68893812D01*
X125801017Y-68849464D01*
X125914948Y-68735533D01*
X126005448Y-68588811D01*
X126005453Y-68588800D01*
X126059680Y-68425152D01*
X126069999Y-68324154D01*
X126070000Y-68324141D01*
X126070000Y-68275000D01*
X124120001Y-68275000D01*
X124120001Y-68324154D01*
X124130319Y-68425152D01*
X124184546Y-68588800D01*
X124184551Y-68588811D01*
X124275052Y-68735534D01*
X124275055Y-68735538D01*
X124388982Y-68849465D01*
X124422467Y-68910788D01*
X124417483Y-68980480D01*
X124388983Y-69024827D01*
X124274659Y-69139151D01*
X124184093Y-69285981D01*
X124184091Y-69285986D01*
X124172951Y-69319604D01*
X124129826Y-69449747D01*
X124129826Y-69449748D01*
X124129825Y-69449748D01*
X124119500Y-69550815D01*
X124119500Y-69889546D01*
X124099815Y-69956585D01*
X124083181Y-69977227D01*
X123413364Y-70647043D01*
X123352041Y-70680528D01*
X123282349Y-70675544D01*
X123226416Y-70633672D01*
X123220152Y-70624471D01*
X123162712Y-70531344D01*
X123038656Y-70407288D01*
X122945888Y-70350069D01*
X122889336Y-70315187D01*
X122889331Y-70315185D01*
X122887862Y-70314698D01*
X122722797Y-70260001D01*
X122722795Y-70260000D01*
X122620010Y-70249500D01*
X121219998Y-70249500D01*
X121219981Y-70249501D01*
X121117203Y-70260000D01*
X121117200Y-70260001D01*
X120950668Y-70315185D01*
X120950663Y-70315187D01*
X120801342Y-70407289D01*
X120677289Y-70531342D01*
X120585187Y-70680663D01*
X120585185Y-70680668D01*
X120529356Y-70849149D01*
X120489583Y-70906594D01*
X120484508Y-70910117D01*
X120479084Y-70914324D01*
X120464908Y-70928500D01*
X120450123Y-70941128D01*
X120433912Y-70952907D01*
X120404209Y-70988810D01*
X120400277Y-70993131D01*
X119931340Y-71462068D01*
X119870017Y-71495553D01*
X119800326Y-71490569D01*
X119744392Y-71448698D01*
X119719975Y-71383233D01*
X119719659Y-71374387D01*
X119719659Y-71373999D01*
X119699063Y-71138596D01*
X119699063Y-71138592D01*
X119637903Y-70910337D01*
X119538035Y-70696171D01*
X119528700Y-70682838D01*
X119402494Y-70502597D01*
X119235402Y-70335506D01*
X119235401Y-70335505D01*
X119049405Y-70205269D01*
X119005781Y-70150692D01*
X118998588Y-70081193D01*
X119030110Y-70018839D01*
X119049405Y-70002119D01*
X119235082Y-69872105D01*
X119402105Y-69705082D01*
X119537600Y-69511578D01*
X119637429Y-69297492D01*
X119637432Y-69297486D01*
X119694636Y-69084000D01*
X118797686Y-69084000D01*
X118823493Y-69043844D01*
X118864000Y-68905889D01*
X118864000Y-68762111D01*
X118823493Y-68624156D01*
X118797686Y-68584000D01*
X119694636Y-68584000D01*
X119694635Y-68583999D01*
X119682176Y-68537500D01*
X120520001Y-68537500D01*
X120520001Y-68749986D01*
X120530494Y-68852697D01*
X120585641Y-69019119D01*
X120585643Y-69019124D01*
X120677684Y-69168345D01*
X120801654Y-69292315D01*
X120950875Y-69384356D01*
X120950880Y-69384358D01*
X121117302Y-69439505D01*
X121117309Y-69439506D01*
X121220019Y-69449999D01*
X121669999Y-69449999D01*
X121670000Y-69449998D01*
X121670000Y-68537500D01*
X122170000Y-68537500D01*
X122170000Y-69449999D01*
X122619972Y-69449999D01*
X122619986Y-69449998D01*
X122722697Y-69439505D01*
X122889119Y-69384358D01*
X122889124Y-69384356D01*
X123038345Y-69292315D01*
X123162315Y-69168345D01*
X123254356Y-69019124D01*
X123254358Y-69019119D01*
X123309505Y-68852697D01*
X123309506Y-68852690D01*
X123319999Y-68749986D01*
X123320000Y-68749973D01*
X123320000Y-68537500D01*
X122170000Y-68537500D01*
X121670000Y-68537500D01*
X120520001Y-68537500D01*
X119682176Y-68537500D01*
X119637432Y-68370513D01*
X119637429Y-68370507D01*
X119537600Y-68156422D01*
X119537599Y-68156420D01*
X119454330Y-68037500D01*
X120520000Y-68037500D01*
X121670000Y-68037500D01*
X121670000Y-67125000D01*
X122170000Y-67125000D01*
X122170000Y-68037500D01*
X123319999Y-68037500D01*
X123319999Y-67825028D01*
X123319998Y-67825013D01*
X123314889Y-67775000D01*
X124120000Y-67775000D01*
X124845000Y-67775000D01*
X124845000Y-67037500D01*
X125345000Y-67037500D01*
X125345000Y-67775000D01*
X126069999Y-67775000D01*
X126069999Y-67725860D01*
X126069998Y-67725845D01*
X126059680Y-67624847D01*
X126005453Y-67461199D01*
X126005448Y-67461188D01*
X125914947Y-67314465D01*
X125914944Y-67314461D01*
X125793038Y-67192555D01*
X125793034Y-67192552D01*
X125646311Y-67102051D01*
X125646300Y-67102046D01*
X125482652Y-67047819D01*
X125381654Y-67037500D01*
X125345000Y-67037500D01*
X124845000Y-67037500D01*
X124808361Y-67037500D01*
X124808343Y-67037501D01*
X124707347Y-67047819D01*
X124543699Y-67102046D01*
X124543688Y-67102051D01*
X124396965Y-67192552D01*
X124396961Y-67192555D01*
X124275055Y-67314461D01*
X124275052Y-67314465D01*
X124184551Y-67461188D01*
X124184546Y-67461199D01*
X124130319Y-67624847D01*
X124120000Y-67725845D01*
X124120000Y-67775000D01*
X123314889Y-67775000D01*
X123309505Y-67722302D01*
X123254358Y-67555880D01*
X123254356Y-67555875D01*
X123162315Y-67406654D01*
X123038345Y-67282684D01*
X122889124Y-67190643D01*
X122889119Y-67190641D01*
X122722697Y-67135494D01*
X122722690Y-67135493D01*
X122619986Y-67125000D01*
X122170000Y-67125000D01*
X121670000Y-67125000D01*
X121220028Y-67125000D01*
X121220012Y-67125001D01*
X121117302Y-67135494D01*
X120950880Y-67190641D01*
X120950875Y-67190643D01*
X120801654Y-67282684D01*
X120677684Y-67406654D01*
X120585643Y-67555875D01*
X120585641Y-67555880D01*
X120530494Y-67722302D01*
X120530493Y-67722309D01*
X120520000Y-67825013D01*
X120520000Y-68037500D01*
X119454330Y-68037500D01*
X119402113Y-67962926D01*
X119402108Y-67962920D01*
X119235082Y-67795894D01*
X119041578Y-67660399D01*
X118827492Y-67560570D01*
X118827486Y-67560567D01*
X118614000Y-67503364D01*
X118614000Y-68398498D01*
X118506315Y-68349320D01*
X118399763Y-68334000D01*
X118328237Y-68334000D01*
X118221685Y-68349320D01*
X118114000Y-68398498D01*
X118114000Y-67503364D01*
X118113999Y-67503364D01*
X117900513Y-67560567D01*
X117900507Y-67560570D01*
X117686422Y-67660399D01*
X117686420Y-67660400D01*
X117492926Y-67795886D01*
X117492920Y-67795891D01*
X117325891Y-67962920D01*
X117325886Y-67962926D01*
X117190400Y-68156420D01*
X117190399Y-68156422D01*
X117090570Y-68370507D01*
X117090567Y-68370513D01*
X117033364Y-68583999D01*
X117033364Y-68584000D01*
X117930314Y-68584000D01*
X117904507Y-68624156D01*
X117864000Y-68762111D01*
X117864000Y-68905889D01*
X117904507Y-69043844D01*
X117930314Y-69084000D01*
X117033364Y-69084000D01*
X117090567Y-69297486D01*
X117090570Y-69297492D01*
X117190399Y-69511578D01*
X117325894Y-69705082D01*
X117492917Y-69872105D01*
X117678595Y-70002119D01*
X117722219Y-70056696D01*
X117729412Y-70126195D01*
X117697890Y-70188549D01*
X117678595Y-70205269D01*
X117492594Y-70335508D01*
X117325505Y-70502597D01*
X117189965Y-70696169D01*
X117189964Y-70696171D01*
X117090098Y-70910335D01*
X117090094Y-70910344D01*
X117028938Y-71138586D01*
X117028936Y-71138596D01*
X117008341Y-71373999D01*
X117008341Y-71374000D01*
X117028936Y-71609403D01*
X117028938Y-71609413D01*
X117090094Y-71837655D01*
X117090096Y-71837659D01*
X117090097Y-71837663D01*
X117183516Y-72038000D01*
X117189965Y-72051830D01*
X117189967Y-72051834D01*
X117325501Y-72245395D01*
X117325506Y-72245402D01*
X117492597Y-72412493D01*
X117492603Y-72412498D01*
X117678158Y-72542425D01*
X117721783Y-72597002D01*
X117728977Y-72666500D01*
X117697454Y-72728855D01*
X117678158Y-72745575D01*
X117492597Y-72875505D01*
X117325505Y-73042597D01*
X117189965Y-73236169D01*
X117189964Y-73236171D01*
X117090098Y-73450335D01*
X117090094Y-73450344D01*
X117028938Y-73678586D01*
X117028936Y-73678596D01*
X117008341Y-73913999D01*
X117008341Y-73914000D01*
X117028936Y-74149403D01*
X117028938Y-74149413D01*
X117090094Y-74377655D01*
X117090096Y-74377659D01*
X117090097Y-74377663D01*
X117158561Y-74524484D01*
X117189965Y-74591830D01*
X117189967Y-74591834D01*
X117325501Y-74785395D01*
X117325506Y-74785402D01*
X117492597Y-74952493D01*
X117492603Y-74952498D01*
X117505071Y-74961228D01*
X117658515Y-75068671D01*
X117678594Y-75082730D01*
X117722219Y-75137307D01*
X117729413Y-75206805D01*
X117697890Y-75269160D01*
X117678595Y-75285880D01*
X117492922Y-75415890D01*
X117492920Y-75415891D01*
X117325891Y-75582920D01*
X117325886Y-75582926D01*
X117190400Y-75776420D01*
X117190399Y-75776422D01*
X117090570Y-75990507D01*
X117090567Y-75990513D01*
X117033364Y-76203999D01*
X117033364Y-76204000D01*
X117930314Y-76204000D01*
X117904507Y-76244156D01*
X117864000Y-76382111D01*
X117864000Y-76525889D01*
X117904507Y-76663844D01*
X117930314Y-76704000D01*
X117033364Y-76704000D01*
X117090567Y-76917486D01*
X117090570Y-76917492D01*
X117190399Y-77131578D01*
X117325894Y-77325082D01*
X117492917Y-77492105D01*
X117678595Y-77622119D01*
X117722219Y-77676696D01*
X117729412Y-77746195D01*
X117697890Y-77808549D01*
X117678595Y-77825269D01*
X117492594Y-77955508D01*
X117325505Y-78122597D01*
X117189965Y-78316169D01*
X117189964Y-78316171D01*
X117090098Y-78530335D01*
X117090094Y-78530344D01*
X117028938Y-78758586D01*
X117028936Y-78758596D01*
X117008341Y-78993999D01*
X117008341Y-78994000D01*
X117028937Y-79229408D01*
X117055855Y-79329873D01*
X117054192Y-79399723D01*
X117023761Y-79449646D01*
X116805208Y-79668199D01*
X116792951Y-79678020D01*
X116793134Y-79678241D01*
X116787123Y-79683213D01*
X116739772Y-79733636D01*
X116718889Y-79754519D01*
X116718877Y-79754532D01*
X116714621Y-79760017D01*
X116710837Y-79764447D01*
X116678937Y-79798418D01*
X116678936Y-79798420D01*
X116669284Y-79815976D01*
X116658610Y-79832226D01*
X116646329Y-79848061D01*
X116646324Y-79848068D01*
X116627815Y-79890838D01*
X116625245Y-79896084D01*
X116602803Y-79936906D01*
X116597822Y-79956307D01*
X116591521Y-79974710D01*
X116583562Y-79993102D01*
X116583561Y-79993105D01*
X116576271Y-80039127D01*
X116575087Y-80044846D01*
X116563501Y-80089972D01*
X116563500Y-80089982D01*
X116563500Y-80110016D01*
X116561973Y-80129413D01*
X116558840Y-80149196D01*
X116561671Y-80179145D01*
X116563225Y-80195583D01*
X116563500Y-80201421D01*
X116563500Y-87134255D01*
X116561775Y-87149872D01*
X116562061Y-87149899D01*
X116561326Y-87157665D01*
X116563500Y-87226814D01*
X116563500Y-87256343D01*
X116563501Y-87256360D01*
X116564368Y-87263231D01*
X116564826Y-87269050D01*
X116566290Y-87315624D01*
X116566291Y-87315627D01*
X116571880Y-87334867D01*
X116575824Y-87353911D01*
X116578336Y-87373792D01*
X116595490Y-87417119D01*
X116597382Y-87422647D01*
X116610382Y-87467390D01*
X116611167Y-87468718D01*
X116620580Y-87484634D01*
X116629136Y-87502100D01*
X116636514Y-87520732D01*
X116656178Y-87547798D01*
X116663898Y-87558423D01*
X116667106Y-87563307D01*
X116690827Y-87603416D01*
X116690833Y-87603424D01*
X116704990Y-87617580D01*
X116717628Y-87632376D01*
X116729405Y-87648586D01*
X116729406Y-87648587D01*
X116765309Y-87678288D01*
X116769620Y-87682210D01*
X116908954Y-87821544D01*
X117023762Y-87936352D01*
X117057247Y-87997675D01*
X117055856Y-88056126D01*
X117028938Y-88156586D01*
X117028936Y-88156596D01*
X117008341Y-88391999D01*
X117008341Y-88392000D01*
X117028936Y-88627403D01*
X117028938Y-88627413D01*
X117090094Y-88855655D01*
X117090099Y-88855669D01*
X117092163Y-88860094D01*
X117102656Y-88929171D01*
X117074137Y-88992955D01*
X117015661Y-89031196D01*
X116979782Y-89036500D01*
X112392000Y-89036500D01*
X112324961Y-89016815D01*
X112279206Y-88964011D01*
X112268000Y-88912500D01*
X112268000Y-68167117D01*
X112287685Y-68100078D01*
X112340489Y-68054323D01*
X112359862Y-68047353D01*
X117459215Y-66679235D01*
X117491347Y-66675000D01*
X126467773Y-66675000D01*
X126514444Y-66684118D01*
G37*
G04 #@! TD.AperFunction*
G04 #@! TA.AperFunction,Conductor*
G36*
X160996992Y-76677143D02*
G01*
X161035861Y-76703451D01*
X163168181Y-78835771D01*
X163201666Y-78897094D01*
X163204500Y-78923452D01*
X163204500Y-91673569D01*
X163184815Y-91740608D01*
X163132011Y-91786363D01*
X163062853Y-91796307D01*
X163028098Y-91785952D01*
X162994487Y-91770279D01*
X162994475Y-91770275D01*
X162780592Y-91712965D01*
X162780585Y-91712964D01*
X162560002Y-91693666D01*
X162559998Y-91693666D01*
X162339414Y-91712964D01*
X162339407Y-91712965D01*
X162125524Y-91770275D01*
X162125513Y-91770279D01*
X161924836Y-91863856D01*
X161924834Y-91863857D01*
X161743444Y-91990868D01*
X161586868Y-92147444D01*
X161459857Y-92328834D01*
X161459856Y-92328836D01*
X161402382Y-92452091D01*
X161356210Y-92504531D01*
X161289017Y-92523683D01*
X161222135Y-92503467D01*
X161177618Y-92452091D01*
X161149050Y-92390828D01*
X161120142Y-92328833D01*
X160993132Y-92147445D01*
X160836555Y-91990868D01*
X160655167Y-91863858D01*
X160655163Y-91863856D01*
X160454486Y-91770279D01*
X160454475Y-91770275D01*
X160240592Y-91712965D01*
X160240585Y-91712964D01*
X160020002Y-91693666D01*
X160019998Y-91693666D01*
X159935622Y-91701048D01*
X159799409Y-91712965D01*
X159799407Y-91712965D01*
X159799403Y-91712966D01*
X159753528Y-91725258D01*
X159683678Y-91723595D01*
X159633755Y-91693164D01*
X158361803Y-90421212D01*
X158351980Y-90408950D01*
X158351759Y-90409134D01*
X158346786Y-90403123D01*
X158345450Y-90401868D01*
X158296364Y-90355773D01*
X158285052Y-90344461D01*
X158275475Y-90334883D01*
X158269986Y-90330625D01*
X158265561Y-90326847D01*
X158231582Y-90294938D01*
X158231580Y-90294936D01*
X158231577Y-90294935D01*
X158214029Y-90285288D01*
X158197763Y-90274604D01*
X158181933Y-90262325D01*
X158139168Y-90243818D01*
X158133922Y-90241248D01*
X158093093Y-90218803D01*
X158093092Y-90218802D01*
X158073693Y-90213822D01*
X158055281Y-90207518D01*
X158036898Y-90199562D01*
X158036892Y-90199560D01*
X157990874Y-90192272D01*
X157985152Y-90191087D01*
X157940021Y-90179500D01*
X157940019Y-90179500D01*
X157919984Y-90179500D01*
X157900586Y-90177973D01*
X157893162Y-90176797D01*
X157880805Y-90174840D01*
X157880804Y-90174840D01*
X157834416Y-90179225D01*
X157828578Y-90179500D01*
X154649543Y-90179500D01*
X154582504Y-90159815D01*
X154536749Y-90107011D01*
X154526805Y-90037853D01*
X154555830Y-89974297D01*
X154573377Y-89957649D01*
X154614308Y-89925792D01*
X154770269Y-89756373D01*
X154896217Y-89563595D01*
X154988717Y-89352716D01*
X155045246Y-89129488D01*
X155055961Y-89000181D01*
X155064262Y-88900005D01*
X155064262Y-88899994D01*
X155045246Y-88670515D01*
X155045246Y-88670512D01*
X154988717Y-88447284D01*
X154896217Y-88236405D01*
X154770271Y-88043629D01*
X154706096Y-87973917D01*
X154614308Y-87874208D01*
X154432589Y-87732771D01*
X154432590Y-87732771D01*
X154428541Y-87729620D01*
X154429525Y-87728354D01*
X154388824Y-87680670D01*
X154379396Y-87611439D01*
X154408893Y-87548102D01*
X154428865Y-87530796D01*
X154428541Y-87530380D01*
X154509473Y-87467388D01*
X154614308Y-87385792D01*
X154770269Y-87216373D01*
X154896217Y-87023595D01*
X154988717Y-86812716D01*
X155045246Y-86589488D01*
X155064262Y-86360000D01*
X155063599Y-86352000D01*
X155049727Y-86184594D01*
X155045246Y-86130512D01*
X154988717Y-85907284D01*
X154896217Y-85696405D01*
X154870156Y-85656516D01*
X154770271Y-85503629D01*
X154664299Y-85388513D01*
X154614308Y-85334208D01*
X154511608Y-85254274D01*
X154428541Y-85189620D01*
X154429428Y-85188480D01*
X154388363Y-85140366D01*
X154378938Y-85071135D01*
X154408437Y-85007798D01*
X154428572Y-84990352D01*
X154428267Y-84989960D01*
X154613960Y-84845428D01*
X154613970Y-84845419D01*
X154769873Y-84676062D01*
X154895775Y-84483355D01*
X154988242Y-84272553D01*
X155039535Y-84070000D01*
X154103686Y-84070000D01*
X154129493Y-84029844D01*
X154170000Y-83891889D01*
X154170000Y-83748111D01*
X154129493Y-83610156D01*
X154103686Y-83570000D01*
X155039536Y-83570000D01*
X155039535Y-83569999D01*
X154988241Y-83367446D01*
X154980287Y-83349312D01*
X154971383Y-83280012D01*
X155001359Y-83216900D01*
X155060697Y-83180012D01*
X155093842Y-83175500D01*
X157677548Y-83175500D01*
X157744587Y-83195185D01*
X157765229Y-83211819D01*
X158171762Y-83618352D01*
X158205247Y-83679675D01*
X158203856Y-83738126D01*
X158176938Y-83838586D01*
X158176936Y-83838596D01*
X158156341Y-84073999D01*
X158156341Y-84074000D01*
X158176936Y-84309403D01*
X158176938Y-84309413D01*
X158238094Y-84537655D01*
X158238096Y-84537659D01*
X158238097Y-84537663D01*
X158306561Y-84684484D01*
X158337965Y-84751830D01*
X158337967Y-84751834D01*
X158446281Y-84906521D01*
X158473501Y-84945396D01*
X158473506Y-84945402D01*
X158595430Y-85067326D01*
X158628915Y-85128649D01*
X158623931Y-85198341D01*
X158582059Y-85254274D01*
X158551083Y-85271189D01*
X158419669Y-85320203D01*
X158419664Y-85320206D01*
X158304455Y-85406452D01*
X158304452Y-85406455D01*
X158218206Y-85521664D01*
X158218202Y-85521671D01*
X158167908Y-85656517D01*
X158161501Y-85716116D01*
X158161501Y-85716123D01*
X158161500Y-85716135D01*
X158161500Y-87511870D01*
X158161501Y-87511876D01*
X158167908Y-87571483D01*
X158218202Y-87706328D01*
X158218206Y-87706335D01*
X158304452Y-87821544D01*
X158304455Y-87821547D01*
X158419664Y-87907793D01*
X158419671Y-87907797D01*
X158419674Y-87907798D01*
X158551598Y-87957002D01*
X158607531Y-87998873D01*
X158631949Y-88064337D01*
X158617098Y-88132610D01*
X158595947Y-88160865D01*
X158473886Y-88282926D01*
X158338400Y-88476420D01*
X158338399Y-88476422D01*
X158238570Y-88690507D01*
X158238567Y-88690513D01*
X158181364Y-88903999D01*
X158181364Y-88904000D01*
X159078314Y-88904000D01*
X159052507Y-88944156D01*
X159012000Y-89082111D01*
X159012000Y-89225889D01*
X159052507Y-89363844D01*
X159078314Y-89404000D01*
X158181364Y-89404000D01*
X158238567Y-89617486D01*
X158238570Y-89617492D01*
X158338399Y-89831578D01*
X158473894Y-90025082D01*
X158640917Y-90192105D01*
X158834421Y-90327600D01*
X159048507Y-90427429D01*
X159048516Y-90427433D01*
X159262000Y-90484634D01*
X159262000Y-89589501D01*
X159369685Y-89638680D01*
X159476237Y-89654000D01*
X159547763Y-89654000D01*
X159654315Y-89638680D01*
X159762000Y-89589501D01*
X159762000Y-90484633D01*
X159975483Y-90427433D01*
X159975492Y-90427429D01*
X160189578Y-90327600D01*
X160383082Y-90192105D01*
X160550105Y-90025082D01*
X160685600Y-89831578D01*
X160785429Y-89617492D01*
X160785432Y-89617486D01*
X160842636Y-89404000D01*
X159945686Y-89404000D01*
X159971493Y-89363844D01*
X160012000Y-89225889D01*
X160012000Y-89082111D01*
X159971493Y-88944156D01*
X159945686Y-88904000D01*
X160842636Y-88904000D01*
X160842635Y-88903999D01*
X160785432Y-88690513D01*
X160785429Y-88690507D01*
X160685600Y-88476422D01*
X160685599Y-88476420D01*
X160550113Y-88282926D01*
X160550108Y-88282920D01*
X160428053Y-88160865D01*
X160394568Y-88099542D01*
X160399552Y-88029850D01*
X160441424Y-87973917D01*
X160472400Y-87957002D01*
X160604331Y-87907796D01*
X160719546Y-87821546D01*
X160805796Y-87706331D01*
X160856091Y-87571483D01*
X160862500Y-87511873D01*
X160862499Y-85716128D01*
X160856091Y-85656517D01*
X160843302Y-85622229D01*
X160805797Y-85521671D01*
X160805793Y-85521664D01*
X160719547Y-85406455D01*
X160719544Y-85406452D01*
X160604335Y-85320206D01*
X160604328Y-85320202D01*
X160472917Y-85271189D01*
X160416983Y-85229318D01*
X160392566Y-85163853D01*
X160407418Y-85095580D01*
X160428563Y-85067332D01*
X160550495Y-84945401D01*
X160686035Y-84751830D01*
X160785903Y-84537663D01*
X160847063Y-84309408D01*
X160867659Y-84074000D01*
X160847063Y-83838592D01*
X160785903Y-83610337D01*
X160686035Y-83396171D01*
X160653225Y-83349312D01*
X160550494Y-83202597D01*
X160383402Y-83035506D01*
X160383396Y-83035501D01*
X160197842Y-82905575D01*
X160154217Y-82850998D01*
X160147023Y-82781500D01*
X160178546Y-82719145D01*
X160197842Y-82702425D01*
X160220026Y-82686891D01*
X160383401Y-82572495D01*
X160550495Y-82405401D01*
X160686035Y-82211830D01*
X160785903Y-81997663D01*
X160847063Y-81769408D01*
X160867659Y-81534000D01*
X160847063Y-81298592D01*
X160785903Y-81070337D01*
X160686035Y-80856171D01*
X160665809Y-80827284D01*
X160550494Y-80662597D01*
X160383402Y-80495506D01*
X160383396Y-80495501D01*
X160197842Y-80365575D01*
X160154217Y-80310998D01*
X160147023Y-80241500D01*
X160178546Y-80179145D01*
X160197842Y-80162425D01*
X160220026Y-80146891D01*
X160383401Y-80032495D01*
X160550495Y-79865401D01*
X160686035Y-79671830D01*
X160785903Y-79457663D01*
X160847063Y-79229408D01*
X160867659Y-78994000D01*
X160847063Y-78758592D01*
X160785903Y-78530337D01*
X160686035Y-78316171D01*
X160681202Y-78309268D01*
X160550494Y-78122597D01*
X160383402Y-77955506D01*
X160383396Y-77955501D01*
X160197842Y-77825575D01*
X160154217Y-77770998D01*
X160147023Y-77701500D01*
X160178546Y-77639145D01*
X160197842Y-77622425D01*
X160298542Y-77551914D01*
X160383401Y-77492495D01*
X160550495Y-77325401D01*
X160686035Y-77131830D01*
X160785903Y-76917663D01*
X160828406Y-76759037D01*
X160864769Y-76699379D01*
X160927616Y-76668849D01*
X160996992Y-76677143D01*
G37*
G04 #@! TD.AperFunction*
G04 #@! TA.AperFunction,Conductor*
G36*
X139606885Y-84265218D02*
G01*
X139662818Y-84307090D01*
X139677107Y-84331590D01*
X139743782Y-84483594D01*
X139869728Y-84676370D01*
X139877201Y-84684488D01*
X140025692Y-84845792D01*
X140121591Y-84920433D01*
X140211459Y-84990380D01*
X140210570Y-84991521D01*
X140251632Y-85039624D01*
X140261063Y-85108855D01*
X140231568Y-85172194D01*
X140211429Y-85189650D01*
X140211733Y-85190040D01*
X140026039Y-85334571D01*
X140026029Y-85334580D01*
X139870126Y-85503937D01*
X139744224Y-85696644D01*
X139651757Y-85907446D01*
X139600464Y-86109999D01*
X139600464Y-86110000D01*
X140536314Y-86110000D01*
X140510507Y-86150156D01*
X140470000Y-86288111D01*
X140470000Y-86431889D01*
X140510507Y-86569844D01*
X140536314Y-86610000D01*
X139600464Y-86610000D01*
X139651757Y-86812553D01*
X139744224Y-87023355D01*
X139870126Y-87216062D01*
X140026029Y-87385419D01*
X140026039Y-87385428D01*
X140211733Y-87529960D01*
X140210789Y-87531172D01*
X140251639Y-87579043D01*
X140261060Y-87648274D01*
X140231556Y-87711609D01*
X140211181Y-87729263D01*
X140211459Y-87729620D01*
X140025694Y-87874206D01*
X140025689Y-87874211D01*
X139869728Y-88043629D01*
X139743782Y-88236405D01*
X139651282Y-88447285D01*
X139594753Y-88670515D01*
X139575738Y-88899994D01*
X139575738Y-88900005D01*
X139594753Y-89129484D01*
X139651282Y-89352714D01*
X139743782Y-89563594D01*
X139869728Y-89756370D01*
X139869731Y-89756373D01*
X140025692Y-89925792D01*
X140066620Y-89957647D01*
X140107433Y-90014357D01*
X140111106Y-90084131D01*
X140076475Y-90144814D01*
X140014533Y-90177140D01*
X139990457Y-90179500D01*
X130714451Y-90179500D01*
X130647412Y-90159815D01*
X130601657Y-90107011D01*
X130591713Y-90037853D01*
X130620738Y-89974297D01*
X130626770Y-89967819D01*
X131865541Y-88729048D01*
X133125872Y-87468716D01*
X133187193Y-87435233D01*
X133256885Y-87440217D01*
X133312818Y-87482089D01*
X133327107Y-87506589D01*
X133393782Y-87658594D01*
X133519728Y-87851370D01*
X133519731Y-87851373D01*
X133675692Y-88020792D01*
X133731639Y-88064337D01*
X133855658Y-88160865D01*
X133857411Y-88162229D01*
X134059931Y-88271828D01*
X134173025Y-88310653D01*
X134277725Y-88346597D01*
X134277727Y-88346597D01*
X134277729Y-88346598D01*
X134504863Y-88384500D01*
X134504864Y-88384500D01*
X134735136Y-88384500D01*
X134735137Y-88384500D01*
X134962271Y-88346598D01*
X135180069Y-88271828D01*
X135382589Y-88162229D01*
X135564308Y-88020792D01*
X135720269Y-87851373D01*
X135846217Y-87658595D01*
X135938717Y-87447716D01*
X135995246Y-87224488D01*
X136010795Y-87036839D01*
X136014262Y-86995005D01*
X136014262Y-86994994D01*
X135995246Y-86765515D01*
X135995246Y-86765512D01*
X135938717Y-86542284D01*
X135930831Y-86524307D01*
X135921931Y-86455008D01*
X135951908Y-86391896D01*
X136011248Y-86355011D01*
X136044389Y-86350500D01*
X137077257Y-86350500D01*
X137092877Y-86352224D01*
X137092904Y-86351939D01*
X137100660Y-86352671D01*
X137100667Y-86352673D01*
X137169814Y-86350500D01*
X137199350Y-86350500D01*
X137206228Y-86349630D01*
X137212041Y-86349172D01*
X137258627Y-86347709D01*
X137277869Y-86342117D01*
X137296912Y-86338174D01*
X137316792Y-86335664D01*
X137360122Y-86318507D01*
X137365646Y-86316617D01*
X137369539Y-86315486D01*
X137410390Y-86303618D01*
X137427629Y-86293422D01*
X137445103Y-86284862D01*
X137463727Y-86277488D01*
X137463727Y-86277487D01*
X137463732Y-86277486D01*
X137501449Y-86250082D01*
X137506305Y-86246892D01*
X137546420Y-86223170D01*
X137560589Y-86208999D01*
X137575379Y-86196368D01*
X137591587Y-86184594D01*
X137621299Y-86148676D01*
X137625212Y-86144376D01*
X139475872Y-84293717D01*
X139537193Y-84260234D01*
X139606885Y-84265218D01*
G37*
G04 #@! TD.AperFunction*
G04 #@! TA.AperFunction,Conductor*
G36*
X152313197Y-83195185D02*
G01*
X152358952Y-83247989D01*
X152368896Y-83317147D01*
X152359713Y-83349312D01*
X152351758Y-83367446D01*
X152300464Y-83569999D01*
X152300464Y-83570000D01*
X153236314Y-83570000D01*
X153210507Y-83610156D01*
X153170000Y-83748111D01*
X153170000Y-83891889D01*
X153210507Y-84029844D01*
X153236314Y-84070000D01*
X152300464Y-84070000D01*
X152351757Y-84272553D01*
X152444224Y-84483355D01*
X152570126Y-84676062D01*
X152726029Y-84845419D01*
X152726039Y-84845428D01*
X152911733Y-84989960D01*
X152910789Y-84991172D01*
X152951639Y-85039043D01*
X152961060Y-85108274D01*
X152931556Y-85171609D01*
X152911181Y-85189263D01*
X152911459Y-85189620D01*
X152725694Y-85334206D01*
X152725689Y-85334211D01*
X152569728Y-85503629D01*
X152443782Y-85696405D01*
X152351282Y-85907285D01*
X152294753Y-86130515D01*
X152275738Y-86359994D01*
X152275738Y-86360005D01*
X152294753Y-86589484D01*
X152351282Y-86812714D01*
X152443782Y-87023594D01*
X152569728Y-87216370D01*
X152606526Y-87256343D01*
X152725692Y-87385792D01*
X152830527Y-87467388D01*
X152911459Y-87530380D01*
X152910476Y-87531641D01*
X152951183Y-87579349D01*
X152960600Y-87648581D01*
X152931092Y-87711914D01*
X152911136Y-87729205D01*
X152911459Y-87729620D01*
X152725694Y-87874206D01*
X152725689Y-87874211D01*
X152569728Y-88043629D01*
X152443782Y-88236405D01*
X152351282Y-88447285D01*
X152294753Y-88670515D01*
X152275738Y-88899994D01*
X152275738Y-88900005D01*
X152294753Y-89129484D01*
X152351282Y-89352714D01*
X152443782Y-89563594D01*
X152569728Y-89756370D01*
X152569731Y-89756373D01*
X152725692Y-89925792D01*
X152766620Y-89957647D01*
X152807433Y-90014357D01*
X152811106Y-90084131D01*
X152776475Y-90144814D01*
X152714533Y-90177140D01*
X152690457Y-90179500D01*
X141949543Y-90179500D01*
X141882504Y-90159815D01*
X141836749Y-90107011D01*
X141826805Y-90037853D01*
X141855830Y-89974297D01*
X141873377Y-89957649D01*
X141914308Y-89925792D01*
X142070269Y-89756373D01*
X142196217Y-89563595D01*
X142288717Y-89352716D01*
X142345246Y-89129488D01*
X142355961Y-89000181D01*
X142364262Y-88900005D01*
X142364262Y-88899994D01*
X142345246Y-88670515D01*
X142345246Y-88670512D01*
X142288717Y-88447284D01*
X142196217Y-88236405D01*
X142070271Y-88043629D01*
X142006096Y-87973917D01*
X141914308Y-87874208D01*
X141732589Y-87732771D01*
X141732590Y-87732771D01*
X141728541Y-87729620D01*
X141729428Y-87728480D01*
X141688363Y-87680366D01*
X141678938Y-87611135D01*
X141708437Y-87547798D01*
X141728572Y-87530352D01*
X141728267Y-87529960D01*
X141913960Y-87385428D01*
X141913970Y-87385419D01*
X142069873Y-87216062D01*
X142195775Y-87023355D01*
X142288242Y-86812553D01*
X142339535Y-86610000D01*
X141403686Y-86610000D01*
X141429493Y-86569844D01*
X141470000Y-86431889D01*
X141470000Y-86288111D01*
X141429493Y-86150156D01*
X141403686Y-86110000D01*
X142339536Y-86110000D01*
X142339535Y-86109999D01*
X142288242Y-85907446D01*
X142195775Y-85696644D01*
X142069873Y-85503937D01*
X141913970Y-85334580D01*
X141913960Y-85334571D01*
X141728267Y-85190040D01*
X141729209Y-85188829D01*
X141688355Y-85140947D01*
X141678941Y-85071714D01*
X141708450Y-85008382D01*
X141728820Y-84990738D01*
X141728541Y-84990380D01*
X141779510Y-84950709D01*
X141914308Y-84845792D01*
X142070269Y-84676373D01*
X142184402Y-84501678D01*
X142237548Y-84456322D01*
X142288211Y-84445500D01*
X147237257Y-84445500D01*
X147252877Y-84447224D01*
X147252904Y-84446939D01*
X147260660Y-84447671D01*
X147260667Y-84447673D01*
X147329814Y-84445500D01*
X147359350Y-84445500D01*
X147366228Y-84444630D01*
X147372041Y-84444172D01*
X147418627Y-84442709D01*
X147437869Y-84437117D01*
X147456912Y-84433174D01*
X147476792Y-84430664D01*
X147520122Y-84413507D01*
X147525646Y-84411617D01*
X147529396Y-84410527D01*
X147570390Y-84398618D01*
X147587629Y-84388422D01*
X147605103Y-84379862D01*
X147623727Y-84372488D01*
X147623727Y-84372487D01*
X147623732Y-84372486D01*
X147661449Y-84345082D01*
X147666305Y-84341892D01*
X147706420Y-84318170D01*
X147720589Y-84303999D01*
X147735379Y-84291368D01*
X147751587Y-84279594D01*
X147781299Y-84243676D01*
X147785212Y-84239376D01*
X148812772Y-83211819D01*
X148874095Y-83178334D01*
X148900453Y-83175500D01*
X152246158Y-83175500D01*
X152313197Y-83195185D01*
G37*
G04 #@! TD.AperFunction*
G04 #@! TA.AperFunction,Conductor*
G36*
X133286210Y-82425825D02*
G01*
X133342143Y-82467697D01*
X133356432Y-82492197D01*
X133394224Y-82578355D01*
X133520126Y-82771062D01*
X133676029Y-82940419D01*
X133676039Y-82940428D01*
X133861733Y-83084960D01*
X133860789Y-83086172D01*
X133901639Y-83134043D01*
X133911060Y-83203274D01*
X133881556Y-83266609D01*
X133861181Y-83284263D01*
X133861459Y-83284620D01*
X133675694Y-83429206D01*
X133675689Y-83429211D01*
X133519728Y-83598629D01*
X133393782Y-83791405D01*
X133301282Y-84002285D01*
X133244753Y-84225515D01*
X133225738Y-84454994D01*
X133225738Y-84455005D01*
X133244753Y-84684484D01*
X133301282Y-84907714D01*
X133389510Y-85108855D01*
X133393783Y-85118595D01*
X133462405Y-85223631D01*
X133482592Y-85290518D01*
X133463412Y-85357703D01*
X133446277Y-85379131D01*
X129825228Y-89000181D01*
X129763905Y-89033666D01*
X129737547Y-89036500D01*
X119748218Y-89036500D01*
X119681179Y-89016815D01*
X119635424Y-88964011D01*
X119625480Y-88894853D01*
X119635837Y-88860094D01*
X119637900Y-88855669D01*
X119637903Y-88855663D01*
X119699063Y-88627408D01*
X119719659Y-88392000D01*
X119699063Y-88156592D01*
X119647593Y-87964500D01*
X119637905Y-87928344D01*
X119637904Y-87928343D01*
X119637903Y-87928337D01*
X119538035Y-87714171D01*
X119532549Y-87706335D01*
X119402494Y-87520597D01*
X119235402Y-87353506D01*
X119235401Y-87353505D01*
X119049405Y-87223269D01*
X119005781Y-87168692D01*
X118998588Y-87099193D01*
X119030110Y-87036839D01*
X119049405Y-87020119D01*
X119235082Y-86890105D01*
X119402105Y-86723082D01*
X119537600Y-86529578D01*
X119637429Y-86315492D01*
X119637432Y-86315486D01*
X119694636Y-86102000D01*
X118797686Y-86102000D01*
X118823493Y-86061844D01*
X118864000Y-85923889D01*
X118864000Y-85780111D01*
X118823493Y-85642156D01*
X118797686Y-85602000D01*
X119694636Y-85602000D01*
X119694635Y-85601999D01*
X119637432Y-85388513D01*
X119637429Y-85388507D01*
X119537600Y-85174422D01*
X119537599Y-85174420D01*
X119402113Y-84980926D01*
X119402108Y-84980920D01*
X119235082Y-84813894D01*
X119041578Y-84678399D01*
X118827492Y-84578570D01*
X118827486Y-84578567D01*
X118614000Y-84521364D01*
X118614000Y-85416498D01*
X118506315Y-85367320D01*
X118399763Y-85352000D01*
X118328237Y-85352000D01*
X118221685Y-85367320D01*
X118114000Y-85416498D01*
X118114000Y-84521364D01*
X118113999Y-84521363D01*
X117970593Y-84559789D01*
X117900743Y-84558126D01*
X117842881Y-84518963D01*
X117815377Y-84454735D01*
X117814500Y-84440014D01*
X117814500Y-83008499D01*
X117834185Y-82941460D01*
X117886989Y-82895705D01*
X117938500Y-82884499D01*
X118778547Y-82884499D01*
X118845586Y-82904184D01*
X118866228Y-82920818D01*
X119514194Y-83568784D01*
X119524019Y-83581048D01*
X119524240Y-83580866D01*
X119529210Y-83586873D01*
X119529213Y-83586876D01*
X119529214Y-83586877D01*
X119579651Y-83634241D01*
X119600530Y-83655120D01*
X119606004Y-83659366D01*
X119610442Y-83663156D01*
X119644418Y-83695062D01*
X119661973Y-83704713D01*
X119678231Y-83715392D01*
X119694064Y-83727674D01*
X119716015Y-83737172D01*
X119736837Y-83746183D01*
X119742081Y-83748752D01*
X119782908Y-83771197D01*
X119802312Y-83776179D01*
X119820710Y-83782478D01*
X119839105Y-83790438D01*
X119885129Y-83797726D01*
X119890832Y-83798907D01*
X119935981Y-83810500D01*
X119956016Y-83810500D01*
X119975413Y-83812026D01*
X119995196Y-83815160D01*
X120041584Y-83810775D01*
X120047422Y-83810500D01*
X120495611Y-83810500D01*
X120562650Y-83830185D01*
X120608405Y-83882989D01*
X120618349Y-83952147D01*
X120609168Y-83984308D01*
X120601282Y-84002286D01*
X120544753Y-84225515D01*
X120525738Y-84454994D01*
X120525738Y-84455005D01*
X120544753Y-84684484D01*
X120601282Y-84907714D01*
X120693782Y-85118594D01*
X120819728Y-85311370D01*
X120857131Y-85352000D01*
X120975692Y-85480792D01*
X121005429Y-85503937D01*
X121161459Y-85625380D01*
X121160476Y-85626641D01*
X121201183Y-85674349D01*
X121210600Y-85743581D01*
X121181092Y-85806914D01*
X121161136Y-85824205D01*
X121161459Y-85824620D01*
X120975694Y-85969206D01*
X120975689Y-85969211D01*
X120819728Y-86138629D01*
X120693782Y-86331405D01*
X120601282Y-86542285D01*
X120544753Y-86765515D01*
X120525738Y-86994994D01*
X120525738Y-86995005D01*
X120544753Y-87224484D01*
X120601282Y-87447714D01*
X120693782Y-87658594D01*
X120819728Y-87851370D01*
X120819731Y-87851373D01*
X120975692Y-88020792D01*
X121031639Y-88064337D01*
X121155658Y-88160865D01*
X121157411Y-88162229D01*
X121359931Y-88271828D01*
X121473025Y-88310653D01*
X121577725Y-88346597D01*
X121577727Y-88346597D01*
X121577729Y-88346598D01*
X121804863Y-88384500D01*
X121804864Y-88384500D01*
X122035136Y-88384500D01*
X122035137Y-88384500D01*
X122262271Y-88346598D01*
X122480069Y-88271828D01*
X122682589Y-88162229D01*
X122864308Y-88020792D01*
X123020269Y-87851373D01*
X123146217Y-87658595D01*
X123238717Y-87447716D01*
X123295246Y-87224488D01*
X123310795Y-87036839D01*
X123314262Y-86995005D01*
X123314262Y-86994994D01*
X123295246Y-86765515D01*
X123295246Y-86765512D01*
X123238717Y-86542284D01*
X123146217Y-86331405D01*
X123115809Y-86284862D01*
X123020271Y-86138629D01*
X122993355Y-86109390D01*
X122864308Y-85969208D01*
X122682589Y-85827771D01*
X122682590Y-85827771D01*
X122678541Y-85824620D01*
X122679525Y-85823354D01*
X122638824Y-85775670D01*
X122629396Y-85706439D01*
X122658893Y-85643102D01*
X122678865Y-85625796D01*
X122678541Y-85625380D01*
X122715174Y-85596866D01*
X122864308Y-85480792D01*
X123020269Y-85311373D01*
X123146217Y-85118595D01*
X123238717Y-84907716D01*
X123295246Y-84684488D01*
X123311893Y-84483594D01*
X123314262Y-84455005D01*
X123314262Y-84454994D01*
X123296752Y-84243689D01*
X123295246Y-84225512D01*
X123238717Y-84002284D01*
X123230831Y-83984307D01*
X123221931Y-83915008D01*
X123251908Y-83851896D01*
X123311248Y-83815011D01*
X123344389Y-83810500D01*
X131457190Y-83810500D01*
X131472810Y-83812224D01*
X131472837Y-83811939D01*
X131480593Y-83812671D01*
X131480600Y-83812673D01*
X131549747Y-83810500D01*
X131579283Y-83810500D01*
X131586161Y-83809630D01*
X131591974Y-83809172D01*
X131638560Y-83807709D01*
X131657802Y-83802117D01*
X131676845Y-83798174D01*
X131696725Y-83795664D01*
X131740055Y-83778507D01*
X131745579Y-83776617D01*
X131749329Y-83775527D01*
X131790323Y-83763618D01*
X131807562Y-83753422D01*
X131825036Y-83744862D01*
X131843660Y-83737488D01*
X131843660Y-83737487D01*
X131843665Y-83737486D01*
X131881382Y-83710082D01*
X131886238Y-83706892D01*
X131926353Y-83683170D01*
X131940522Y-83668999D01*
X131955312Y-83656368D01*
X131971520Y-83644594D01*
X132001232Y-83608676D01*
X132005145Y-83604376D01*
X133155199Y-82454323D01*
X133216518Y-82420841D01*
X133286210Y-82425825D01*
G37*
G04 #@! TD.AperFunction*
G04 #@! TA.AperFunction,Conductor*
G36*
X140510507Y-78530156D02*
G01*
X140470000Y-78668111D01*
X140470000Y-78811889D01*
X140510507Y-78949844D01*
X140536314Y-78990000D01*
X139600464Y-78990000D01*
X139651757Y-79192553D01*
X139744223Y-79403352D01*
X139850280Y-79565684D01*
X139870467Y-79632574D01*
X139851287Y-79699759D01*
X139834152Y-79721187D01*
X135921675Y-83633666D01*
X135860352Y-83667151D01*
X135790660Y-83662167D01*
X135734727Y-83620295D01*
X135730185Y-83613805D01*
X135727919Y-83610337D01*
X135720269Y-83598627D01*
X135564308Y-83429208D01*
X135423997Y-83320000D01*
X135378541Y-83284620D01*
X135379428Y-83283480D01*
X135338363Y-83235366D01*
X135328938Y-83166135D01*
X135358437Y-83102798D01*
X135378572Y-83085352D01*
X135378267Y-83084960D01*
X135563960Y-82940428D01*
X135563970Y-82940419D01*
X135719873Y-82771062D01*
X135845775Y-82578355D01*
X135938242Y-82367553D01*
X135989535Y-82165000D01*
X135053686Y-82165000D01*
X135079493Y-82124844D01*
X135120000Y-81986889D01*
X135120000Y-81843111D01*
X135079493Y-81705156D01*
X135053686Y-81665000D01*
X135989536Y-81665000D01*
X135989535Y-81664999D01*
X135938241Y-81462446D01*
X135930287Y-81444312D01*
X135921383Y-81375012D01*
X135951359Y-81311900D01*
X136010697Y-81275012D01*
X136043842Y-81270500D01*
X136442257Y-81270500D01*
X136457877Y-81272224D01*
X136457904Y-81271939D01*
X136465660Y-81272671D01*
X136465667Y-81272673D01*
X136534814Y-81270500D01*
X136564350Y-81270500D01*
X136571228Y-81269630D01*
X136577041Y-81269172D01*
X136623627Y-81267709D01*
X136642869Y-81262117D01*
X136661912Y-81258174D01*
X136681792Y-81255664D01*
X136725122Y-81238507D01*
X136730646Y-81236617D01*
X136734396Y-81235527D01*
X136775390Y-81223618D01*
X136792629Y-81213422D01*
X136810103Y-81204862D01*
X136828727Y-81197488D01*
X136828727Y-81197487D01*
X136828732Y-81197486D01*
X136866449Y-81170082D01*
X136871305Y-81166892D01*
X136911420Y-81143170D01*
X136925589Y-81128999D01*
X136940379Y-81116368D01*
X136956587Y-81104594D01*
X136986299Y-81068676D01*
X136990212Y-81064376D01*
X139528272Y-78526316D01*
X139589592Y-78492834D01*
X139615950Y-78490000D01*
X140536314Y-78490000D01*
X140510507Y-78530156D01*
G37*
G04 #@! TD.AperFunction*
G04 #@! TA.AperFunction,Conductor*
G36*
X136614207Y-70495185D02*
G01*
X136634849Y-70511819D01*
X140721848Y-74598819D01*
X140755333Y-74660142D01*
X140750349Y-74729834D01*
X140708477Y-74785767D01*
X140643013Y-74810184D01*
X140634167Y-74810500D01*
X140033129Y-74810500D01*
X140033123Y-74810501D01*
X139973516Y-74816908D01*
X139838671Y-74867202D01*
X139838664Y-74867206D01*
X139723455Y-74953452D01*
X139723452Y-74953455D01*
X139637206Y-75068664D01*
X139637202Y-75068671D01*
X139586908Y-75203517D01*
X139580501Y-75263116D01*
X139580500Y-75263135D01*
X139580500Y-76653546D01*
X139560815Y-76720585D01*
X139544181Y-76741227D01*
X136302228Y-79983181D01*
X136240905Y-80016666D01*
X136214547Y-80019500D01*
X136044389Y-80019500D01*
X135977350Y-79999815D01*
X135931595Y-79947011D01*
X135921651Y-79877853D01*
X135930832Y-79845692D01*
X135938717Y-79827716D01*
X135995246Y-79604488D01*
X136008077Y-79449646D01*
X136014262Y-79375005D01*
X136014262Y-79374994D01*
X135995246Y-79145515D01*
X135995246Y-79145512D01*
X135938717Y-78922284D01*
X135846217Y-78711405D01*
X135817932Y-78668111D01*
X135720271Y-78518629D01*
X135622924Y-78412882D01*
X135564308Y-78349208D01*
X135382589Y-78207771D01*
X135382590Y-78207771D01*
X135378541Y-78204620D01*
X135379525Y-78203354D01*
X135338824Y-78155670D01*
X135329396Y-78086439D01*
X135358893Y-78023102D01*
X135378865Y-78005796D01*
X135378541Y-78005380D01*
X135465113Y-77937998D01*
X135564308Y-77860792D01*
X135720269Y-77691373D01*
X135846217Y-77498595D01*
X135938717Y-77287716D01*
X135995246Y-77064488D01*
X136007413Y-76917655D01*
X136014262Y-76835005D01*
X136014262Y-76834994D01*
X136000494Y-76668849D01*
X135995246Y-76605512D01*
X135938717Y-76382284D01*
X135846217Y-76171405D01*
X135720271Y-75978629D01*
X135693355Y-75949390D01*
X135564308Y-75809208D01*
X135436930Y-75710066D01*
X135378541Y-75664620D01*
X135379525Y-75663354D01*
X135338824Y-75615670D01*
X135329396Y-75546439D01*
X135358893Y-75483102D01*
X135378865Y-75465796D01*
X135378541Y-75465380D01*
X135441866Y-75416092D01*
X135564308Y-75320792D01*
X135720269Y-75151373D01*
X135846217Y-74958595D01*
X135938717Y-74747716D01*
X135995246Y-74524488D01*
X136014262Y-74295000D01*
X135995246Y-74065512D01*
X135938717Y-73842284D01*
X135846217Y-73631405D01*
X135836889Y-73617128D01*
X135720271Y-73438629D01*
X135646165Y-73358129D01*
X135564308Y-73269208D01*
X135418740Y-73155908D01*
X135382591Y-73127772D01*
X135180069Y-73018172D01*
X135180061Y-73018169D01*
X134962274Y-72943402D01*
X134773538Y-72911908D01*
X134735137Y-72905500D01*
X134504863Y-72905500D01*
X134466462Y-72911908D01*
X134277725Y-72943402D01*
X134059938Y-73018169D01*
X134059930Y-73018172D01*
X133857408Y-73127772D01*
X133675694Y-73269206D01*
X133675689Y-73269211D01*
X133519728Y-73438629D01*
X133393782Y-73631405D01*
X133301282Y-73842285D01*
X133244753Y-74065515D01*
X133225738Y-74294994D01*
X133225738Y-74295005D01*
X133244753Y-74524484D01*
X133301282Y-74747714D01*
X133393782Y-74958594D01*
X133519728Y-75151370D01*
X133546173Y-75180097D01*
X133675692Y-75320792D01*
X133773205Y-75396689D01*
X133861459Y-75465380D01*
X133860476Y-75466641D01*
X133901183Y-75514349D01*
X133910600Y-75583581D01*
X133881092Y-75646914D01*
X133861136Y-75664205D01*
X133861459Y-75664620D01*
X133675694Y-75809206D01*
X133675689Y-75809211D01*
X133519728Y-75978629D01*
X133393782Y-76171405D01*
X133301282Y-76382285D01*
X133244753Y-76605515D01*
X133225738Y-76834994D01*
X133225738Y-76835005D01*
X133244753Y-77064484D01*
X133301282Y-77287714D01*
X133393782Y-77498594D01*
X133519728Y-77691370D01*
X133540750Y-77714206D01*
X133675692Y-77860792D01*
X133774887Y-77937998D01*
X133861459Y-78005380D01*
X133860476Y-78006641D01*
X133901183Y-78054349D01*
X133910600Y-78123581D01*
X133881092Y-78186914D01*
X133861136Y-78204205D01*
X133861459Y-78204620D01*
X133675694Y-78349206D01*
X133675689Y-78349211D01*
X133519728Y-78518629D01*
X133393782Y-78711405D01*
X133301282Y-78922285D01*
X133244753Y-79145515D01*
X133225738Y-79374994D01*
X133225738Y-79375005D01*
X133244753Y-79604484D01*
X133301282Y-79827714D01*
X133393782Y-80038594D01*
X133499918Y-80201048D01*
X133520106Y-80267937D01*
X133500925Y-80335123D01*
X133483790Y-80356550D01*
X131317161Y-82523181D01*
X131255838Y-82556666D01*
X131229480Y-82559500D01*
X123344389Y-82559500D01*
X123277350Y-82539815D01*
X123231595Y-82487011D01*
X123221651Y-82417853D01*
X123230832Y-82385692D01*
X123238717Y-82367716D01*
X123295246Y-82144488D01*
X123308305Y-81986889D01*
X123314262Y-81915005D01*
X123314262Y-81914994D01*
X123295246Y-81685515D01*
X123295246Y-81685512D01*
X123238717Y-81462284D01*
X123146217Y-81251405D01*
X123115809Y-81204862D01*
X123020271Y-81058629D01*
X122993355Y-81029390D01*
X122864308Y-80889208D01*
X122682589Y-80747771D01*
X122682590Y-80747771D01*
X122678541Y-80744620D01*
X122679525Y-80743354D01*
X122638824Y-80695670D01*
X122629396Y-80626439D01*
X122658893Y-80563102D01*
X122678865Y-80545796D01*
X122678541Y-80545380D01*
X122742625Y-80495501D01*
X122864308Y-80400792D01*
X123020269Y-80231373D01*
X123146217Y-80038595D01*
X123238717Y-79827716D01*
X123295246Y-79604488D01*
X123308077Y-79449646D01*
X123314262Y-79375005D01*
X123314262Y-79374994D01*
X123295246Y-79145515D01*
X123295246Y-79145512D01*
X123238717Y-78922284D01*
X123146217Y-78711405D01*
X123117932Y-78668111D01*
X123020271Y-78518629D01*
X122922924Y-78412882D01*
X122864308Y-78349208D01*
X122682589Y-78207771D01*
X122682590Y-78207771D01*
X122678541Y-78204620D01*
X122679428Y-78203480D01*
X122638363Y-78155366D01*
X122628938Y-78086135D01*
X122658437Y-78022798D01*
X122678572Y-78005352D01*
X122678267Y-78004960D01*
X122863960Y-77860428D01*
X122863970Y-77860419D01*
X123019873Y-77691062D01*
X123145775Y-77498355D01*
X123238242Y-77287553D01*
X123289535Y-77085000D01*
X122353686Y-77085000D01*
X122379493Y-77044844D01*
X122420000Y-76906889D01*
X122420000Y-76763111D01*
X122379493Y-76625156D01*
X122353686Y-76585000D01*
X123289536Y-76585000D01*
X123289535Y-76584999D01*
X123238242Y-76382446D01*
X123145775Y-76171644D01*
X123019873Y-75978937D01*
X122912211Y-75861984D01*
X122881289Y-75799329D01*
X122889149Y-75729903D01*
X122933296Y-75675748D01*
X122960105Y-75661821D01*
X123051331Y-75627796D01*
X123166546Y-75541546D01*
X123252796Y-75426331D01*
X123303091Y-75291483D01*
X123309500Y-75231873D01*
X123309499Y-73358128D01*
X123303091Y-73298517D01*
X123295873Y-73279165D01*
X123252797Y-73163671D01*
X123252793Y-73163664D01*
X123166547Y-73048455D01*
X123166544Y-73048452D01*
X123051335Y-72962206D01*
X123051328Y-72962202D01*
X122916482Y-72911908D01*
X122916483Y-72911908D01*
X122856883Y-72905501D01*
X122856881Y-72905500D01*
X122856873Y-72905500D01*
X122856864Y-72905500D01*
X120983129Y-72905500D01*
X120983123Y-72905501D01*
X120923516Y-72911908D01*
X120788671Y-72962202D01*
X120788664Y-72962206D01*
X120673455Y-73048452D01*
X120673452Y-73048455D01*
X120587206Y-73163664D01*
X120587202Y-73163671D01*
X120536908Y-73298517D01*
X120531893Y-73345170D01*
X120530501Y-73358123D01*
X120530500Y-73358135D01*
X120530500Y-74748546D01*
X120510815Y-74815585D01*
X120494181Y-74836227D01*
X119648842Y-75681565D01*
X119587519Y-75715050D01*
X119517827Y-75710066D01*
X119461894Y-75668194D01*
X119459586Y-75665007D01*
X119402113Y-75582926D01*
X119402108Y-75582920D01*
X119235078Y-75415890D01*
X119049405Y-75285879D01*
X119005780Y-75231302D01*
X118998588Y-75161804D01*
X119030110Y-75099449D01*
X119049406Y-75082730D01*
X119066160Y-75070999D01*
X119235401Y-74952495D01*
X119402495Y-74785401D01*
X119538035Y-74591830D01*
X119637903Y-74377663D01*
X119699063Y-74149408D01*
X119719659Y-73914000D01*
X119699063Y-73678592D01*
X119672143Y-73578125D01*
X119673806Y-73508276D01*
X119704235Y-73458353D01*
X120697092Y-72465497D01*
X120758413Y-72432014D01*
X120828105Y-72436998D01*
X120849862Y-72447638D01*
X120950666Y-72509814D01*
X121117203Y-72564999D01*
X121219991Y-72575500D01*
X122620008Y-72575499D01*
X122722797Y-72564999D01*
X122889334Y-72509814D01*
X123038656Y-72417712D01*
X123162712Y-72293656D01*
X123254814Y-72144334D01*
X123258871Y-72132091D01*
X123261886Y-72122994D01*
X123301659Y-72065550D01*
X123366175Y-72038728D01*
X123379591Y-72038000D01*
X123449757Y-72038000D01*
X123465377Y-72039724D01*
X123465404Y-72039439D01*
X123473160Y-72040171D01*
X123473167Y-72040173D01*
X123542314Y-72038000D01*
X123571850Y-72038000D01*
X123578728Y-72037130D01*
X123584541Y-72036672D01*
X123631127Y-72035209D01*
X123650369Y-72029617D01*
X123669412Y-72025674D01*
X123689292Y-72023164D01*
X123732622Y-72006007D01*
X123738146Y-72004117D01*
X123741896Y-72003027D01*
X123782890Y-71991118D01*
X123800129Y-71980922D01*
X123817603Y-71972362D01*
X123836227Y-71964988D01*
X123836227Y-71964987D01*
X123836232Y-71964986D01*
X123873949Y-71937582D01*
X123878805Y-71934392D01*
X123918920Y-71910670D01*
X123933089Y-71896499D01*
X123947879Y-71883868D01*
X123964087Y-71872094D01*
X123993799Y-71836176D01*
X123997712Y-71831876D01*
X124955271Y-70874318D01*
X125016594Y-70840833D01*
X125042952Y-70837999D01*
X125381670Y-70837999D01*
X125381676Y-70837999D01*
X125482753Y-70827674D01*
X125646516Y-70773408D01*
X125793350Y-70682840D01*
X125915340Y-70560850D01*
X125931652Y-70534404D01*
X125983600Y-70487679D01*
X126037191Y-70475500D01*
X136547168Y-70475500D01*
X136614207Y-70495185D01*
G37*
G04 #@! TD.AperFunction*
M02*
